<svg id="Layer_1" data-name="Layer 1" xmlns="http://www.w3.org/2000/svg" viewBox="0 0 1102.3 5605.6">
	<path fill="#fff" stroke="white" stroke-width="2" class="cls-1" d="M620.09,495a9,9,0,0,0-5.88-.6,14.16,14.16,0,0,0-5.1,2.52,21.55,21.55,0,0,0-4.2,4.32,52.13,52.13,0,0,0-3.18,4.8,150.17,150.17,0,0,0-10.08,21.12q-3.84,9.72-6.72,19.5t-5.64,19.62q-1.32,5-2.76,9.9t-2.88,9.9a20,20,0,0,1-1,2.52,7.47,7.47,0,0,1-1.5,2.22,3.68,3.68,0,0,1-2.1,1.08,3.79,3.79,0,0,1-2.64-.78,13.72,13.72,0,0,1-4.68-6.3,38.31,38.31,0,0,1-2.16-7.74,44.08,44.08,0,0,1-.42-9.48q.3-4.8.9-9.48.6-5,1.56-9.84t2.28-9.6a247.24,247.24,0,0,1-17.76,32.64q-1.68,2.64-3.42,5.28t-3.66,5.16a10.36,10.36,0,0,1-2.4,2.52,3.94,3.94,0,0,1-3.36.48,5.58,5.58,0,0,1-3.78-2.64,9.06,9.06,0,0,1-1-4.32,21.2,21.2,0,0,1,.6-4.92q.6-2.52,1.08-4.44A196.66,196.66,0,0,1,538.73,544q5-11.88,9.48-24.12,1.2-3,2.22-6t2-6.12q.36-1.44,1-3.42a20.11,20.11,0,0,0,.9-4,11.8,11.8,0,0,0-.12-3.78,4.34,4.34,0,0,0-2-2.82,6.78,6.78,0,0,0-5.4-.66,19.05,19.05,0,0,0-5.16,2.1,29.85,29.85,0,0,0-4.8,3.78,38.41,38.41,0,0,0-4,4.5,50.16,50.16,0,0,0-9.36,22.8,33.12,33.12,0,0,0-.36,6.3,27.4,27.4,0,0,0,1,6.24,23,23,0,0,0,2.46,5.76,15.6,15.6,0,0,0,4.26,4.62q.24.12.06.42t-.42.06a18.75,18.75,0,0,1-8-8.28,23.47,23.47,0,0,1-2.34-11.4,37.55,37.55,0,0,1,3.18-13,83.11,83.11,0,0,1,6.3-11.88,48.54,48.54,0,0,1,6.48-7.92,20.34,20.34,0,0,1,8.76-5.28,12,12,0,0,1,4-.54,9.63,9.63,0,0,1,3.66.78,6.43,6.43,0,0,1,2.7,2.28,7.28,7.28,0,0,1,1.2,3.84,17.52,17.52,0,0,1-.72,6.36q-1,3.24-1.8,6.12-1,3.24-1.92,6.42t-2.16,6.3Q547.49,529.8,545,536t-4.92,12.42q-2.4,6.36-4.56,12.78t-3.72,13a31,31,0,0,0-.54,3.6,5.49,5.49,0,0,0,.78,3.48,4,4,0,0,0,2.22,1.74,2.94,2.94,0,0,0,2.7-.54,6.19,6.19,0,0,0,1.2-1.32q.48-.72,1.08-1.56,1.92-2.76,3.72-5.52l3.6-5.52a220.58,220.58,0,0,0,12.78-24.06q5.58-12.3,10.5-25a.67.67,0,0,1,1-.48,1.84,1.84,0,0,0,.24-.72.54.54,0,0,1,.72-.18q.48.18.24.66a197.61,197.61,0,0,0-6.36,22.5,174.06,174.06,0,0,0-3.48,23.1q-.36,4.32-.36,8.64a28.26,28.26,0,0,0,1.32,8.52,21.58,21.58,0,0,0,2.16,5.28,9.58,9.58,0,0,0,.6,1,5.9,5.9,0,0,0,.72.9,10.28,10.28,0,0,0,1.8.78,2.47,2.47,0,0,0,1.92.06,2.62,2.62,0,0,0,1.32-1.5,19.68,19.68,0,0,0,.84-2.46q.36-1.32.6-2.64a15.69,15.69,0,0,1,.48-2q2.4-9.36,4.62-18.72T583,543.48q2.76-9.24,6.12-18.18A138.25,138.25,0,0,1,597.05,508a61.68,61.68,0,0,1,4-6.48,28.14,28.14,0,0,1,5.34-5.88,14.81,14.81,0,0,1,6.54-3.12,10.18,10.18,0,0,1,7.56,1.8.38.38,0,0,1,.12.6Q620.33,495.24,620.09,495Z" transform="translate(-79.78 -415.61)"/>
	<path fill="#fff" stroke="white" stroke-width="2" class="cls-1" d="M629.33,558.24q.24-.24.42-.06t-.06.42a37.89,37.89,0,0,1-22.08,10.68,27,27,0,0,1-5.7.12,10.11,10.11,0,0,1-5.34-2,6.9,6.9,0,0,1-2.46-3.84,7.75,7.75,0,0,1,.3-4.56q-.24-.24.12-.24a.49.49,0,0,1,.12-.36,13.43,13.43,0,0,1,3-4.14,11,11,0,0,1,4.32-2.7,5.68,5.68,0,0,1,3.36.06,2.89,2.89,0,0,1,2.16,2.34,3.75,3.75,0,0,1-.12,2.1,6.56,6.56,0,0,1-1.08,1.92,8.53,8.53,0,0,1-1.62,1.56,8.91,8.91,0,0,1-1.74,1,8,8,0,0,1-5.76.24q-.36,3.72,3.36,6a12.33,12.33,0,0,0,7.86,1.08,48.13,48.13,0,0,0,7.86-1.92A39.43,39.43,0,0,0,629.33,558.24Zm-28-4.32a13,13,0,0,0-2.64,2.7,8.43,8.43,0,0,0-1.44,3.18,7.19,7.19,0,0,0,3.54.3,7.66,7.66,0,0,0,3.42-1.62,6.81,6.81,0,0,0,1.08-1.08,5.11,5.11,0,0,0,.9-1.56,2.51,2.51,0,0,0,.06-1.62A2.17,2.17,0,0,0,605,553a2.62,2.62,0,0,0-2,.06A6.67,6.67,0,0,0,601.37,553.92Z" transform="translate(-79.78 -415.61)"/>
	<path fill="#fff" stroke="white" stroke-width="2" class="cls-1" d="M659,558q.36-.48.78-.24a.48.48,0,0,1,.18.72,105,105,0,0,1-6.9,8.76,58.44,58.44,0,0,1-8.1,7.68,15.29,15.29,0,0,1-3.54,2.1,10.44,10.44,0,0,1-3.72.84,8.43,8.43,0,0,1-3.66-.72,8.16,8.16,0,0,1-3.24-2.7,12.23,12.23,0,0,1-1.92-3.9,17.19,17.19,0,0,1-.66-4.26,32.36,32.36,0,0,1,.18-4.38q.24-2.22.6-4.26a75.32,75.32,0,0,1,4.92-18.6,82.71,82.71,0,0,1,3.84-8.82,68.68,68.68,0,0,1,4.92-8.22q1-1.44,2.1-3.24a26.29,26.29,0,0,1,2.52-3.36,15.45,15.45,0,0,1,3-2.64,7.24,7.24,0,0,1,3.66-1.2,5.14,5.14,0,0,1,4.2,1.32,5.84,5.84,0,0,1,1.44,3.78,18.58,18.58,0,0,1-.54,5.16,55.41,55.41,0,0,1-1.62,5.58,50.71,50.71,0,0,1-2,5q-1.08,2.28-1.68,3.36a61.62,61.62,0,0,1-9.24,13.26,40.67,40.67,0,0,1-13,9.54,53.05,53.05,0,0,0-.72,7.38,12.37,12.37,0,0,0,1.8,7,6.46,6.46,0,0,0,3.72,3,7.35,7.35,0,0,0,4.14-.24,14.61,14.61,0,0,0,4.08-2.22q2-1.5,3.66-2.94a48.64,48.64,0,0,0,5.76-6.06Q656.57,561.24,659,558Zm-23.64-15.12a72.75,72.75,0,0,0-3.6,14.52v.12a46.32,46.32,0,0,0,11.46-8.94,55.08,55.08,0,0,0,8.46-11.94,56.64,56.64,0,0,0,5-12.48q.48-1.68,1-3.72a6.93,6.93,0,0,0,.06-3.72,3,3,0,0,0-1.26-2,3.51,3.51,0,0,0-2-.48,5.08,5.08,0,0,0-2.22.66,8.06,8.06,0,0,0-1.8,1.32,28,28,0,0,0-4.86,5.88q-2.1,3.36-3.9,6.6A80.55,80.55,0,0,0,635.33,542.88Z" transform="translate(-79.78 -415.61)"/>
	<path fill="#fff" stroke="white" stroke-width="2" class="cls-1" d="M666.53,559.32q-.24.12-.36,0t0-.36a7.63,7.63,0,0,0,1.68-2.46,3,3,0,0,0,.12-2.94q-.84-1.56-1.74-1a12.77,12.77,0,0,0-1.74,1.26,11.7,11.7,0,0,0-3.6,5.88,8.64,8.64,0,0,0-.12,3.78,9.53,9.53,0,0,0,1.32,3.36,8.41,8.41,0,0,0,2.52,2.52,8.24,8.24,0,0,0,3.6,1.26,17.86,17.86,0,0,0,6.66-.54,22.87,22.87,0,0,0,6.24-2.76,33.24,33.24,0,0,0,5.46-4.32,33.61,33.61,0,0,0,4.32-5.1q.24-.48.72-.18a.54.54,0,0,1,.24.78,34,34,0,0,1-7,7.62,30.93,30.93,0,0,1-9.12,5.1,23.43,23.43,0,0,1-4.8,1.2,16.49,16.49,0,0,1-4.86,0,10.14,10.14,0,0,1-4.26-1.68,9.45,9.45,0,0,1-3.12-3.84,12,12,0,0,1-1-4.62,13.6,13.6,0,0,1,.78-4.86,14.26,14.26,0,0,1,2.4-4.32,11.21,11.21,0,0,1,3.72-3,5,5,0,0,1,3.24-.36,2.62,2.62,0,0,1,2,2.4,5.63,5.63,0,0,1-.78,4A14.16,14.16,0,0,1,666.53,559.32Z" transform="translate(-79.78 -415.61)"/>
	<path fill="#fff" stroke="white" stroke-width="2" class="cls-1" d="M724.13,558q.24-.36.54-.06a.47.47,0,0,1,.06.66,19.55,19.55,0,0,1-9.9,5.88,31.46,31.46,0,0,1-11.94.6q-.72-.12-1.56-.3a14.64,14.64,0,0,1-1.56-.42A13.66,13.66,0,0,1,698,566a9,9,0,0,1-2,1.2,4.69,4.69,0,0,1-3.3,0,4.91,4.91,0,0,1-2.58-2.28,5.2,5.2,0,0,1-.54-4.5,17.53,17.53,0,0,1,2.1-4.14l.12-.12a7.61,7.61,0,0,1,.24-3.72A5.91,5.91,0,0,1,694,549.6a8,8,0,0,1,3.06-1.68,5.66,5.66,0,0,1,3.36.06,5.11,5.11,0,0,1,2.76,2.22,6,6,0,0,1,.84,4.56,19,19,0,0,1-1.44,4.56l-.72,1.68a9,9,0,0,1-1,1.68,18.55,18.55,0,0,0,4.38.9,29,29,0,0,0,4.14.06,49.45,49.45,0,0,0,8-1.56A15.54,15.54,0,0,0,724.13,558Zm-27,6.36.42-.42.42-.42a15.92,15.92,0,0,1-3.3-2.34,8.94,8.94,0,0,1-2.22-3.06,12.76,12.76,0,0,0-1,2.16,5.85,5.85,0,0,0-.24,2.4,3,3,0,0,0,.78,1.86,3.43,3.43,0,0,0,1.5.9,3.09,3.09,0,0,0,1.8-.06A5.09,5.09,0,0,0,697.13,564.36Zm.36-14.28a4.09,4.09,0,0,0-3.12,2.64,6.84,6.84,0,0,0-.12,4.2,6.94,6.94,0,0,0,1.92,3,13.22,13.22,0,0,0,3,2,19.54,19.54,0,0,0,1.44-2.7,19.94,19.94,0,0,0,1-2.7,7.29,7.29,0,0,0,.3-2.46,6.8,6.8,0,0,0-.48-2.28,3.09,3.09,0,0,0-1.38-1.56A3.48,3.48,0,0,0,697.49,550.08Z" transform="translate(-79.78 -415.61)"/>
	<path fill="#fff" stroke="white" stroke-width="2" class="cls-1" d="M769.85,558.24a.34.34,0,0,1,.48.48q-2,2.16-4.32,4.2a32.48,32.48,0,0,1-4.86,3.6,27.05,27.05,0,0,1-5.46,2.52,16.78,16.78,0,0,1-6,.84,7.29,7.29,0,0,1-5.64-2.4q-1.92-2.28-1-6,.12-.24.36-.9t.48-1.38a13,13,0,0,0,.36-1.26,1.25,1.25,0,0,0,0-.78.88.88,0,0,0-1.08-.24,5.11,5.11,0,0,0-1.44.78,9.41,9.41,0,0,0-1.32,1.2,9.72,9.72,0,0,0-.84,1,24.76,24.76,0,0,0-2.88,4q-1.2,2.1-2.28,4.38,0,.24-.36.24a.58.58,0,0,1-.18.42q-.18.18-.42-.06a2.85,2.85,0,0,1-1.68-2.52,9.62,9.62,0,0,1,.6-3.24q.36-.84,1.14-2.34a33.21,33.21,0,0,0,1.44-3.18,15.39,15.39,0,0,0,.9-3.18,2.86,2.86,0,0,0-.6-2.46,6,6,0,0,0-1.68,1.14,13.06,13.06,0,0,0-1.56,1.74q-.72,1-1.32,1.92t-1.08,1.68l-2.1,3.06q-1,1.5-2,3.06a.84.84,0,0,1-.06.36.53.53,0,0,0-.06.24.86.86,0,0,1-.48.84.62.62,0,0,1-.84-.24,3.55,3.55,0,0,1-1.14-3,20,20,0,0,1,.66-3.36q.12-.72.36-1.62t.54-1.74a5.89,5.89,0,0,1,.84-1.56,2.61,2.61,0,0,1,1.26-1q.36-.12.6.36a2.43,2.43,0,0,1,.24,2.34q-.48,1.26-.84,2.46a15.89,15.89,0,0,0-.72,3.48,41.6,41.6,0,0,1,2.16-4.2,42.57,42.57,0,0,1,2.64-4,14.23,14.23,0,0,1,2.64-2.46,3,3,0,0,1,3.36-.18q.24.12.18.24a.19.19,0,0,1-.18.12h-.24a1.89,1.89,0,0,1,1.44,1.44,4.47,4.47,0,0,1,.12,2.28,16.36,16.36,0,0,1-.78,3.06q-.54,1.5-1.14,2.82a26.46,26.46,0,0,1-1.56,2.88,4.92,4.92,0,0,0-.84,3,28.3,28.3,0,0,1,4-7.2l2.4-2.94a9.15,9.15,0,0,1,3-2.46,2.47,2.47,0,0,1,2.16-.18,3.25,3.25,0,0,1,1.56,1.62,4.52,4.52,0,0,1,.18,3.6,25.89,25.89,0,0,0-1,3.48q-1.2,4.44,3.12,5.16a11.77,11.77,0,0,0,4.68-.24,33.59,33.59,0,0,0,4.08-1.5,25.36,25.36,0,0,0,3.84-2.1q2.16-1.32,4.32-2.82A21,21,0,0,0,769.85,558.24Z" transform="translate(-79.78 -415.61)"/>
	<path fill="#fff" stroke="white" stroke-width="2" class="cls-1" d="M804.17,558.24q.24-.24.42-.06t-.06.42a37.89,37.89,0,0,1-22.08,10.68,27,27,0,0,1-5.7.12,10.11,10.11,0,0,1-5.34-2,6.9,6.9,0,0,1-2.46-3.84,7.75,7.75,0,0,1,.3-4.56q-.24-.24.12-.24a.49.49,0,0,1,.12-.36,13.43,13.43,0,0,1,3-4.14,11,11,0,0,1,4.32-2.7,5.68,5.68,0,0,1,3.36.06,2.89,2.89,0,0,1,2.16,2.34,3.75,3.75,0,0,1-.12,2.1,6.56,6.56,0,0,1-1.08,1.92,8.53,8.53,0,0,1-1.62,1.56,8.91,8.91,0,0,1-1.74,1,8,8,0,0,1-5.76.24q-.36,3.72,3.36,6a12.32,12.32,0,0,0,7.86,1.08,48.38,48.38,0,0,0,7.86-1.92A39.43,39.43,0,0,0,804.17,558.24Zm-28-4.32a13,13,0,0,0-2.64,2.7,8.43,8.43,0,0,0-1.44,3.18,7.19,7.19,0,0,0,3.54.3,7.71,7.71,0,0,0,3.42-1.62,7.26,7.26,0,0,0,1.08-1.08,5.11,5.11,0,0,0,.9-1.56,2.58,2.58,0,0,0,.06-1.62,2.19,2.19,0,0,0-1.32-1.26,2.62,2.62,0,0,0-2,.06A6.67,6.67,0,0,0,776.21,553.92Z" transform="translate(-79.78 -415.61)"/>
	<path fill="#fff" stroke="white" stroke-width="2" class="cls-1" d="M545,11729.8a62.38,62.38,0,0,0-9.9.78,90.48,90.48,0,0,0-9.66,2.1,100.65,100.65,0,0,0-11.58,3.84,119.72,119.72,0,0,1-11.58,4q1.08,1,2,1.92t1.74,1.92a23.51,23.51,0,0,1,4.8,15q.36-1,.72-2t.72-2q1.92-5,4.26-9.78a23.74,23.74,0,0,1,6.78-8.22.48.48,0,0,1,.72-.06q.36.3,0,.78a33.18,33.18,0,0,0-6.78,11.1q-2.34,6.3-4.38,12.42-2,6.48-3.84,12.84t-3.48,12.84q-1.68,6.36-3.06,12.9a79.66,79.66,0,0,1-3.78,12.66,48,48,0,0,1-2.28,4.86,18.85,18.85,0,0,1-3.3,4.44,15.49,15.49,0,0,1-4.92,3.24,17.75,17.75,0,0,1-7,1.26,7,7,0,0,1-3.66-1,9.2,9.2,0,0,1-2.76-2.52,10.8,10.8,0,0,1-1.68-3.48,9.64,9.64,0,0,1-.3-3.84q0-.24.18-.18a.28.28,0,0,1,.18.3,7.32,7.32,0,0,0,.9,3.72,7.45,7.45,0,0,0,2.34,2.52,10.73,10.73,0,0,0,3.3,1.44,10,10,0,0,0,3.78.24,10.32,10.32,0,0,0,6-1.92,15.85,15.85,0,0,0,4-4.44,26.28,26.28,0,0,0,2.64-5.88q1-3.24,2-6.48,1.68-6.24,3.24-12.42t3.24-12.42q.6-2.52,1.32-5t1.44-4.92v-.24a27.81,27.81,0,0,0,.66-15.42,24.93,24.93,0,0,0-8-13,.94.94,0,0,0-.24-.18.94.94,0,0,1-.24-.18,31.22,31.22,0,0,1-6.24,1q-1.32.12-3.06.24a33.68,33.68,0,0,1-3.48.06,15.47,15.47,0,0,1-3.36-.48,6.41,6.41,0,0,1-2.7-1.38,2.88,2.88,0,0,1-1.08-1.62,2,2,0,0,1,.3-1.44,4.27,4.27,0,0,1,1.2-1.2,9.23,9.23,0,0,1,1.62-.9,15.54,15.54,0,0,1,9.06-.42,24.36,24.36,0,0,1,8.46,3.9q4.92-1.68,9.66-3.78t9.66-3.78a109.57,109.57,0,0,1,14-3.66,56.3,56.3,0,0,1,14.4-.9,21.86,21.86,0,0,1,5.16.9,15.82,15.82,0,0,1,4.68,2.22,9.89,9.89,0,0,1,3.18,3.72,9.14,9.14,0,0,1,.78,5.28.36.36,0,1,1-.72,0,7.89,7.89,0,0,0-1.86-4.8,10.62,10.62,0,0,0-4-2.76,19.5,19.5,0,0,0-5.16-1.26A47,47,0,0,0,545,11729.8ZM492.08,11741q1.32-.24,2.76-.54a20,20,0,0,0,2.76-.78,20.67,20.67,0,0,0-5.22-2.64,17.58,17.58,0,0,0-5.7-1,20.92,20.92,0,0,0-2.58.24,3.66,3.66,0,0,0-2.34,1q-1.08,1.44-.42,2.28a3.64,3.64,0,0,0,2,1.2,14.16,14.16,0,0,0,4.38.54Q490,11741.2,492.08,11741Z" transform="translate(-79.78 -415.61)"/>
	<path fill="#fff" stroke="white" stroke-width="2" class="cls-1" d="M560.48,11786.08c.15-.16.3-.16.42,0a.34.34,0,0,1-.06.48,28.48,28.48,0,0,1-7.32,5.82,34.34,34.34,0,0,1-8.76,3.42,21.73,21.73,0,0,1-2.4.48,16,16,0,0,1-3.06.18,5.55,5.55,0,0,1-2.76-.84,3.71,3.71,0,0,1-1.62-2.58,3.14,3.14,0,0,1,.36-2.28q.59-1.08,1.2-2a7.46,7.46,0,0,1,.6-1.2,9.59,9.59,0,0,0,.6-1.2,3,3,0,0,0,.48-1.92,1.89,1.89,0,0,0-1-1.44,6.92,6.92,0,0,0-2.46,1.08,20.71,20.71,0,0,0-2.46,1.92c-.8.72-1.55,1.44-2.22,2.16a13.78,13.78,0,0,0-1.5,1.8,31.84,31.84,0,0,0-3.48,4.92q-.36.6-.72,1.26a11.79,11.79,0,0,0-.6,1.26l-.72,2.88q-.24.6-.72.54t-.48-.66a61.17,61.17,0,0,1,2-13.8,97.65,97.65,0,0,1,4.56-13.2,111.85,111.85,0,0,1,5.52-11.22,52.42,52.42,0,0,1,7.32-10.14,26.25,26.25,0,0,1,3.6-3,5.51,5.51,0,0,1,4.44-1,3.79,3.79,0,0,1,2.64,1.74,7,7,0,0,1,1,3.06,12.73,12.73,0,0,1-.84,5,31.94,31.94,0,0,1-2.46,5,52.42,52.42,0,0,1-3.24,4.68q-1.75,2.22-3.3,4a70.45,70.45,0,0,1-7.5,7.74,61,61,0,0,1-8.58,6.3c-.33,1-.62,1.94-.9,2.94s-.54,2-.78,3.06a28.9,28.9,0,0,1,4.56-5.64,15.63,15.63,0,0,1,1.74-1.74,15.08,15.08,0,0,1,2.46-1.8,8.06,8.06,0,0,1,2.58-1,2,2,0,0,1,2.1.84,3.12,3.12,0,0,1,1.2,1.56,3.51,3.51,0,0,1-.06,2.28q-.43,1.44-1,3a28.87,28.87,0,0,0-1,3.06,4.71,4.71,0,0,0-.18,2.46,4.14,4.14,0,0,0,2.7.66,19.6,19.6,0,0,0,3.6-.48c1.23-.28,2.4-.6,3.48-1s1.89-.66,2.46-.9a36.66,36.66,0,0,0,5.52-2.88A47.4,47.4,0,0,0,560.48,11786.08Zm-30.24-10.2-1.44,3.84q-.72,1.92-1.32,4a106,106,0,0,0,8.82-7,60.05,60.05,0,0,0,7.74-8.34q1.8-2.4,3.6-5.16a24.17,24.17,0,0,0,2.76-5.76,14.83,14.83,0,0,0,1-3.18,3.92,3.92,0,0,0-.6-3.18,2.61,2.61,0,0,0-1.86-1.14,4.46,4.46,0,0,0-2.1.42,7.14,7.14,0,0,0-2,1.32c-.6.56-1.11,1-1.5,1.44a26.77,26.77,0,0,0-3.78,5.1c-1.08,1.88-2.15,3.74-3.18,5.58s-2.21,3.9-3.24,5.94S531.11,11773.8,530.24,11775.88Z" transform="translate(-79.78 -415.61)"/>
	<path fill="#fff" stroke="white" stroke-width="2" class="cls-1" d="M594.31,11786a.39.39,0,0,1,.61-.12.39.39,0,0,1,.11.6,61.35,61.35,0,0,1-3,5.76,36.41,36.41,0,0,1-4.27,5.76,22,22,0,0,1-5.33,4.32,10.25,10.25,0,0,1-6.31,1.32,6.83,6.83,0,0,1-3.78-1.5A8.67,8.67,0,0,1,570,11799a12.07,12.07,0,0,1-1.08-4,15.26,15.26,0,0,1,.11-4.32,2.78,2.78,0,0,1-.36.6,24.17,24.17,0,0,1-1.44,2.88,4.67,4.67,0,0,1-2.27,2,3.4,3.4,0,0,1-2.83.18,3.73,3.73,0,0,1-1.74-1.68,7.85,7.85,0,0,1-.78-2.7,9.59,9.59,0,0,1,.06-2.76,21.78,21.78,0,0,1,.85-3.36,13.18,13.18,0,0,1,1.67-3.36,12.72,12.72,0,0,1,2.52-2.7,6.52,6.52,0,0,1,3.25-1.38c1.75-.24,2.87.12,3.35,1.08a5.77,5.77,0,0,1,.48,3.36c.24,0,.28.08.13.24q-.25,1-.48,1.56a3.26,3.26,0,0,0,.48-.6,1.12,1.12,0,0,1,1.43-.18.87.87,0,0,1,.48,1.26q-1.08,2.64-1.85,5.1a10.72,10.72,0,0,0-.19,5.46,8.64,8.64,0,0,0,2.52,4.68,5.45,5.45,0,0,0,5,1.2,11.76,11.76,0,0,0,4.92-2.16,23.14,23.14,0,0,0,4.15-4,38.4,38.4,0,0,0,3.35-4.86Q593.23,11788.12,594.31,11786Zm-26.64,4.92a45.07,45.07,0,0,0,3-6.24c.08-.48.16-1,.25-1.5a3.12,3.12,0,0,0-.07-1.38,1.72,1.72,0,0,0-.72-1,2.1,2.1,0,0,0-1.62-.12,3.69,3.69,0,0,0-2.09,1.26c-.61.68-1.15,1.34-1.63,2a13.25,13.25,0,0,0-2.28,6.72,11.08,11.08,0,0,0,.12,1.56,4,4,0,0,0,.48,1.44,1.45,1.45,0,0,0,1,.72,2.47,2.47,0,0,0,1.75-.72,3.3,3.3,0,0,0,1.08-1.26C567.27,11791.78,567.51,11791.28,567.67,11790.88Z" transform="translate(-79.78 -415.61)"/>
	<path fill="#fff" stroke="white" stroke-width="2" class="cls-1" d="M629.11,11785.6a.45.45,0,0,1,.72,0,.67.67,0,0,1,.12.84,65.47,65.47,0,0,1-6.42,6.48,88.42,88.42,0,0,1-7.14,5.64q-1.2.84-2.52,1.62a7.06,7.06,0,0,1-2.64,1,4.53,4.53,0,0,1-2.52-.36,4.47,4.47,0,0,1-2-2.34,5.68,5.68,0,0,1-.66-3.66,37.16,37.16,0,0,1,.78-3.66q.24-1.32.6-2.64t.6-2.64q.12-.48.3-1.26t.36-1.62a12.21,12.21,0,0,0,.24-1.62,2.41,2.41,0,0,0-.18-1.26q-.36-.72-.9-.66a2.16,2.16,0,0,0-1.08.48,8.43,8.43,0,0,0-1.08,1,9.18,9.18,0,0,0-.78,1,32.53,32.53,0,0,0-3.24,3.72,42.67,42.67,0,0,0-2.76,3.6,31.55,31.55,0,0,1-2.88,3.6q-.48.72-1-.12-.48.6-.84,0a4.34,4.34,0,0,1-.9-2.7,19.72,19.72,0,0,1,.42-3.06,20.45,20.45,0,0,1,.78-3.18,7.12,7.12,0,0,1,1.74-2.82.82.82,0,0,1,1.08-.18q.72.3.6.9a10,10,0,0,1-.66,2.82,14.07,14.07,0,0,0-.78,2.82,4.36,4.36,0,0,0-.24,1.38,6.41,6.41,0,0,1-.12,1.26,40.19,40.19,0,0,1,4.08-6.3,38,38,0,0,1,5-5.34,9.86,9.86,0,0,1,2.1-1.2,2.63,2.63,0,0,1,3.6,2.22,20.14,20.14,0,0,1-.06,2.7q-.24,2.4-.66,4.62t-.9,4.62q-.36,1.32-.72,2.88a7.65,7.65,0,0,0-.12,3,2.38,2.38,0,0,0,2.34,2.28,6,6,0,0,0,3.78-1.08,66.22,66.22,0,0,0,7.62-6Q625.75,11789.08,629.11,11785.6Z" transform="translate(-79.78 -415.61)"/>
	<path fill="#fff" stroke="white" stroke-width="2" class="cls-1" d="M665.47,11785.72q.24-.24.42-.06t-.06.42a25.48,25.48,0,0,1-3.48,5.52,43.49,43.49,0,0,1-4.56,4.8,28.4,28.4,0,0,1-4.92,3.54,15,15,0,0,1-5.76,1.86,10.48,10.48,0,0,1-5-.48,12.36,12.36,0,0,1-4-2.4,13,13,0,0,1-2.88-3.78,17.48,17.48,0,0,1-1.62-4.74,3.42,3.42,0,0,1-.72-.6q-1.2,1.68-2.4,3.24t-2.52,3.12c-.24.48-.45,1-.66,1.5a7.15,7.15,0,0,1-.78,1.5.34.34,0,0,1-.42.18.38.38,0,0,1-.3-.42,36,36,0,0,1,1.2-7c.65-2.32,1.28-4.64,1.92-7q1.2-3.6,2.4-7.14t2.64-7a128,128,0,0,1,5.34-11.64,80,80,0,0,1,6.78-10.8l3.06-4.2a7.93,7.93,0,0,1,4.14-3.12,3,3,0,0,1,3.12.54,3.39,3.39,0,0,1,1,3.06,15,15,0,0,1-1.62,5.28q-1.38,2.76-2.58,5a101.34,101.34,0,0,1-6.48,11.52,104.09,104.09,0,0,1-6.84,9.54,70.17,70.17,0,0,1-8,8.46,8.51,8.51,0,0,0-.36,1.08,4.69,4.69,0,0,1-.36,1q-.36,1.32-.72,2.58t-.84,2.58q1.2-1.68,2.46-3.36t2.58-3.24q.84-1.08,1.74-2.4a14.71,14.71,0,0,1,2-2.4,7.1,7.1,0,0,1,2.46-1.56,4,4,0,0,1,2.88.12.3.3,0,0,1,0,.48l.12.12a3.27,3.27,0,0,1,.36,3.12,11.64,11.64,0,0,1-1.44,3,14.67,14.67,0,0,1-2.64,3.06,9.67,9.67,0,0,1-3.36,2,1.38,1.38,0,0,1-.78.24h-.78q.84,1.68,1.74,3.18a11.93,11.93,0,0,0,2.22,2.7,8.86,8.86,0,0,0,4.92,2.7,13.34,13.34,0,0,0,5.76-.18,14.08,14.08,0,0,0,4.74-2.28,31.83,31.83,0,0,0,3.9-3.42q1.8-1.86,3.48-4A37.13,37.13,0,0,1,665.47,11785.72Zm-30.12-11.64q-.84,2.16-1.56,4.26t-1.44,4.26q4.2-4.56,8-9.3a78.32,78.32,0,0,0,7-10.14,97.94,97.94,0,0,0,6.48-13q.12-.36.66-1.62a14.51,14.51,0,0,0,.84-2.64,3.91,3.91,0,0,0-.06-2.28q-.36-.9-1.92-.42a7.14,7.14,0,0,0-2.88,2.7q-1.44,2.1-2.28,3.3a84.44,84.44,0,0,0-7.32,12A121.63,121.63,0,0,0,635.35,11774.08Zm6,6a10.9,10.9,0,0,0-4.14,3.78q-1.74,2.58-3.18,4.38a.35.35,0,0,0-.12.24,1.92,1.92,0,0,0,1.56.06,6.89,6.89,0,0,0,1.68-.9,16.48,16.48,0,0,0,1.56-1.26q.72-.66,1.08-1a32.65,32.65,0,0,0,1.92-3,1.66,1.66,0,0,0,.6-1.08Q642.43,11779.84,641.35,11780.08Z" transform="translate(-79.78 -415.61)"/>
	<path fill="#fff" stroke="white" stroke-width="2" class="cls-1" d="M755.83,11785.72a.33.33,0,0,1,.42.06q.18.18-.06.42a33.59,33.59,0,0,1-6.6,5.34q-3.6,2.22-7.2,4.38-2,1.2-4.08,2.28t-4.08,2.28q-.72,4.2-1.2,8.4t-1.2,8.4q-.48,3.24-1.38,7.14a43.32,43.32,0,0,1-2.46,7.5,23.55,23.55,0,0,1-4,6.36,12.94,12.94,0,0,1-6.06,3.84,9.44,9.44,0,0,1-5.94-.24,10.92,10.92,0,0,1-4.86-3.48A9.19,9.19,0,0,1,705,11832a27.17,27.17,0,0,1,1.08-6.84,31.57,31.57,0,0,1,7.44-12.42,64,64,0,0,1,11.28-9.3,71.35,71.35,0,0,1,7.68-4.44q.48-2.52,1.08-5.16a38.35,38.35,0,0,1,1.56-5.16l-.9,1.14a11.45,11.45,0,0,0-.78,1.14q-.6.84-1.38,1.86a15,15,0,0,1-1.68,1.86,10.94,10.94,0,0,1-1.92,1.44,3.57,3.57,0,0,1-2.22.48q-2.64-.12-3-2.4a11.77,11.77,0,0,1,.42-5,28.18,28.18,0,0,1,2.16-5.4,20.37,20.37,0,0,1,2.22-3.6,1.19,1.19,0,0,1,1.68-.06,1.07,1.07,0,0,1,.36,1.62,39,39,0,0,0-2.28,3.72,15.53,15.53,0,0,0-1.44,4q-.24,1-.42,2a4.71,4.71,0,0,0,.06,2,2,2,0,0,0,.72,1.26,1.15,1.15,0,0,0,1,.12,3.79,3.79,0,0,0,1.14-.66,5.43,5.43,0,0,0,1-1,39,39,0,0,0,5.46-6.84q2.34-3.72,4.38-7.56a.54.54,0,1,1,1,.48.65.65,0,0,1,.24-.3.94.94,0,0,0,.24-.18.61.61,0,0,1,.84-.06.66.66,0,0,1,.24.9l-2.58,4.44a40.09,40.09,0,0,0-3.78,9.12q-.6,2.28-1.08,4.68v.12l2.94-1.5q1.5-.78,3.06-1.5,4-2,7.68-4.38T755.83,11785.72Zm-24.12,18a8.1,8.1,0,0,0,.18-1,8.1,8.1,0,0,1,.18-1q-1.2.6-2.34,1.32t-2.34,1.44a68.77,68.77,0,0,0-5.88,4,50.34,50.34,0,0,0-5.4,4.68,36.69,36.69,0,0,0-4.5,5.46,28.23,28.23,0,0,0-3.18,6.3,22.28,22.28,0,0,0-1.08,4,13.24,13.24,0,0,0-.12,4,9.58,9.58,0,0,0,1.2,3.6,7.22,7.22,0,0,0,3,2.76,7.58,7.58,0,0,0,3.72,1.08,8.17,8.17,0,0,0,3.48-.78,11.27,11.27,0,0,0,3.06-2.1,16.41,16.41,0,0,0,2.46-3,31.68,31.68,0,0,0,3.42-7.14,56.28,56.28,0,0,0,2-7.74q.72-4,1.14-8T731.71,11803.72Z" transform="translate(-79.78 -415.61)"/>
	<path fill="#fff" stroke="white" stroke-width="2" class="cls-1" d="M789.07,11785.84q.24-.36.54-.06a.47.47,0,0,1,.06.66,19.55,19.55,0,0,1-9.9,5.88,31.46,31.46,0,0,1-11.94.6q-.72-.12-1.56-.3a14.64,14.64,0,0,1-1.56-.42,13.66,13.66,0,0,1-1.74,1.68,9,9,0,0,1-2,1.2,4.69,4.69,0,0,1-3.3,0,4.91,4.91,0,0,1-2.58-2.28,5.2,5.2,0,0,1-.54-4.5,17.53,17.53,0,0,1,2.1-4.14l.12-.12a7.61,7.61,0,0,1,.24-3.72,5.91,5.91,0,0,1,1.86-2.88,8,8,0,0,1,3.06-1.68,5.66,5.66,0,0,1,3.36.06,5.11,5.11,0,0,1,2.76,2.22,6,6,0,0,1,.84,4.56,19,19,0,0,1-1.44,4.56l-.72,1.68a9,9,0,0,1-1,1.68,18.55,18.55,0,0,0,4.38.9,29,29,0,0,0,4.14.06,49.45,49.45,0,0,0,8-1.56A15.54,15.54,0,0,0,789.07,11785.84Zm-27,6.36.42-.42.42-.42a15.92,15.92,0,0,1-3.3-2.34,8.94,8.94,0,0,1-2.22-3.06,12.76,12.76,0,0,0-1,2.16,5.85,5.85,0,0,0-.24,2.4,3,3,0,0,0,.78,1.86,3.43,3.43,0,0,0,1.5.9,3.09,3.09,0,0,0,1.8-.06A5.09,5.09,0,0,0,762.07,11792.2Zm.36-14.28a4.09,4.09,0,0,0-3.12,2.64,6.84,6.84,0,0,0-.12,4.2,6.94,6.94,0,0,0,1.92,3,13.22,13.22,0,0,0,3,2,19.54,19.54,0,0,0,1.44-2.7,19.94,19.94,0,0,0,1-2.7,7.29,7.29,0,0,0,.3-2.46,6.8,6.8,0,0,0-.48-2.28,3.09,3.09,0,0,0-1.38-1.56A3.48,3.48,0,0,0,762.43,11777.92Z" transform="translate(-79.78 -415.61)"/>
	<path fill="#fff" stroke="white" stroke-width="2" class="cls-1" d="M825,11785.84a.44.44,0,0,1,.66-.12q.42.24.18.6a53.9,53.9,0,0,1-4.2,7.38,40.87,40.87,0,0,1-5.52,6.54,23.19,23.19,0,0,1-5.28,3.78,9.52,9.52,0,0,1-6.24.9,7.1,7.1,0,0,1-5.1-3.18,8.8,8.8,0,0,1-1.26-5.82q.24-2.64.66-5.34a28.35,28.35,0,0,1,1.38-5.34,34.49,34.49,0,0,1-2.1,3.24q-1.14,1.56-2.22,3a9.33,9.33,0,0,1-2.4,2.28,3.54,3.54,0,0,1-3.24.36,3.23,3.23,0,0,1-2.22-2.7,9.6,9.6,0,0,1,.36-4.2,19.13,19.13,0,0,1,1.86-4.26,10.25,10.25,0,0,1,2.28-2.88,1.05,1.05,0,0,1,1.14-.06.74.74,0,0,1,.42,1,26.23,26.23,0,0,1-1.38,2.82,14.8,14.8,0,0,0-1.26,2.94,11.84,11.84,0,0,0-.42,1.92,10.33,10.33,0,0,0-.12,2.16,1.48,1.48,0,0,0,.72,1.32q.66.36,2.1-.48a3.4,3.4,0,0,0,1.5-1.5,16.39,16.39,0,0,1,1.14-1.86q.6-1,1.2-1.8l1.2-1.68q1-1.32,1.92-2.7a18,18,0,0,1,2-2.46q.12-.24.24-.18a.19.19,0,0,1,.12.18,1.19,1.19,0,0,1,1.38.18,1.21,1.21,0,0,1,.3,1.5q-.6,1.32-1.44,3.48a36.8,36.8,0,0,0-1.44,4.62,41.9,41.9,0,0,0-.9,5,13.85,13.85,0,0,0,.12,4.5,5.92,5.92,0,0,0,1.8,3.24,5.58,5.58,0,0,0,4.14,1.14,10.06,10.06,0,0,0,6.18-2.46,39.24,39.24,0,0,0,4.86-4.74,42.15,42.15,0,0,0,3.78-4.92A45.42,45.42,0,0,0,825,11785.84Z" transform="translate(-79.78 -415.61)"/>
	<path id="path" fill="none" stroke="white" stroke-width="2" class="cls-2" d="M457.5,11740.5s-269.81-2.83-264.41-152.92c0,0-5.05-96.79,186.18-69.43,0,0,290.22,71.74,530.72,10.05,0,0,260.31-63.16,277.91-236.43,0,0,27.59-174.19-151.91-117.73l-185.15,80.88s-320.18,148.47-535.76,43c0,0-156.41-55-153-234.19,0,0,14.35-174,184.88-134.1s283,77,527.74,29.44,285.64-195.64,299.21-292.61-16.39-224.3-210.91-106.14S532,10725,385.77,10693.76c0,0-275.15-42.12-289.71-381.19,0,0-13.7-253.78,294.37-195.92,0,0,522.28,136.34,715.17-89.91,0,0,75.37-95.9,52.14-223.07s-171.2-159.77-290.22-124-388.86,134-626.44-13.62-134-342.83-134-342.83,37.34-117.28,302.9-30S965.8,9268,965.8,9268s204.48-94.47,221.09-337.5-156.33-151.82-156.33-151.82S665.31,8980.58,399.91,8940s-291-181-293.73-258.75,101.9-120.57,101.9-120.57,151.25-69.29,481.84-3.26c0,0,587.58,65,497.58-277S752,8143.88,752,8143.88,67.5,8531.5,84.5,7889.5c0,0-24.85-344.66,467.58-212.83s643.42-6.17,635.42-164.17S1000.4,7315.48,695,7374s-487.38,162.61-548.42-38.44,273.69-222.23,273.69-222.23,252.18-22.6,405.23,26.29,273.22,121.24,338.64-61.43-38.93-208.55-38.93-208.55-26.85-58.23-431.75,82.82-552-80-552-80-102.14-232.62,178-239.3c0,0,254.12-22.67,519.12,21.33s358-181,358-181,139-349-484-205c0,0-711,272-625-343,0,0,15.39-229.22,517.49-96.53,97.38,25.73,199.33,30,298.19,10.72,129.43-25.21,273.62-87.77,282.68-240.95,12-202.14-165.84-134-266.8-79.62a1098.54,1098.54,0,0,1-260.17,100.4c-211.65,51.64-525.09,80.51-551.39-191,0,0-71.64-293.53,379.18-160.26,0,0,489.06,103.2,639.94-156.77s-11.7-293.24-11.7-293.24-68-22.14-253.73,96.57c0,0-508.77,245.63-695.73-61.34s25-416.33,25-416.33,85.31-57.36,277.66,0,581.73,21.1,663.42-147.14c77.92-160.49,83.88-363.17-279.1-301.33,0,0-485.37,194.43-709.18-106.86,0,0-105-135.11-34.37-256.71s320.65-22.86,320.65-22.86,342,84,571-48.35S1184.9,3164,1184.9,3164s-4.87-140.32-159.64-77.9c0,0-306.71,175.61-547.23,163.52s-303.36-95.44-303.36-95.44S15,2998.22,171.73,2882.86c0,0,92.37-60.81,298.57-41.09s681.2,93.73,717.2-216.27-375.07-189-375.07-189-689.93,284-711.93-164,527.34-288.16,527.34-288.16,592.21,169.54,542.94-246.65c0,0-36.1-187.09-529.19-93.28-83.56,15.9-165.1,40.85-243.71,73.34C301.46,1757.62,130.36,1799,100.5,1608.5c-24.76-158,127.51-197.14,256.7-202.66A753.46,753.46,0,0,1,586.71,1432c142.69,38.75,471.53,89.84,547.79-2.47,76-92,42.2-211.71,42.2-211.71s-20.56-103.64-270.88-16.47-458.64,89.88-458.64,89.88-317.47,32.72-324.58-191.49S481.24,944.45,481.24,944.45s413.76,43,560-92c0,0,166.49-124.65,142.37-293.32S1024,417.73,1024,417.73,926.5,427.5,795.5,561.5" transform="translate(-79.78 -415.61)"/>
</svg>
