<svg id="Layer_1" data-name="Layer 1" xmlns="http://www.w3.org/2000/svg" viewBox="0 0 1102.3 5605.6">
	<path fill="#fff" stroke="#fff" stroke-width="1" class="cls-1" d="M620.09,495a9,9,0,0,0-5.88-.6,14.16,14.16,0,0,0-5.1,2.52,21.55,21.55,0,0,0-4.2,4.32,52.13,52.13,0,0,0-3.18,4.8,150.17,150.17,0,0,0-10.08,21.12q-3.84,9.72-6.72,19.5t-5.64,19.62q-1.32,5-2.76,9.9t-2.88,9.9a20,20,0,0,1-1,2.52,7.47,7.47,0,0,1-1.5,2.22,3.68,3.68,0,0,1-2.1,1.08,3.79,3.79,0,0,1-2.64-.78,13.72,13.72,0,0,1-4.68-6.3,38.31,38.31,0,0,1-2.16-7.74,44.08,44.08,0,0,1-.42-9.48q.3-4.8.9-9.48.6-5,1.56-9.84t2.28-9.6a247.24,247.24,0,0,1-17.76,32.64q-1.68,2.64-3.42,5.28t-3.66,5.16a10.36,10.36,0,0,1-2.4,2.52,3.94,3.94,0,0,1-3.36.48,5.58,5.58,0,0,1-3.78-2.64,9.06,9.06,0,0,1-1-4.32,21.2,21.2,0,0,1,.6-4.92q.6-2.52,1.08-4.44A196.66,196.66,0,0,1,538.73,544q5-11.88,9.48-24.12,1.2-3,2.22-6t2-6.12q.36-1.44,1-3.42a20.11,20.11,0,0,0,.9-4,11.8,11.8,0,0,0-.12-3.78,4.34,4.34,0,0,0-2-2.82,6.78,6.78,0,0,0-5.4-.66,19.05,19.05,0,0,0-5.16,2.1,29.85,29.85,0,0,0-4.8,3.78,38.41,38.41,0,0,0-4,4.5,50.16,50.16,0,0,0-9.36,22.8,33.12,33.12,0,0,0-.36,6.3,27.4,27.4,0,0,0,1,6.24,23,23,0,0,0,2.46,5.76,15.6,15.6,0,0,0,4.26,4.62q.24.12.06.42t-.42.06a18.75,18.75,0,0,1-8-8.28,23.47,23.47,0,0,1-2.34-11.4,37.55,37.55,0,0,1,3.18-13,83.11,83.11,0,0,1,6.3-11.88,48.54,48.54,0,0,1,6.48-7.92,20.34,20.34,0,0,1,8.76-5.28,12,12,0,0,1,4-.54,9.63,9.63,0,0,1,3.66.78,6.43,6.43,0,0,1,2.7,2.28,7.28,7.28,0,0,1,1.2,3.84,17.52,17.52,0,0,1-.72,6.36q-1,3.24-1.8,6.12-1,3.24-1.92,6.42t-2.16,6.3Q547.49,529.8,545,536t-4.92,12.42q-2.4,6.36-4.56,12.78t-3.72,13a31,31,0,0,0-.54,3.6,5.49,5.49,0,0,0,.78,3.48,4,4,0,0,0,2.22,1.74,2.94,2.94,0,0,0,2.7-.54,6.19,6.19,0,0,0,1.2-1.32q.48-.72,1.08-1.56,1.92-2.76,3.72-5.52l3.6-5.52a220.58,220.58,0,0,0,12.78-24.06q5.58-12.3,10.5-25a.67.67,0,0,1,1-.48,1.84,1.84,0,0,0,.24-.72.54.54,0,0,1,.72-.18q.48.18.24.66a197.61,197.61,0,0,0-6.36,22.5,174.06,174.06,0,0,0-3.48,23.1q-.36,4.32-.36,8.64a28.26,28.26,0,0,0,1.32,8.52,21.58,21.58,0,0,0,2.16,5.28,9.58,9.58,0,0,0,.6,1,5.9,5.9,0,0,0,.72.9,10.28,10.28,0,0,0,1.8.78,2.47,2.47,0,0,0,1.92.06,2.62,2.62,0,0,0,1.32-1.5,19.68,19.68,0,0,0,.84-2.46q.36-1.32.6-2.64a15.69,15.69,0,0,1,.48-2q2.4-9.36,4.62-18.72T583,543.48q2.76-9.24,6.12-18.18A138.25,138.25,0,0,1,597.05,508a61.68,61.68,0,0,1,4-6.48,28.14,28.14,0,0,1,5.34-5.88,14.81,14.81,0,0,1,6.54-3.12,10.18,10.18,0,0,1,7.56,1.8.38.38,0,0,1,.12.6Q620.33,495.24,620.09,495Z" transform="translate(-79.78 -415.61)"/>
	<path fill="#fff" stroke="#fff" stroke-width="1" class="cls-1" d="M620.09,495a9,9,0,0,0-5.88-.6,14.16,14.16,0,0,0-5.1,2.52,21.55,21.55,0,0,0-4.2,4.32,52.13,52.13,0,0,0-3.18,4.8,150.17,150.17,0,0,0-10.08,21.12q-3.84,9.72-6.72,19.5t-5.64,19.62q-1.32,5-2.76,9.9t-2.88,9.9a20,20,0,0,1-1,2.52,7.47,7.47,0,0,1-1.5,2.22,3.68,3.68,0,0,1-2.1,1.08,3.79,3.79,0,0,1-2.64-.78,13.72,13.72,0,0,1-4.68-6.3,38.31,38.31,0,0,1-2.16-7.74,44.08,44.08,0,0,1-.42-9.48q.3-4.8.9-9.48.6-5,1.56-9.84t2.28-9.6a247.24,247.24,0,0,1-17.76,32.64q-1.68,2.64-3.42,5.28t-3.66,5.16a10.36,10.36,0,0,1-2.4,2.52,3.94,3.94,0,0,1-3.36.48,5.58,5.58,0,0,1-3.78-2.64,9.06,9.06,0,0,1-1-4.32,21.2,21.2,0,0,1,.6-4.92q.6-2.52,1.08-4.44A196.66,196.66,0,0,1,538.73,544q5-11.88,9.48-24.12,1.2-3,2.22-6t2-6.12q.36-1.44,1-3.42a20.11,20.11,0,0,0,.9-4,11.8,11.8,0,0,0-.12-3.78,4.34,4.34,0,0,0-2-2.82,6.78,6.78,0,0,0-5.4-.66,19.05,19.05,0,0,0-5.16,2.1,29.85,29.85,0,0,0-4.8,3.78,38.41,38.41,0,0,0-4,4.5,50.16,50.16,0,0,0-9.36,22.8,33.12,33.12,0,0,0-.36,6.3,27.4,27.4,0,0,0,1,6.24,23,23,0,0,0,2.46,5.76,15.6,15.6,0,0,0,4.26,4.62q.24.12.06.42t-.42.06a18.75,18.75,0,0,1-8-8.28,23.47,23.47,0,0,1-2.34-11.4,37.55,37.55,0,0,1,3.18-13,83.11,83.11,0,0,1,6.3-11.88,48.54,48.54,0,0,1,6.48-7.92,20.34,20.34,0,0,1,8.76-5.28,12,12,0,0,1,4-.54,9.63,9.63,0,0,1,3.66.78,6.43,6.43,0,0,1,2.7,2.28,7.28,7.28,0,0,1,1.2,3.84,17.52,17.52,0,0,1-.72,6.36q-1,3.24-1.8,6.12-1,3.24-1.92,6.42t-2.16,6.3Q547.49,529.8,545,536t-4.92,12.42q-2.4,6.36-4.56,12.78t-3.72,13a31,31,0,0,0-.54,3.6,5.49,5.49,0,0,0,.78,3.48,4,4,0,0,0,2.22,1.74,2.94,2.94,0,0,0,2.7-.54,6.19,6.19,0,0,0,1.2-1.32q.48-.72,1.08-1.56,1.92-2.76,3.72-5.52l3.6-5.52a220.58,220.58,0,0,0,12.78-24.06q5.58-12.3,10.5-25a.67.67,0,0,1,1-.48,1.84,1.84,0,0,0,.24-.72.54.54,0,0,1,.72-.18q.48.18.24.66a197.61,197.61,0,0,0-6.36,22.5,174.06,174.06,0,0,0-3.48,23.1q-.36,4.32-.36,8.64a28.26,28.26,0,0,0,1.32,8.52,21.58,21.58,0,0,0,2.16,5.28,9.58,9.58,0,0,0,.6,1,5.9,5.9,0,0,0,.72.9,10.28,10.28,0,0,0,1.8.78,2.47,2.47,0,0,0,1.92.06,2.62,2.62,0,0,0,1.32-1.5,19.68,19.68,0,0,0,.84-2.46q.36-1.32.6-2.64a15.69,15.69,0,0,1,.48-2q2.4-9.36,4.62-18.72T583,543.48q2.76-9.24,6.12-18.18A138.25,138.25,0,0,1,597.05,508a61.68,61.68,0,0,1,4-6.48,28.14,28.14,0,0,1,5.34-5.88,14.81,14.81,0,0,1,6.54-3.12,10.18,10.18,0,0,1,7.56,1.8.38.38,0,0,1,.12.6Q620.33,495.24,620.09,495Z" transform="translate(-79.78 -415.61)"/>
	<path fill="#fff" stroke="#fff" stroke-width="1" class="cls-1" d="M629.33,558.24q.24-.24.42-.06t-.06.42a37.89,37.89,0,0,1-22.08,10.68,27,27,0,0,1-5.7.12,10.11,10.11,0,0,1-5.34-2,6.9,6.9,0,0,1-2.46-3.84,7.75,7.75,0,0,1,.3-4.56q-.24-.24.12-.24a.49.49,0,0,1,.12-.36,13.43,13.43,0,0,1,3-4.14,11,11,0,0,1,4.32-2.7,5.68,5.68,0,0,1,3.36.06,2.89,2.89,0,0,1,2.16,2.34,3.75,3.75,0,0,1-.12,2.1,6.56,6.56,0,0,1-1.08,1.92,8.53,8.53,0,0,1-1.62,1.56,8.91,8.91,0,0,1-1.74,1,8,8,0,0,1-5.76.24q-.36,3.72,3.36,6a12.33,12.33,0,0,0,7.86,1.08,48.13,48.13,0,0,0,7.86-1.92A39.43,39.43,0,0,0,629.33,558.24Zm-28-4.32a13,13,0,0,0-2.64,2.7,8.43,8.43,0,0,0-1.44,3.18,7.19,7.19,0,0,0,3.54.3,7.66,7.66,0,0,0,3.42-1.62,6.81,6.81,0,0,0,1.08-1.08,5.11,5.11,0,0,0,.9-1.56,2.51,2.51,0,0,0,.06-1.62A2.17,2.17,0,0,0,605,553a2.62,2.62,0,0,0-2,.06A6.67,6.67,0,0,0,601.37,553.92Z" transform="translate(-79.78 -415.61)"/>
	<path fill="#fff" stroke="#fff" stroke-width="1" class="cls-1" d="M659,558q.36-.48.78-.24a.48.48,0,0,1,.18.72,105,105,0,0,1-6.9,8.76,58.44,58.44,0,0,1-8.1,7.68,15.29,15.29,0,0,1-3.54,2.1,10.44,10.44,0,0,1-3.72.84,8.43,8.43,0,0,1-3.66-.72,8.16,8.16,0,0,1-3.24-2.7,12.23,12.23,0,0,1-1.92-3.9,17.19,17.19,0,0,1-.66-4.26,32.36,32.36,0,0,1,.18-4.38q.24-2.22.6-4.26a75.32,75.32,0,0,1,4.92-18.6,82.71,82.71,0,0,1,3.84-8.82,68.68,68.68,0,0,1,4.92-8.22q1-1.44,2.1-3.24a26.29,26.29,0,0,1,2.52-3.36,15.45,15.45,0,0,1,3-2.64,7.24,7.24,0,0,1,3.66-1.2,5.14,5.14,0,0,1,4.2,1.32,5.84,5.84,0,0,1,1.44,3.78,18.58,18.58,0,0,1-.54,5.16,55.41,55.41,0,0,1-1.62,5.58,50.71,50.71,0,0,1-2,5q-1.08,2.28-1.68,3.36a61.62,61.62,0,0,1-9.24,13.26,40.67,40.67,0,0,1-13,9.54,53.05,53.05,0,0,0-.72,7.38,12.37,12.37,0,0,0,1.8,7,6.46,6.46,0,0,0,3.72,3,7.35,7.35,0,0,0,4.14-.24,14.61,14.61,0,0,0,4.08-2.22q2-1.5,3.66-2.94a48.64,48.64,0,0,0,5.76-6.06Q656.57,561.24,659,558Zm-23.64-15.12a72.75,72.75,0,0,0-3.6,14.52v.12a46.32,46.32,0,0,0,11.46-8.94,55.08,55.08,0,0,0,8.46-11.94,56.64,56.64,0,0,0,5-12.48q.48-1.68,1-3.72a6.93,6.93,0,0,0,.06-3.72,3,3,0,0,0-1.26-2,3.51,3.51,0,0,0-2-.48,5.08,5.08,0,0,0-2.22.66,8.06,8.06,0,0,0-1.8,1.32,28,28,0,0,0-4.86,5.88q-2.1,3.36-3.9,6.6A80.55,80.55,0,0,0,635.33,542.88Z" transform="translate(-79.78 -415.61)"/>
	<path fill="#fff" stroke="#fff" stroke-width="1" class="cls-1" d="M666.53,559.32q-.24.12-.36,0t0-.36a7.63,7.63,0,0,0,1.68-2.46,3,3,0,0,0,.12-2.94q-.84-1.56-1.74-1a12.77,12.77,0,0,0-1.74,1.26,11.7,11.7,0,0,0-3.6,5.88,8.64,8.64,0,0,0-.12,3.78,9.53,9.53,0,0,0,1.32,3.36,8.41,8.41,0,0,0,2.52,2.52,8.24,8.24,0,0,0,3.6,1.26,17.86,17.86,0,0,0,6.66-.54,22.87,22.87,0,0,0,6.24-2.76,33.24,33.24,0,0,0,5.46-4.32,33.61,33.61,0,0,0,4.32-5.1q.24-.48.72-.18a.54.54,0,0,1,.24.78,34,34,0,0,1-7,7.62,30.93,30.93,0,0,1-9.12,5.1,23.43,23.43,0,0,1-4.8,1.2,16.49,16.49,0,0,1-4.86,0,10.14,10.14,0,0,1-4.26-1.68,9.45,9.45,0,0,1-3.12-3.84,12,12,0,0,1-1-4.62,13.6,13.6,0,0,1,.78-4.86,14.26,14.26,0,0,1,2.4-4.32,11.21,11.21,0,0,1,3.72-3,5,5,0,0,1,3.24-.36,2.62,2.62,0,0,1,2,2.4,5.63,5.63,0,0,1-.78,4A14.16,14.16,0,0,1,666.53,559.32Z" transform="translate(-79.78 -415.61)"/>
	<path fill="#fff" stroke="#fff" stroke-width="1" class="cls-1" d="M724.13,558q.24-.36.54-.06a.47.47,0,0,1,.06.66,19.55,19.55,0,0,1-9.9,5.88,31.46,31.46,0,0,1-11.94.6q-.72-.12-1.56-.3a14.64,14.64,0,0,1-1.56-.42A13.66,13.66,0,0,1,698,566a9,9,0,0,1-2,1.2,4.69,4.69,0,0,1-3.3,0,4.91,4.91,0,0,1-2.58-2.28,5.2,5.2,0,0,1-.54-4.5,17.53,17.53,0,0,1,2.1-4.14l.12-.12a7.61,7.61,0,0,1,.24-3.72A5.91,5.91,0,0,1,694,549.6a8,8,0,0,1,3.06-1.68,5.66,5.66,0,0,1,3.36.06,5.11,5.11,0,0,1,2.76,2.22,6,6,0,0,1,.84,4.56,19,19,0,0,1-1.44,4.56l-.72,1.68a9,9,0,0,1-1,1.68,18.55,18.55,0,0,0,4.38.9,29,29,0,0,0,4.14.06,49.45,49.45,0,0,0,8-1.56A15.54,15.54,0,0,0,724.13,558Zm-27,6.36.42-.42.42-.42a15.92,15.92,0,0,1-3.3-2.34,8.94,8.94,0,0,1-2.22-3.06,12.76,12.76,0,0,0-1,2.16,5.85,5.85,0,0,0-.24,2.4,3,3,0,0,0,.78,1.86,3.43,3.43,0,0,0,1.5.9,3.09,3.09,0,0,0,1.8-.06A5.09,5.09,0,0,0,697.13,564.36Zm.36-14.28a4.09,4.09,0,0,0-3.12,2.64,6.84,6.84,0,0,0-.12,4.2,6.94,6.94,0,0,0,1.92,3,13.22,13.22,0,0,0,3,2,19.54,19.54,0,0,0,1.44-2.7,19.94,19.94,0,0,0,1-2.7,7.29,7.29,0,0,0,.3-2.46,6.8,6.8,0,0,0-.48-2.28,3.09,3.09,0,0,0-1.38-1.56A3.48,3.48,0,0,0,697.49,550.08Z" transform="translate(-79.78 -415.61)"/>
	<path fill="#fff" stroke="#fff" stroke-width="1" class="cls-1" d="M769.85,558.24a.34.34,0,0,1,.48.48q-2,2.16-4.32,4.2a32.48,32.48,0,0,1-4.86,3.6,27.05,27.05,0,0,1-5.46,2.52,16.78,16.78,0,0,1-6,.84,7.29,7.29,0,0,1-5.64-2.4q-1.92-2.28-1-6,.12-.24.36-.9t.48-1.38a13,13,0,0,0,.36-1.26,1.25,1.25,0,0,0,0-.78.88.88,0,0,0-1.08-.24,5.11,5.11,0,0,0-1.44.78,9.41,9.41,0,0,0-1.32,1.2,9.72,9.72,0,0,0-.84,1,24.76,24.76,0,0,0-2.88,4q-1.2,2.1-2.28,4.38,0,.24-.36.24a.58.58,0,0,1-.18.42q-.18.18-.42-.06a2.85,2.85,0,0,1-1.68-2.52,9.62,9.62,0,0,1,.6-3.24q.36-.84,1.14-2.34a33.21,33.21,0,0,0,1.44-3.18,15.39,15.39,0,0,0,.9-3.18,2.86,2.86,0,0,0-.6-2.46,6,6,0,0,0-1.68,1.14,13.06,13.06,0,0,0-1.56,1.74q-.72,1-1.32,1.92t-1.08,1.68l-2.1,3.06q-1,1.5-2,3.06a.84.84,0,0,1-.06.36.53.53,0,0,0-.06.24.86.86,0,0,1-.48.84.62.62,0,0,1-.84-.24,3.55,3.55,0,0,1-1.14-3,20,20,0,0,1,.66-3.36q.12-.72.36-1.62t.54-1.74a5.89,5.89,0,0,1,.84-1.56,2.61,2.61,0,0,1,1.26-1q.36-.12.6.36a2.43,2.43,0,0,1,.24,2.34q-.48,1.26-.84,2.46a15.89,15.89,0,0,0-.72,3.48,41.6,41.6,0,0,1,2.16-4.2,42.57,42.57,0,0,1,2.64-4,14.23,14.23,0,0,1,2.64-2.46,3,3,0,0,1,3.36-.18q.24.12.18.24a.19.19,0,0,1-.18.12h-.24a1.89,1.89,0,0,1,1.44,1.44,4.47,4.47,0,0,1,.12,2.28,16.36,16.36,0,0,1-.78,3.06q-.54,1.5-1.14,2.82a26.46,26.46,0,0,1-1.56,2.88,4.92,4.92,0,0,0-.84,3,28.3,28.3,0,0,1,4-7.2l2.4-2.94a9.15,9.15,0,0,1,3-2.46,2.47,2.47,0,0,1,2.16-.18,3.25,3.25,0,0,1,1.56,1.62,4.52,4.52,0,0,1,.18,3.6,25.89,25.89,0,0,0-1,3.48q-1.2,4.44,3.12,5.16a11.77,11.77,0,0,0,4.68-.24,33.59,33.59,0,0,0,4.08-1.5,25.36,25.36,0,0,0,3.84-2.1q2.16-1.32,4.32-2.82A21,21,0,0,0,769.85,558.24Z" transform="translate(-79.78 -415.61)"/>
	<path fill="#fff" stroke="#fff" stroke-width="1" class="cls-1" d="M804.17,558.24q.24-.24.42-.06t-.06.42a37.89,37.89,0,0,1-22.08,10.68,27,27,0,0,1-5.7.12,10.11,10.11,0,0,1-5.34-2,6.9,6.9,0,0,1-2.46-3.84,7.75,7.75,0,0,1,.3-4.56q-.24-.24.12-.24a.49.49,0,0,1,.12-.36,13.43,13.43,0,0,1,3-4.14,11,11,0,0,1,4.32-2.7,5.68,5.68,0,0,1,3.36.06,2.89,2.89,0,0,1,2.16,2.34,3.75,3.75,0,0,1-.12,2.1,6.56,6.56,0,0,1-1.08,1.92,8.53,8.53,0,0,1-1.62,1.56,8.91,8.91,0,0,1-1.74,1,8,8,0,0,1-5.76.24q-.36,3.72,3.36,6a12.32,12.32,0,0,0,7.86,1.08,48.38,48.38,0,0,0,7.86-1.92A39.43,39.43,0,0,0,804.17,558.24Zm-28-4.32a13,13,0,0,0-2.64,2.7,8.43,8.43,0,0,0-1.44,3.18,7.19,7.19,0,0,0,3.54.3,7.71,7.71,0,0,0,3.42-1.62,7.26,7.26,0,0,0,1.08-1.08,5.11,5.11,0,0,0,.9-1.56,2.58,2.58,0,0,0,.06-1.62,2.19,2.19,0,0,0-1.32-1.26,2.62,2.62,0,0,0-2,.06A6.67,6.67,0,0,0,776.21,553.92Z" transform="translate(-79.78 -415.61)"/>
	<path id="path" fill="none" stroke="#fff" stroke-width="2" class="cls-2" d="M457.5,11740.5s-269.81-2.83-264.41-152.92c0,0-5.05-96.79,186.18-69.43,0,0,290.22,71.74,530.72,10.05,0,0,260.31-63.16,277.91-236.43,0,0,27.59-174.19-151.91-117.73l-185.15,80.88s-320.18,148.47-535.76,43c0,0-156.41-55-153-234.19,0,0,14.35-174,184.88-134.1s283,77,527.74,29.44,285.64-195.64,299.21-292.61-16.39-224.3-210.91-106.14S532,10725,385.77,10693.76c0,0-275.15-42.12-289.71-381.19,0,0-13.7-253.78,294.37-195.92,0,0,522.28,136.34,715.17-89.91,0,0,75.37-95.9,52.14-223.07s-171.2-159.77-290.22-124-388.86,134-626.44-13.62-134-342.83-134-342.83,37.34-117.28,302.9-30S965.8,9268,965.8,9268s204.48-94.47,221.09-337.5-156.33-151.82-156.33-151.82S665.31,8980.58,399.91,8940s-291-181-293.73-258.75,101.9-120.57,101.9-120.57,151.25-69.29,481.84-3.26c0,0,587.58,65,497.58-277S752,8143.88,752,8143.88,67.5,8531.5,84.5,7889.5c0,0-24.85-344.66,467.58-212.83s643.42-6.17,635.42-164.17S1000.4,7315.48,695,7374s-487.38,162.61-548.42-38.44,273.69-222.23,273.69-222.23,252.18-22.6,405.23,26.29,273.22,121.24,338.64-61.43-38.93-208.55-38.93-208.55-26.85-58.23-431.75,82.82-552-80-552-80-102.14-232.62,178-239.3c0,0,254.12-22.67,519.12,21.33s358-181,358-181,139-349-484-205c0,0-711,272-625-343,0,0,15.39-229.22,517.49-96.53,97.38,25.73,199.33,30,298.19,10.72,129.43-25.21,273.62-87.77,282.68-240.95,12-202.14-165.84-134-266.8-79.62a1098.54,1098.54,0,0,1-260.17,100.4c-211.65,51.64-525.09,80.51-551.39-191,0,0-71.64-293.53,379.18-160.26,0,0,489.06,103.2,639.94-156.77s-11.7-293.24-11.7-293.24-68-22.14-253.73,96.57c0,0-508.77,245.63-695.73-61.34s25-416.33,25-416.33,85.31-57.36,277.66,0,581.73,21.1,663.42-147.14c77.92-160.49,83.88-363.17-279.1-301.33,0,0-485.37,194.43-709.18-106.86,0,0-105-135.11-34.37-256.71s320.65-22.86,320.65-22.86,342,84,571-48.35S1184.9,3164,1184.9,3164s-4.87-140.32-159.64-77.9c0,0-306.71,175.61-547.23,163.52s-303.36-95.44-303.36-95.44S15,2998.22,171.73,2882.86c0,0,92.37-60.81,298.57-41.09s681.2,93.73,717.2-216.27-375.07-189-375.07-189-689.93,284-711.93-164,527.34-288.16,527.34-288.16,592.21,169.54,542.94-246.65c0,0-36.1-187.09-529.19-93.28-83.56,15.9-165.1,40.85-243.71,73.34C301.46,1757.62,130.36,1799,100.5,1608.5c-24.76-158,127.51-197.14,256.7-202.66A753.46,753.46,0,0,1,586.71,1432c142.69,38.75,471.53,89.84,547.79-2.47,76-92,42.2-211.71,42.2-211.71s-20.56-103.64-270.88-16.47-458.64,89.88-458.64,89.88-317.47,32.72-324.58-191.49S481.24,944.45,481.24,944.45s413.76,43,560-92c0,0,166.49-124.65,142.37-293.32S1024,417.73,1024,417.73,926.5,427.5,795.5,561.5" transform="translate(-79.78 -415.61)"/>
	<circle id="dot" cx="0" cy="0" r="10" fill="#fff"/>
</svg>
