<svg id="Layer_1" data-name="Layer 1" xmlns="http://www.w3.org/2000/svg" viewBox="0 0 1102.3 5605.6">
	<path id="path" class="cls-1" fill="none" stroke="white" stroke-width="2"  d="M473.61,5892c-10.47-20-46.42-7.64-46.78-7.52l-.11,0c-94.13,21.57-172.06-25.32-210.13-55.18-21.75-17.06-30.28-45.68-21.22-71.23,6.1-17.23,19.17-30.33,38.86-39,15.65-6.86,35.5-10.91,59-12,39.91-1.92,77.09,5.37,77.47,5.44,378.33,71.74,578.43,16.35,679.67-42.76,57.24-33.41,89.59-71.5,106.65-97.57,18.46-28.2,23.46-48.72,23.51-48.92,12.84-74.2,3.22-123.57-28.61-146.68-29.79-21.63-74.08-15.95-106-7.37a342,342,0,0,0-63,24.16c-206.08,102.88-363.59,137.8-482.45,137.8-95.93,0-166.68-22.74-217.49-50.87a237.47,237.47,0,0,1-96.63-99.43,230.13,230.13,0,0,1-23.77-136.15c6.18-46.49,25-80.19,56-100.18,55-35.46,137.67-21.41,197.34-3.39a846.44,846.44,0,0,0,264.42,35.92c124.93-2.84,228.22-22.86,307-59.51,99.18-46.14,159.45-118.91,179.13-216.27,18.64-92.24,10.71-152.06-23.58-177.81-46.64-35-127.17,6.47-128,6.9-162.23,90.54-308.33,145.93-434.22,164.6C477,4910.38,386,4901.05,310.46,4867.25a348.57,348.57,0,0,1-100.22-67.65,370.8,370.8,0,0,1-61.06-77.51c-29.2-49.17-38.56-90-38.66-90.37-29.64-128.48-16.63-220.89,38.7-274.65,19.95-19.39,45.49-33.69,75.93-42.5,24.32-7,51.79-10.61,81.66-10.61h.07a407.91,407.91,0,0,1,91.87,10.57c1.05.25,108.4,25.39,240.39,33.81,121.74,7.78,289.92,2.5,399.83-66.71,59-37.15,96.2-89.42,110.55-155.34,19.5-89.52,11.06-157.14-25.08-201-42.15-51.14-114.9-60.46-168.5-59.27a414.84,414.84,0,0,0-127,23.09c-106.38,36.93-205.88,55.47-297.21,55.47a603.07,603.07,0,0,1-117.9-11.2,503.25,503.25,0,0,1-135.29-47.21,461,461,0,0,1-92.92-64.12,296.52,296.52,0,0,1-70.21-92.86,287.23,287.23,0,0,1-28.57-112.68c-2.59-58,12.79-101,45.7-127.73,33.23-27,78.55-32.14,110.75-31.71a297.26,297.26,0,0,1,62.43,7.46c337.4,88.91,584.69,72.7,735-48.17,79.34-63.8,114.74-145.43,130.47-202.68,17.06-62.07,15.31-109.67,15.29-110.14.92-68.11-15.07-112.29-47.52-131.39-50.12-29.48-123.25,11.8-124,12.22-187.87,98.85-359.64,151.9-510.56,157.69-59.11,2.28-115.1-2.79-166.41-15-40.88-9.77-78.86-24.09-112.89-42.57a234.16,234.16,0,0,1-78.49-69.32,226.73,226.73,0,0,1-39.44-96.78c-7.57-49.36,3.24-89.56,32.14-119.48,22.06-22.84,55.15-40.16,98.36-51.48,36.74-9.63,81.81-15.17,134-16.48,94.93-2.37,195.89,9.54,262.69,17.42,12.37,1.46,24,2.84,34.16,3.95A199,199,0,0,0,805,2717.51a149.09,149.09,0,0,0,16.18-13,662.62,662.62,0,0,1-98.29,6.9q-96.72,0-214.71-23.61c-27.81-5.57-47.31-29.75-46.37-57.5.39-11.45,4.4-20.24,12.25-26.85,24.6-20.71,89.22-22.54,209.54-5.92a580.52,580.52,0,0,1,73.61,15.86c50.1,14.6,78,32.33,83,52.67,2.75,11.25-1.72,23.15-13.3,35.54q79.14-12.78,138.46-46.45c88.48-50.3,120.6-124.5,131.88-164.26,9.5-33.48,5.13-69.37-12-98.48-21.72-36.94-61-60-116.73-68.57C923.82,2317,868.47,2319.36,804,2331c-109.79,19.8-209.17,60-210.16,60.45l-.13,0c-126.46,33-229.11,22.1-305.11-32.43-60.88-43.69-92.75-107.84-108.77-154-17.34-49.94-20.34-90.11-20.37-90.51-9.66-62.49,5.24-113.87,44.3-152.62,32.28-32,81.41-55.81,146-70.68,51.62-11.88,113.19-18.15,183-18.62,118.86-.8,221.79,15.7,222.82,15.86,145.25,29.44,256.82,18.27,331.67-33.18,67.66-46.51,79.08-110.36,79.18-111,16-85.69,6.58-141.54-27.86-166-30.22-21.44-74.67-14.35-106.64-4.62a344.38,344.38,0,0,0-63,26.65c-31,16.51-65.27,24.88-102,24.88-29.35,0-60.29-5.32-92-15.8-53.9-17.84-91.77-44.87-92.14-45.14-96-56.54-188.27-3.36-232.59,22.19-5,2.89-9.33,5.38-13.16,7.46a373.82,373.82,0,0,1-62,26.79c-70.34,22.78-127.34,22.23-169.42-1.64-46.12-26.17-57.08-71.93-57.18-72.39-15.24-63.19-3.83-115,33.91-153.82,127.16-131,517-83.82,656.49-54.58a565.56,565.56,0,0,1,113.73,37c71.4,31.77,123.44,8.4,154.53-16.8a170.43,170.43,0,0,0,51.07-70.69c36.92-94.91,38.16-161.29,3.69-197.3-30.41-31.78-83.7-33.66-123-29.64a406.49,406.49,0,0,0-79.09,16.58c-221.1,71.15-402.91,107.22-540.42,107.23h-1.63c-107.22-.22-187.19-22.31-237.7-65.65-36.37-31.21-50.09-67.78-55.19-93-5.36-26.5-2.57-46.34-2.38-47.65,1.21-42.66,17.68-76.88,48.95-101.72,24.21-19.24,57.56-33.05,99.11-41.05,33.19-6.39,71.66-9.12,114.35-8.11a859.65,859.65,0,0,1,133.79,14c87.48,11.83,147.82,8,189.44-3-37-6.15-64.86-16.21-83-30C608.7,796,601,780.77,602.93,764.41c2-17.11,14.5-34,34.26-46.33a115.33,115.33,0,0,1,69.39-16.58c.25,0,32.32.55,59.17,13.85a54,54,0,0,1,17,83.2c-12.37,14.47-32.54,29.24-65.39,39.36,97.71,13.86,189.74-18.41,250-48.09,78.61-38.74,141.16-99.3,180.88-175.14,44.53-85,40-151.74,28.3-192.76-12.63-44.39-36-69-36.25-69.23-28.63-29.28-62.89-43.73-101.69-42.93C980.84,311,922.53,345.91,883.79,375a555.36,555.36,0,0,0-71,63.65l-1.48-1.34a556,556,0,0,1,71.3-63.88c39-29.3,97.69-64.49,156-65.69,39.39-.81,74.13,13.84,103.16,43.54.25.25,24,25.21,36.74,70.07a220.79,220.79,0,0,1,6.88,83.09c-3.65,36-15.54,73.37-35.33,111.15A399.73,399.73,0,0,1,1073.15,718a414.82,414.82,0,0,1-104.91,73.61C929.72,810.6,891,824.56,853,833.13c-48,10.85-94.65,13-138.66,6.36l-1.52-.23c-42,12-103.77,16.5-194.46,4.23a859.4,859.4,0,0,0-133.54-14C318,828,227,835.12,172.69,878.25c-30.8,24.47-47,58.21-48.19,100.28v.13c0,.2-3.1,20.13,2.37,47.1,5,24.86,18.62,61,54.55,91.77,50.15,43,129.69,64.93,236.42,65.14h1.57c137.31,0,318.89-36,539.79-107.13a408.24,408.24,0,0,1,79.51-16.67c39.79-4.07,93.72-2.12,124.7,30.24,35,36.63,33.95,103.72-3.27,199.41a172.38,172.38,0,0,1-51.68,71.52c-20.62,16.72-50.34,32.65-88.68,32.65-20.25,0-42.91-4.45-67.92-15.58a564.5,564.5,0,0,0-113.33-36.84c-139.19-29.18-528.12-76.36-654.65,54-37.22,38.35-48.46,89.48-33.4,152,.11.46,10.9,45.4,56.26,71.12,41.57,23.56,98,24,167.79,1.46a371.81,371.81,0,0,0,61.7-26.65c3.81-2.06,8.12-4.55,13.11-7.43,22.82-13.16,57.3-33,98.06-42.42,48.75-11.21,94.71-4.39,136.62,20.29.45.32,38.11,27.19,91.73,44.93,49.42,16.35,122.88,28.06,192.29-9a346.17,346.17,0,0,1,63.36-26.8c32.41-9.87,77.53-17,108.41,4.89,35.14,24.94,44.79,81.46,28.68,168,0,.15-2.84,16.47-14.07,38.34-10.35,20.17-30.19,49.37-65.89,73.92-33.52,23-75.2,38.23-123.91,45.13-59.42,8.42-129.84,4.52-209.31-11.59-1-.16-103.79-16.63-222.48-15.83-109.41.74-255.06,16.74-327.61,88.72-38.58,38.28-53.29,89.08-43.72,151,0,.48,3,40.43,20.29,90.14,15.92,45.83,47.59,109.56,108,152.93,75.48,54.16,177.55,65,303.37,32.13,3.06-1.24,101.65-40.91,210.47-60.53,64.65-11.66,120.23-14.08,165.18-7.18,56.36,8.65,96.12,32,118.17,69.54,17.39,29.57,21.83,66,12.19,100a268.34,268.34,0,0,1-38.28,80.45c-24,34.38-55.81,63-94.54,85q-60.49,34.39-141.76,47.11a143.46,143.46,0,0,1-18.42,15.17,201,201,0,0,1-137.9,35.12c-10.11-1.11-21.8-2.49-34.17-4-66.75-7.88-167.62-19.78-262.41-17.41-112.8,2.83-190.49,25.48-230.93,67.35-28.44,29.45-39.08,69.08-31.61,117.79,10.6,69.1,54.3,130.64,116.92,164.64,53.41,29,145,62.5,278.27,57.39,150.62-5.79,322.09-58.76,509.66-157.45a209.1,209.1,0,0,1,43.49-17.49c22.86-6.27,55.71-10.44,82.46,5.29,33.13,19.49,49.45,64.27,48.52,133.09,0,.42,1.78,48.27-15.34,110.62a415.07,415.07,0,0,1-43.11,102.24,376.76,376.76,0,0,1-88,101.53c-67.67,54.43-156.65,88-264.48,99.88-130,14.29-288.87-3-472.29-51.31a295.07,295.07,0,0,0-62-7.4c-31.83-.41-76.66,4.66-109.42,31.27-32.39,26.3-47.51,68.72-44.95,126.08,3.44,77.25,39.2,151.66,98.11,204.14,106.6,95,304.4,183.65,641.33,66.66A416.65,416.65,0,0,1,955.89,3864c34.18-.76,64.9,2.81,91.34,10.61,33.35,9.84,59.85,26.45,78.75,49.39,36.55,44.35,45.13,112.55,25.5,202.69-14.48,66.47-52,119.16-111.44,156.61-48.76,30.71-112.86,51.55-190.51,62-62.08,8.32-132.92,10-210.55,5.07-132.15-8.44-239.64-33.61-240.71-33.87-.43-.11-40.87-10.51-91.39-10.51h-.12c-46.59,0-111.5,9.14-156.16,52.55-54.78,53.24-67.61,145-38.13,272.77.1.41,9.41,40.95,38.47,89.86,26.81,45.11,76.39,106.76,160.37,144.3,168.57,75.37,405,29.34,702.7-136.81a223.09,223.09,0,0,1,46.89-16.93c24.2-5.69,58.29-8.53,83.23,10.19,35,26.25,43.16,86.74,24.35,179.81-19.81,98-80.45,171.26-180.24,217.68-79,36.77-182.59,56.86-307.8,59.7a848.66,848.66,0,0,1-265-36c-59.26-17.91-141.32-31.89-195.68,3.16-30.47,19.64-49,52.87-55.1,98.75C152,5339.77,198.89,5431.46,284,5478.56c113.33,62.73,326.43,98.57,698.05-87a343.15,343.15,0,0,1,63.33-24.31c32.33-8.7,77.27-14.43,107.71,7.67,32.5,23.59,42.39,73.62,29.4,148.7-.07.27-5.15,21.12-23.79,49.61-17.18,26.25-49.75,64.6-107.32,98.21-64.64,37.74-147,61.95-244.82,72a1071.66,1071.66,0,0,1-108.93,5.27c-97.51,0-207.11-11.44-327.32-34.24-.37-.07-37.34-7.32-77-5.4-36.41,1.75-82.63,11.79-96,49.65-8.76,24.73-.5,52.46,20.57,69,37.79,29.64,115.1,76.17,208.41,54.83,2.2-.77,38-12.81,49.16,8.5Zm80.95-3303.5c-40.25,0-66.09,5.48-79.17,16.5-7.5,6.31-11.17,14.38-11.54,25.39-.91,26.76,17.92,50.09,44.76,55.47,122.14,24.47,227.5,29.87,315.06,16.28,12.42-12.54,17.33-24.46,14.62-35.58-11.46-47-153.49-66.83-154.92-67C630.18,2592.15,587.53,2588.46,554.56,2588.46Zm143-1885.34c-45.06,0-88.7,28.21-92.62,61.53-1.83,15.61,5.59,30.24,21.48,42.3C644.92,821,674,831.2,712.78,837.22c34.78-10,55.79-25.14,68.47-40a52,52,0,0,0-16.39-80.1c-26.44-13.1-58.06-13.65-58.37-13.65C703.51,703.25,700.51,703.12,697.53,703.12Z" transform="translate(-86.59 -307.73)"/>
	<path class="cls-1" d="M611.54,369a9.8,9.8,0,0,0-6.4-.66,15.54,15.54,0,0,0-5.54,2.74,23.73,23.73,0,0,0-4.57,4.7,57.87,57.87,0,0,0-3.46,5.22,163.73,163.73,0,0,0-11,23q-4.18,10.57-7.31,21.21t-6.13,21.33q-1.44,5.49-3,10.77T561,468a22.54,22.54,0,0,1-1,2.74,8.3,8.3,0,0,1-1.63,2.41,4,4,0,0,1-2.29,1.18,4.16,4.16,0,0,1-2.87-.85,15,15,0,0,1-5.09-6.85,42.14,42.14,0,0,1-2.35-8.42,47.9,47.9,0,0,1-.45-10.31q.32-5.22,1-10.31.65-5.47,1.69-10.7t2.48-10.44A269.15,269.15,0,0,1,531.15,452q-1.83,2.86-3.72,5.74t-4,5.61a11.44,11.44,0,0,1-2.61,2.74,4.32,4.32,0,0,1-3.66.52,6.07,6.07,0,0,1-4.11-2.87A9.85,9.85,0,0,1,512,459a22.83,22.83,0,0,1,.66-5.35q.64-2.73,1.17-4.83a212.52,212.52,0,0,1,9.27-26.62q5.48-12.92,10.31-26.23,1.3-3.25,2.41-6.53t2.15-6.65c.27-1,.63-2.28,1.11-3.72a21.54,21.54,0,0,0,1-4.37,12.68,12.68,0,0,0-.13-4.11,4.71,4.71,0,0,0-2.22-3.07,7.41,7.41,0,0,0-5.87-.72,20.74,20.74,0,0,0-5.61,2.29,32.62,32.62,0,0,0-5.22,4.11,41.66,41.66,0,0,0-4.31,4.89,54.67,54.67,0,0,0-10.18,24.8,35.57,35.57,0,0,0-.39,6.85,29.84,29.84,0,0,0,1.05,6.78,24.84,24.84,0,0,0,2.67,6.27,17,17,0,0,0,4.63,5c.18.09.2.24.07.46s-.28.24-.46.06a20.37,20.37,0,0,1-8.68-9,25.57,25.57,0,0,1-2.54-12.4,40.67,40.67,0,0,1,3.46-14.09A88.87,88.87,0,0,1,513.14,380a52,52,0,0,1,7.05-8.61,22.08,22.08,0,0,1,9.52-5.75A13,13,0,0,1,534,365a10.46,10.46,0,0,1,4,.84,7.14,7.14,0,0,1,2.94,2.48,8,8,0,0,1,1.3,4.18,19.29,19.29,0,0,1-.78,6.92c-.7,2.35-1.35,4.56-2,6.65-.7,2.35-1.39,4.68-2.09,7s-1.48,4.59-2.35,6.86q-2.47,6.91-5.22,13.63t-5.35,13.51q-2.61,6.92-5,13.9t-4,14.16a33.87,33.87,0,0,0-.59,3.91,6,6,0,0,0,.85,3.79,4.34,4.34,0,0,0,2.41,1.89,3.21,3.21,0,0,0,2.94-.59,6.46,6.46,0,0,0,1.3-1.43c.35-.53.74-1.09,1.18-1.7q2.08-3,4-6l3.92-6a239.82,239.82,0,0,0,13.9-26.16q6.06-13.38,11.42-27.21a.72.72,0,0,1,1-.52,2.07,2.07,0,0,0,.26-.79.6.6,0,0,1,.79-.19c.34.13.43.37.26.72a214.42,214.42,0,0,0-6.92,24.46,189.61,189.61,0,0,0-3.79,25.13q-.39,4.69-.39,9.39a30.71,30.71,0,0,0,1.44,9.27,23.21,23.21,0,0,0,2.35,5.74,9.59,9.59,0,0,0,.65,1.11,6.45,6.45,0,0,0,.78,1,11.92,11.92,0,0,0,2,.85,2.71,2.71,0,0,0,2.09.06,2.8,2.8,0,0,0,1.43-1.63,21.42,21.42,0,0,0,.92-2.67c.26-1,.48-1.92.65-2.88a17.13,17.13,0,0,1,.52-2.21q2.61-10.19,5-20.36t5.28-20.36q3-10.05,6.66-19.77a149,149,0,0,1,8.61-18.86,68.26,68.26,0,0,1,4.31-7.05,30.43,30.43,0,0,1,5.81-6.39,16.06,16.06,0,0,1,7.11-3.39c2.61-.53,5.35.13,8.22,1.95a.43.43,0,0,1,.13.66C611.88,369.12,611.71,369.16,611.54,369Z" transform="translate(-86.59 -307.73)"/>
	<path class="cls-1" d="M621.58,437.76c.18-.17.33-.2.46-.06s.11.28-.06.45a41.22,41.22,0,0,1-24,11.62,29.69,29.69,0,0,1-6.2.13,11.07,11.07,0,0,1-5.8-2.22,7.44,7.44,0,0,1-2.68-4.18,8.45,8.45,0,0,1,.33-5c-.18-.17-.13-.26.13-.26a.53.53,0,0,1,.13-.39,14.48,14.48,0,0,1,3.26-4.5,11.91,11.91,0,0,1,4.7-2.94,6.24,6.24,0,0,1,3.65.07,3.13,3.13,0,0,1,2.35,2.54,4,4,0,0,1-.13,2.29,7.06,7.06,0,0,1-1.17,2.08,9.12,9.12,0,0,1-1.76,1.7,9.8,9.8,0,0,1-1.9,1.11,8.67,8.67,0,0,1-6.26.26c-.26,2.7,1,4.87,3.65,6.53a13.46,13.46,0,0,0,8.55,1.17,52.22,52.22,0,0,0,8.55-2.09A42.72,42.72,0,0,0,621.58,437.76Zm-30.4-4.7a14,14,0,0,0-2.87,2.94,9.07,9.07,0,0,0-1.57,3.46,7.85,7.85,0,0,0,3.85.32,8.23,8.23,0,0,0,3.72-1.76,7.11,7.11,0,0,0,1.17-1.17,5.49,5.49,0,0,0,1-1.7,2.74,2.74,0,0,0,.07-1.76,2.35,2.35,0,0,0-1.44-1.37,2.86,2.86,0,0,0-2.15.06A7.61,7.61,0,0,0,591.18,433.06Z" transform="translate(-86.59 -307.73)"/><path class="cls-1" d="M653.82,437.5c.26-.35.54-.43.85-.26a.52.52,0,0,1,.19.78,113.31,113.31,0,0,1-7.5,9.53,63.4,63.4,0,0,1-8.81,8.35,16.33,16.33,0,0,1-3.85,2.28,11.22,11.22,0,0,1-4.05.92,9.17,9.17,0,0,1-4-.79,8.82,8.82,0,0,1-3.52-2.93,13.42,13.42,0,0,1-2.09-4.24,19.25,19.25,0,0,1-.72-4.64,36.46,36.46,0,0,1,.2-4.76c.18-1.61.39-3.15.65-4.63a82.2,82.2,0,0,1,5.35-20.23,90.2,90.2,0,0,1,4.18-9.59,73.85,73.85,0,0,1,5.35-8.94c.69-1.05,1.45-2.22,2.28-3.52a28.6,28.6,0,0,1,2.74-3.66,16.59,16.59,0,0,1,3.27-2.87,7.81,7.81,0,0,1,4-1.3c2.08-.09,3.61.39,4.56,1.43a6.36,6.36,0,0,1,1.57,4.11,20,20,0,0,1-.59,5.61,59.16,59.16,0,0,1-1.76,6.07,54.21,54.21,0,0,1-2.22,5.48c-.78,1.66-1.39,2.87-1.82,3.66A67.36,67.36,0,0,1,638,427.78a44.26,44.26,0,0,1-14.1,10.37,59.09,59.09,0,0,0-.78,8,13.34,13.34,0,0,0,2,7.63,7,7,0,0,0,4,3.27,8,8,0,0,0,4.5-.27,15.6,15.6,0,0,0,4.44-2.41c1.44-1.09,2.76-2.15,4-3.2a52.93,52.93,0,0,0,6.27-6.59Q651.2,441,653.82,437.5Zm-25.71-16.44a79.31,79.31,0,0,0-3.92,15.79V437a50.39,50.39,0,0,0,12.47-9.72,60.28,60.28,0,0,0,9.2-13,61.81,61.81,0,0,0,5.48-13.57c.34-1.22.72-2.57,1.11-4.05a7.51,7.51,0,0,0,.06-4,3.32,3.32,0,0,0-1.37-2.16,3.85,3.85,0,0,0-2.22-.52,5.68,5.68,0,0,0-2.41.72,9,9,0,0,0-2,1.43,30.64,30.64,0,0,0-5.28,6.4c-1.53,2.44-2.94,4.83-4.25,7.18A87.83,87.83,0,0,0,628.11,421.06Z" transform="translate(-86.59 -307.73)"/><path class="cls-1" d="M662,438.94q-.27.12-.39,0c-.09-.09-.09-.22,0-.4a8.42,8.42,0,0,0,1.82-2.67,3.23,3.23,0,0,0,.13-3.2q-.92-1.69-1.89-1.11a14.13,14.13,0,0,0-1.89,1.37,12.76,12.76,0,0,0-3.92,6.4,9.53,9.53,0,0,0-.13,4.11,10.26,10.26,0,0,0,1.44,3.65,9.06,9.06,0,0,0,2.74,2.74,8.87,8.87,0,0,0,3.91,1.37,19.54,19.54,0,0,0,7.25-.58,25.06,25.06,0,0,0,6.78-3,36,36,0,0,0,5.94-4.69,37.23,37.23,0,0,0,4.7-5.55c.17-.35.43-.41.78-.2a.59.59,0,0,1,.26.85,36.78,36.78,0,0,1-7.57,8.29,33.72,33.72,0,0,1-9.91,5.55,25.57,25.57,0,0,1-5.22,1.3,18,18,0,0,1-5.29,0,10.94,10.94,0,0,1-4.63-1.83,10.19,10.19,0,0,1-3.39-4.17,12.91,12.91,0,0,1-1.11-5,14.82,14.82,0,0,1,.84-5.28,15.54,15.54,0,0,1,2.61-4.7,12.14,12.14,0,0,1,4.05-3.26,5.34,5.34,0,0,1,3.52-.39,2.85,2.85,0,0,1,2.22,2.61,6.09,6.09,0,0,1-.85,4.3A15.46,15.46,0,0,1,662,438.94Z" transform="translate(-86.59 -307.73)"/><path class="cls-1" d="M724.68,437.5a.34.34,0,0,1,.59-.07.53.53,0,0,1,.06.72,21.32,21.32,0,0,1-10.77,6.4,34.25,34.25,0,0,1-13,.65c-.52-.09-1.09-.2-1.7-.33a16.49,16.49,0,0,1-1.69-.45,14.69,14.69,0,0,1-1.9,1.82,9.59,9.59,0,0,1-2.15,1.31,5.16,5.16,0,0,1-3.59,0,5.33,5.33,0,0,1-2.8-2.48,5.62,5.62,0,0,1-.59-4.89,19.31,19.31,0,0,1,2.28-4.51l.13-.13a8.33,8.33,0,0,1,.26-4,6.52,6.52,0,0,1,2-3.14,8.82,8.82,0,0,1,3.32-1.82,6.18,6.18,0,0,1,3.66.06,5.54,5.54,0,0,1,3,2.42,6.52,6.52,0,0,1,.91,5,21.2,21.2,0,0,1-1.56,5c-.26.6-.52,1.21-.79,1.82a10,10,0,0,1-1,1.83,20.26,20.26,0,0,0,4.76,1,31.22,31.22,0,0,0,4.51.06,53.23,53.23,0,0,0,8.67-1.69A16.92,16.92,0,0,0,724.68,437.5Zm-29.36,6.92.45-.46.46-.46a17,17,0,0,1-3.59-2.54,9.64,9.64,0,0,1-2.41-3.33,13.46,13.46,0,0,0-1.05,2.35,6.32,6.32,0,0,0-.26,2.61,3.19,3.19,0,0,0,.85,2,3.69,3.69,0,0,0,1.63,1,3.38,3.38,0,0,0,2-.06A5.68,5.68,0,0,0,695.32,444.42Zm.39-15.53a4.46,4.46,0,0,0-3.4,2.87,7.5,7.5,0,0,0-.13,4.57,7.59,7.59,0,0,0,2.09,3.26,14.42,14.42,0,0,0,3.26,2.22,21.46,21.46,0,0,0,2.61-5.88,8,8,0,0,0,.33-2.67,7.39,7.39,0,0,0-.52-2.48,3.41,3.41,0,0,0-1.5-1.7A3.8,3.8,0,0,0,695.71,428.89Z" transform="translate(-86.59 -307.73)"/><path class="cls-1" d="M774.4,437.76a.37.37,0,0,1,.52.52q-2.22,2.36-4.7,4.57a35.05,35.05,0,0,1-5.28,3.92,29.65,29.65,0,0,1-5.94,2.74,18.32,18.32,0,0,1-6.53.91,7.94,7.94,0,0,1-6.13-2.61q-2.08-2.47-1-6.53c.08-.17.21-.5.39-1s.35-1,.52-1.5.3-1,.39-1.38a1.29,1.29,0,0,0,0-.84.94.94,0,0,0-1.17-.26,5.47,5.47,0,0,0-1.57.84,9.88,9.88,0,0,0-1.43,1.31,11.25,11.25,0,0,0-.92,1.11,26.8,26.8,0,0,0-3.13,4.37q-1.3,2.28-2.48,4.76c0,.18-.13.26-.39.26a.63.63,0,0,1-.2.46q-.19.19-.45-.06a3.11,3.11,0,0,1-1.83-2.74,10.63,10.63,0,0,1,.65-3.53c.26-.61.68-1.45,1.24-2.54a35.48,35.48,0,0,0,1.57-3.46,17,17,0,0,0,1-3.46,3.14,3.14,0,0,0-.66-2.68,6.77,6.77,0,0,0-1.82,1.24,14.12,14.12,0,0,0-1.7,1.9c-.52.69-1,1.39-1.43,2.08s-.83,1.31-1.18,1.83l-2.28,3.33q-1.11,1.63-2.16,3.33a1,1,0,0,1-.06.39.51.51,0,0,0-.07.26.92.92,0,0,1-.52.91.66.66,0,0,1-.91-.26,3.84,3.84,0,0,1-1.24-3.26,21.41,21.41,0,0,1,.72-3.65,15.67,15.67,0,0,1,.39-1.77c.17-.65.37-1.28.58-1.89a6.45,6.45,0,0,1,.92-1.69,2.84,2.84,0,0,1,1.37-1.05c.26-.08.48.05.65.39a2.66,2.66,0,0,1,.26,2.55c-.35.91-.65,1.8-.91,2.67a16.72,16.72,0,0,0-.78,3.79A43.7,43.7,0,0,1,729,437.5a46.18,46.18,0,0,1,2.88-4.31,15.42,15.42,0,0,1,2.87-2.67,3.2,3.2,0,0,1,3.65-.2c.17.09.24.18.2.26a.21.21,0,0,1-.2.13h-.26a2.09,2.09,0,0,1,1.57,1.57,4.91,4.91,0,0,1,.13,2.48,18.49,18.49,0,0,1-.85,3.33c-.39,1.09-.81,2.11-1.24,3.06a28.71,28.71,0,0,1-1.7,3.14,5.28,5.28,0,0,0-.91,3.26,30.66,30.66,0,0,1,4.3-7.83c.79-1,1.66-2,2.61-3.2a10,10,0,0,1,3.27-2.67,2.69,2.69,0,0,1,2.35-.2,3.54,3.54,0,0,1,1.69,1.76,4.92,4.92,0,0,1,.2,3.92,27.46,27.46,0,0,0-1.11,3.78q-1.3,4.83,3.39,5.61a12.73,12.73,0,0,0,5.09-.26,36.14,36.14,0,0,0,4.44-1.63,27.58,27.58,0,0,0,4.18-2.28c1.56-1,3.13-2,4.69-3.07A22.93,22.93,0,0,0,774.4,437.76Z" transform="translate(-86.59 -307.73)"/><path class="cls-1" d="M811.72,437.76c.17-.17.33-.2.46-.06s.11.28-.07.45a41.19,41.19,0,0,1-24,11.62,29.71,29.71,0,0,1-6.2.13,11.1,11.1,0,0,1-5.81-2.22,7.48,7.48,0,0,1-2.67-4.18,8.45,8.45,0,0,1,.33-5c-.18-.17-.13-.26.13-.26a.53.53,0,0,1,.13-.39,14.48,14.48,0,0,1,3.26-4.5,11.84,11.84,0,0,1,4.7-2.94,6.24,6.24,0,0,1,3.65.07,3.13,3.13,0,0,1,2.35,2.54,4.14,4.14,0,0,1-.13,2.29,7.06,7.06,0,0,1-1.17,2.08,9.17,9.17,0,0,1-1.77,1.7,9.46,9.46,0,0,1-1.89,1.11,8.67,8.67,0,0,1-6.26.26c-.26,2.7,1,4.87,3.65,6.53A13.46,13.46,0,0,0,789,448.2a52.47,52.47,0,0,0,8.55-2.09A42.72,42.72,0,0,0,811.72,437.76Zm-30.41-4.7a14.25,14.25,0,0,0-2.87,2.94,9.2,9.2,0,0,0-1.56,3.46,7.83,7.83,0,0,0,3.85.32,8.23,8.23,0,0,0,3.72-1.76,8,8,0,0,0,1.17-1.17,5.49,5.49,0,0,0,1-1.7,2.74,2.74,0,0,0,.07-1.76,2.38,2.38,0,0,0-1.44-1.37,2.86,2.86,0,0,0-2.15.06A7.92,7.92,0,0,0,781.31,433.06Z" transform="translate(-86.59 -307.73)"/><path class="cls-1" d="M534.74,5819.42a52.38,52.38,0,0,0-8.25.65,77.56,77.56,0,0,0-8,1.75,85.19,85.19,0,0,0-9.65,3.2,98.89,98.89,0,0,1-9.65,3.3c.6.54,1.15,1.07,1.65,1.6s1,1.07,1.45,1.6a19.62,19.62,0,0,1,4,12.5c.2-.53.4-1.1.6-1.7s.4-1.16.6-1.69c1.06-2.81,2.25-5.52,3.55-8.16a19.71,19.71,0,0,1,5.65-6.84.4.4,0,0,1,.6-.06c.2.17.2.39,0,.65a27.63,27.63,0,0,0-5.65,9.25q-1.95,5.25-3.65,10.35-1.71,5.4-3.2,10.7t-2.9,10.7q-1.41,5.31-2.55,10.75a66.56,66.56,0,0,1-3.15,10.55,40.82,40.82,0,0,1-1.9,4,15.83,15.83,0,0,1-2.75,3.7,12.78,12.78,0,0,1-4.1,2.7,14.84,14.84,0,0,1-5.85,1.05,5.79,5.79,0,0,1-3.05-.8,7.64,7.64,0,0,1-2.3-2.09,8.92,8.92,0,0,1-1.4-2.91,7.9,7.9,0,0,1-.25-3.2c0-.13,0-.18.15-.14s.15.11.15.25a6.07,6.07,0,0,0,.75,3.09,6.15,6.15,0,0,0,2,2.1,8.57,8.57,0,0,0,2.75,1.2,8.14,8.14,0,0,0,3.15.2,8.56,8.56,0,0,0,5-1.59,13.25,13.25,0,0,0,3.35-3.71,21.91,21.91,0,0,0,2.2-4.9q.84-2.7,1.65-5.39,1.39-5.21,2.7-10.36t2.7-10.35c.33-1.4.7-2.79,1.1-4.2s.8-2.76,1.2-4.09v-.21a23.2,23.2,0,0,0,.55-12.85,20.83,20.83,0,0,0-6.65-10.85l-.2-.15a.55.55,0,0,1-.2-.15,25.35,25.35,0,0,1-5.2.8c-.74.07-1.59.14-2.55.2a25.56,25.56,0,0,1-2.9.05,12.28,12.28,0,0,1-2.8-.4,5.23,5.23,0,0,1-2.25-1.15,2.3,2.3,0,0,1-.9-1.35,1.61,1.61,0,0,1,.25-1.19,3.28,3.28,0,0,1,1-1,6.42,6.42,0,0,1,1.35-.75,13,13,0,0,1,7.55-.36,20.6,20.6,0,0,1,7.05,3.25q4.1-1.4,8.05-3.14t8-3.16a93,93,0,0,1,11.7-3.05,47.52,47.52,0,0,1,12-.75,18.59,18.59,0,0,1,4.3.75,13.51,13.51,0,0,1,3.9,1.85,8.34,8.34,0,0,1,2.65,3.11,7.61,7.61,0,0,1,.65,4.39.3.3,0,1,1-.6,0,6.63,6.63,0,0,0-1.55-4,9,9,0,0,0-3.35-2.3,16.61,16.61,0,0,0-4.3-1.05A41.16,41.16,0,0,0,534.74,5819.42Zm-44.1,9.3c.73-.13,1.5-.28,2.3-.45a16.92,16.92,0,0,0,2.3-.64,17.48,17.48,0,0,0-4.35-2.21,14.74,14.74,0,0,0-4.75-.79,17.46,17.46,0,0,0-2.15.19,3,3,0,0,0-1.95.81c-.6.79-.72,1.43-.35,1.89a3,3,0,0,0,1.65,1,11.4,11.4,0,0,0,3.65.45C488.29,5828.94,489.5,5828.86,490.64,5828.72Z" transform="translate(-86.59 -307.73)"/><path class="cls-1" d="M547.64,5866.32c.13-.13.25-.13.35,0a.28.28,0,0,1,0,.4,23.48,23.48,0,0,1-6.1,4.85,28.16,28.16,0,0,1-7.3,2.85,15.77,15.77,0,0,1-2,.4,12.3,12.3,0,0,1-2.55.15,4.53,4.53,0,0,1-2.3-.7,3.06,3.06,0,0,1-1.35-2.14,2.66,2.66,0,0,1,.3-1.91c.33-.59.66-1.16,1-1.7a7.17,7.17,0,0,1,.5-1,7.18,7.18,0,0,0,.5-1,2.45,2.45,0,0,0,.4-1.6,1.57,1.57,0,0,0-.8-1.2,5.83,5.83,0,0,0-2,.91,17.65,17.65,0,0,0-2.05,1.59c-.67.6-1.29,1.2-1.85,1.8a12.82,12.82,0,0,0-1.25,1.5,26.56,26.56,0,0,0-2.9,4.11c-.2.33-.4.68-.6,1a9.79,9.79,0,0,0-.5,1.05l-.6,2.41c-.14.33-.34.48-.6.44s-.4-.21-.4-.55a50.87,50.87,0,0,1,1.7-11.5,82.25,82.25,0,0,1,3.8-11,95,95,0,0,1,4.6-9.35,44.18,44.18,0,0,1,6.1-8.45,22.57,22.57,0,0,1,3-2.5,4.62,4.62,0,0,1,3.7-.8,3.2,3.2,0,0,1,2.2,1.46,5.67,5.67,0,0,1,.8,2.54,10.57,10.57,0,0,1-.7,4.21,26.08,26.08,0,0,1-2,4.14,42.08,42.08,0,0,1-2.7,3.9c-1,1.24-1.89,2.35-2.75,3.35a57,57,0,0,1-6.25,6.45,49.93,49.93,0,0,1-7.15,5.25c-.27.8-.52,1.62-.75,2.45s-.45,1.69-.65,2.55a24.47,24.47,0,0,1,3.8-4.7,15,15,0,0,1,1.45-1.45,13.32,13.32,0,0,1,2-1.5,6.92,6.92,0,0,1,2.15-.85,1.69,1.69,0,0,1,1.75.7,2.64,2.64,0,0,1,1,1.3,2.92,2.92,0,0,1,0,1.91c-.24.79-.52,1.63-.85,2.5a25.24,25.24,0,0,0-.85,2.54,4,4,0,0,0-.15,2.05,3.37,3.37,0,0,0,2.25.55,16.25,16.25,0,0,0,3-.39,29.51,29.51,0,0,0,2.9-.81c.9-.3,1.58-.55,2.05-.75a29.16,29.16,0,0,0,4.6-2.4A37.86,37.86,0,0,0,547.64,5866.32Zm-25.2-8.5-1.2,3.2c-.4,1.07-.77,2.17-1.1,3.3a88,88,0,0,0,7.35-5.85,48.93,48.93,0,0,0,6.45-6.95q1.5-2,3-4.3a20,20,0,0,0,2.3-4.8,11.91,11.91,0,0,0,.8-2.65,3.25,3.25,0,0,0-.5-2.64,2.17,2.17,0,0,0-1.55-1,3.86,3.86,0,0,0-1.75.35,6,6,0,0,0-1.65,1.11c-.5.46-.92.86-1.25,1.19a22.62,22.62,0,0,0-3.15,4.25c-.9,1.57-1.79,3.12-2.65,4.65s-1.84,3.25-2.7,4.95S523.17,5856.09,522.44,5857.82Z" transform="translate(-86.59 -307.73)"/><path class="cls-1" d="M575.83,5866.22a.37.37,0,0,1,.61.41,51.29,51.29,0,0,1-2.55,4.79,29.27,29.27,0,0,1-3.56,4.8,18,18,0,0,1-4.44,3.6,8.41,8.41,0,0,1-5.25,1.1,5.64,5.64,0,0,1-3.16-1.25,7.24,7.24,0,0,1-1.94-2.54,10.37,10.37,0,0,1-.9-3.31,13.17,13.17,0,0,1,.09-3.6,2.3,2.3,0,0,1-.29.5,21.72,21.72,0,0,1-1.21,2.41,3.85,3.85,0,0,1-1.9,1.69,2.82,2.82,0,0,1-2.35.15,3.05,3.05,0,0,1-1.44-1.4,6,6,0,0,1-.65-2.25,7.25,7.25,0,0,1,.05-2.3,16.35,16.35,0,0,1,.7-2.8,11,11,0,0,1,1.4-2.8,10.46,10.46,0,0,1,2.1-2.25,5.49,5.49,0,0,1,2.69-1.15c1.47-.2,2.4.11,2.81.9a4.84,4.84,0,0,1,.4,2.8c.19,0,.23.07.1.2a9.7,9.7,0,0,1-.41,1.3,2,2,0,0,0,.41-.5.94.94,0,0,1,1.19-.15.73.73,0,0,1,.4,1.06c-.59,1.46-1.11,2.88-1.54,4.25a8.84,8.84,0,0,0-.15,4.54,7.16,7.16,0,0,0,2.1,3.9,4.5,4.5,0,0,0,4.19,1,9.67,9.67,0,0,0,4.11-1.8,19.17,19.17,0,0,0,3.45-3.3,31.29,31.29,0,0,0,2.8-4.05Q574.93,5868,575.83,5866.22Zm-22.19,4.1a39,39,0,0,0,2.5-5.19c.06-.41.13-.82.19-1.25a2.61,2.61,0,0,0,0-1.16,1.53,1.53,0,0,0-.6-.8,1.79,1.79,0,0,0-1.36-.1,3.18,3.18,0,0,0-1.75,1.06c-.5.56-.94,1.11-1.35,1.64a11.17,11.17,0,0,0-1.9,5.61,8.75,8.75,0,0,0,.11,1.29,3.32,3.32,0,0,0,.39,1.21,1.22,1.22,0,0,0,.86.59,2,2,0,0,0,1.45-.59,2.78,2.78,0,0,0,.9-1.06C553.3,5871.07,553.5,5870.66,553.64,5870.32Z" transform="translate(-86.59 -307.73)"/><path class="cls-1" d="M604.83,5865.92a.38.38,0,0,1,.6,0,.56.56,0,0,1,.1.71,53.39,53.39,0,0,1-5.35,5.39,71,71,0,0,1-5.95,4.7q-1,.7-2.1,1.35a5.9,5.9,0,0,1-2.2.81,3.79,3.79,0,0,1-2.1-.31,3.74,3.74,0,0,1-1.7-1.94,4.82,4.82,0,0,1-.55-3.06c.17-1,.39-2,.65-3,.14-.73.3-1.46.5-2.2s.37-1.46.5-2.19c.07-.27.15-.62.25-1.06s.2-.88.3-1.35a9.45,9.45,0,0,0,.2-1.34,1.91,1.91,0,0,0-.15-1.06c-.2-.4-.45-.58-.75-.55a1.89,1.89,0,0,0-.9.4,7.81,7.81,0,0,0-.9.85c-.3.34-.51.61-.65.8a28.81,28.81,0,0,0-2.7,3.1c-.8.94-1.56,1.94-2.3,3a25,25,0,0,1-2.4,3c-.26.4-.53.37-.8-.1-.26.34-.5.34-.7,0a3.54,3.54,0,0,1-.75-2.25,16.44,16.44,0,0,1,.35-2.55,16.65,16.65,0,0,1,.65-2.64,6,6,0,0,1,1.45-2.36.69.69,0,0,1,.9-.14c.4.16.57.41.5.75a8.05,8.05,0,0,1-.55,2.34,12.25,12.25,0,0,0-.65,2.35,3.76,3.76,0,0,0-.2,1.15,5.06,5.06,0,0,1-.1,1.05,34.23,34.23,0,0,1,3.4-5.25,32.68,32.68,0,0,1,4.2-4.45,8.63,8.63,0,0,1,1.75-1,2,2,0,0,1,1.85.1,2,2,0,0,1,1.15,1.75,15.25,15.25,0,0,1,0,2.25c-.13,1.34-.31,2.62-.55,3.85s-.48,2.52-.75,3.86c-.2.73-.4,1.53-.6,2.39a6.44,6.44,0,0,0-.1,2.5,2,2,0,0,0,2,1.9,5,5,0,0,0,3.15-.9,54,54,0,0,0,6.35-5C601.05,5869.72,603,5867.86,604.83,5865.92Z" transform="translate(-86.59 -307.73)"/><path class="cls-1" d="M635.13,5866c.14-.13.25-.14.35-.05s.09.22-.05.35a21,21,0,0,1-2.9,4.6,35.34,35.34,0,0,1-3.8,4,23.35,23.35,0,0,1-4.1,3,12.49,12.49,0,0,1-4.8,1.54,8.58,8.58,0,0,1-4.2-.4,10.23,10.23,0,0,1-3.35-2,11,11,0,0,1-2.4-3.14,14.94,14.94,0,0,1-1.35-4,2.7,2.7,0,0,1-.6-.5c-.66.94-1.33,1.84-2,2.71s-1.36,1.73-2.1,2.59c-.2.41-.38.82-.55,1.25a5.72,5.72,0,0,1-.65,1.25.28.28,0,0,1-.35.16.33.33,0,0,1-.25-.36,30.25,30.25,0,0,1,1-5.8q.81-2.9,1.6-5.8l2-5.95q1-2.94,2.2-5.84,2-5,4.45-9.71a68.14,68.14,0,0,1,5.65-9c.74-1,1.59-2.16,2.55-3.5a6.65,6.65,0,0,1,3.45-2.6,2.47,2.47,0,0,1,2.6.45,2.81,2.81,0,0,1,.8,2.55,12.38,12.38,0,0,1-1.35,4.4q-1.14,2.31-2.15,4.2a94.89,94.89,0,0,1-11.1,17.55A57.47,57.47,0,0,1,607,5865a9.44,9.44,0,0,0-.3.9,3.12,3.12,0,0,1-.3.8c-.2.74-.4,1.45-.6,2.16s-.43,1.41-.7,2.14c.67-.93,1.35-1.86,2-2.8s1.42-1.83,2.15-2.7c.47-.6.95-1.26,1.45-2a13,13,0,0,1,1.7-2,6.06,6.06,0,0,1,2-1.3,3.39,3.39,0,0,1,2.4.1.24.24,0,0,1,0,.4l.1.1a2.69,2.69,0,0,1,.3,2.6,9.39,9.39,0,0,1-1.2,2.5,11.8,11.8,0,0,1-2.2,2.55,8.08,8.08,0,0,1-2.8,1.66,1.15,1.15,0,0,1-.65.19h-.65c.47.94.95,1.82,1.45,2.65a9.74,9.74,0,0,0,1.85,2.25,7.41,7.41,0,0,0,4.1,2.25,11.12,11.12,0,0,0,4.8-.15,11.58,11.58,0,0,0,4-1.9,25.22,25.22,0,0,0,3.25-2.85q1.5-1.55,2.9-3.3A33.19,33.19,0,0,1,635.13,5866Zm-25.1-9.7c-.46,1.2-.9,2.39-1.3,3.56s-.8,2.34-1.2,3.54q3.51-3.8,6.7-7.75a64.06,64.06,0,0,0,5.8-8.45,80,80,0,0,0,5.4-10.8c.07-.2.25-.65.55-1.35a11.42,11.42,0,0,0,.7-2.19,3.27,3.27,0,0,0,0-1.91c-.2-.5-.73-.61-1.6-.34a5.9,5.9,0,0,0-2.4,2.25c-.8,1.16-1.43,2.08-1.9,2.75a70.54,70.54,0,0,0-6.1,10A103.32,103.32,0,0,0,610,5856.32Zm5,5a9.19,9.19,0,0,0-3.45,3.15c-1,1.44-1.85,2.66-2.65,3.66a.3.3,0,0,0-.1.19,1.62,1.62,0,0,0,1.3.06,5.79,5.79,0,0,0,1.4-.75,13.91,13.91,0,0,0,1.3-1.06c.4-.36.7-.65.9-.85a24.12,24.12,0,0,0,1.6-2.5,1.34,1.34,0,0,0,.5-.9C615.9,5861.52,615.63,5861.19,615,5861.32Z" transform="translate(-86.59 -307.73)"/><path class="cls-1" d="M710.43,5866a.28.28,0,0,1,.35,0c.1.1.09.22,0,.35a27.85,27.85,0,0,1-5.5,4.46q-3,1.84-6,3.64c-1.13.67-2.26,1.3-3.4,1.9s-2.26,1.24-3.4,1.9q-.6,3.51-1,7c-.26,2.34-.6,4.67-1,7-.26,1.81-.65,3.79-1.15,6a35.72,35.72,0,0,1-2,6.25,19.33,19.33,0,0,1-3.35,5.3,10.7,10.7,0,0,1-5,3.2,7.85,7.85,0,0,1-5-.2,9.09,9.09,0,0,1-4-2.9,7.69,7.69,0,0,1-1.8-5.29,23,23,0,0,1,.9-5.71,26.47,26.47,0,0,1,6.2-10.35,53.74,53.74,0,0,1,9.4-7.75,60.06,60.06,0,0,1,6.4-3.69c.27-1.41.57-2.84.9-4.31a33.8,33.8,0,0,1,1.3-4.3c-.26.34-.51.65-.75.95a10.6,10.6,0,0,0-.65.95c-.33.47-.71,1-1.15,1.55a11.59,11.59,0,0,1-1.4,1.55,8.69,8.69,0,0,1-1.6,1.2,3,3,0,0,1-1.85.41,2.31,2.31,0,0,1-2.5-2,9.91,9.91,0,0,1,.35-4.21,24.57,24.57,0,0,1,1.8-4.5,18.18,18.18,0,0,1,1.85-3,1,1,0,0,1,1.4,0,.87.87,0,0,1,.3,1.34,35.12,35.12,0,0,0-1.9,3.1,13.13,13.13,0,0,0-1.2,3.31c-.13.53-.25,1.08-.35,1.64a4,4,0,0,0,0,1.65,1.68,1.68,0,0,0,.6,1.05,1,1,0,0,0,.85.1,3,3,0,0,0,.95-.55,4,4,0,0,0,.8-.8,32,32,0,0,0,4.55-5.7q2-3.09,3.65-6.3a.45.45,0,1,1,.8.41.55.55,0,0,1,.2-.25.74.74,0,0,0,.2-.16.52.52,0,0,1,.7-.05.54.54,0,0,1,.2.75c-.73,1.27-1.45,2.5-2.15,3.71a28.93,28.93,0,0,0-1.85,3.79,30.48,30.48,0,0,0-1.3,3.8c-.33,1.27-.63,2.57-.9,3.91v.09c.8-.4,1.62-.81,2.45-1.25s1.69-.84,2.55-1.25c2.2-1.13,4.34-2.34,6.4-3.65S708.37,5867.42,710.43,5866Zm-20.1,15a5.37,5.37,0,0,0,.15-.8c0-.26.09-.53.15-.8-.66.34-1.31.71-2,1.1s-1.28.8-1.95,1.2a58.37,58.37,0,0,0-4.9,3.3,42,42,0,0,0-4.5,3.9,30.75,30.75,0,0,0-3.75,4.55,24,24,0,0,0-2.65,5.25,18.72,18.72,0,0,0-.9,3.3,11.15,11.15,0,0,0-.1,3.3,8.12,8.12,0,0,0,1,3,6.12,6.12,0,0,0,2.5,2.31,6.42,6.42,0,0,0,3.1.89,6.84,6.84,0,0,0,2.9-.64,9.41,9.41,0,0,0,2.55-1.75,13.88,13.88,0,0,0,2-2.5,26.54,26.54,0,0,0,2.85-6,46.9,46.9,0,0,0,1.65-6.45c.4-2.2.72-4.41,1-6.65S690,5883.16,690.33,5881Z" transform="translate(-86.59 -307.73)"/><path class="cls-1" d="M738.13,5866.13c.13-.21.29-.22.45-.06a.41.41,0,0,1,0,.56,16.35,16.35,0,0,1-8.25,4.89,26.15,26.15,0,0,1-10,.5c-.4-.06-.83-.14-1.3-.25a11.14,11.14,0,0,1-1.3-.35,11.15,11.15,0,0,1-1.45,1.4,7.26,7.26,0,0,1-1.65,1,3.83,3.83,0,0,1-2.75,0,4,4,0,0,1-2.15-1.9,4.35,4.35,0,0,1-.45-3.75,15.13,15.13,0,0,1,1.75-3.45l.1-.09a6.42,6.42,0,0,1,.2-3.11,4.88,4.88,0,0,1,1.55-2.39,6.7,6.7,0,0,1,2.55-1.41,4.77,4.77,0,0,1,2.8.05,4.26,4.26,0,0,1,2.3,1.86,5,5,0,0,1,.7,3.79,15.67,15.67,0,0,1-1.2,3.8l-.6,1.41a7.62,7.62,0,0,1-.8,1.39,15.49,15.49,0,0,0,3.65.75,22.34,22.34,0,0,0,3.45,0,39.35,39.35,0,0,0,6.65-1.3A13,13,0,0,0,738.13,5866.13Zm-22.5,5.29.35-.35.35-.35a13.19,13.19,0,0,1-2.75-1.95,7.37,7.37,0,0,1-1.85-2.55,10.9,10.9,0,0,0-.8,1.8,5,5,0,0,0-.2,2,2.44,2.44,0,0,0,.65,1.55,2.86,2.86,0,0,0,1.25.75,2.49,2.49,0,0,0,1.5,0A4,4,0,0,0,715.63,5871.42Zm.3-11.9a3.43,3.43,0,0,0-2.6,2.2,5.49,5.49,0,0,0,1.5,6,10.7,10.7,0,0,0,2.5,1.7,15.25,15.25,0,0,0,1.2-2.25,16.43,16.43,0,0,0,.8-2.25,6.11,6.11,0,0,0,.25-2,5.46,5.46,0,0,0-.4-1.91,2.6,2.6,0,0,0-1.15-1.3A2.94,2.94,0,0,0,715.93,5859.52Z" transform="translate(-86.59 -307.73)"/><path class="cls-1" d="M768,5866.13a.36.36,0,0,1,.55-.11c.23.14.28.3.15.5a44.48,44.48,0,0,1-3.5,6.15,34.13,34.13,0,0,1-4.6,5.46,19.31,19.31,0,0,1-4.4,3.14,7.85,7.85,0,0,1-5.2.75,5.91,5.91,0,0,1-4.25-2.64,7.37,7.37,0,0,1-1-4.86c.13-1.46.32-3,.55-4.45a23.39,23.39,0,0,1,1.15-4.44,28.16,28.16,0,0,1-1.75,2.69c-.63.87-1.25,1.7-1.85,2.5a7.56,7.56,0,0,1-2,1.9,2.91,2.91,0,0,1-2.7.3,2.67,2.67,0,0,1-1.85-2.25,8.21,8.21,0,0,1,.3-3.5,16.14,16.14,0,0,1,1.55-3.55,8.71,8.71,0,0,1,1.9-2.4.91.91,0,0,1,1,0,.62.62,0,0,1,.35.86,22,22,0,0,1-1.15,2.34,13,13,0,0,0-1,2.45,10.42,10.42,0,0,0-.35,1.6,8.87,8.87,0,0,0-.1,1.8,1.21,1.21,0,0,0,.6,1.1c.37.21,1,.07,1.75-.4a2.8,2.8,0,0,0,1.25-1.25,15.18,15.18,0,0,1,1-1.55c.33-.53.67-1,1-1.5l1-1.4c.53-.73,1.07-1.48,1.6-2.25a15.82,15.82,0,0,1,1.7-2c.07-.13.13-.18.2-.14a.15.15,0,0,1,.1.14,1,1,0,0,1,1.4,1.4c-.33.74-.73,1.71-1.2,2.9a29.93,29.93,0,0,0-1.2,3.85,36.45,36.45,0,0,0-.75,4.15,11.54,11.54,0,0,0,.1,3.75,4.9,4.9,0,0,0,1.5,2.7,4.65,4.65,0,0,0,3.45.95,8.34,8.34,0,0,0,5.15-2.05,31.12,31.12,0,0,0,4.05-3.95,35.75,35.75,0,0,0,3.15-4.09A37.45,37.45,0,0,0,768,5866.13Z" transform="translate(-86.59 -307.73)"/>
</svg>
