<svg id="Layer_1" data-name="Layer 1" xmlns="http://www.w3.org/2000/svg" viewBox="0 0 1102.3 5605.6">
	<path id="path" class="cls-1" fill="none" stroke="white" stroke-width="2"  d="M473.61,5892c-10.47-20-46.42-7.64-46.78-7.52l-.11,0c-94.13,21.57-172.06-25.32-210.13-55.18-21.75-17.06-30.28-45.68-21.22-71.23,6.1-17.23,19.17-30.33,38.86-39,15.65-6.86,35.5-10.91,59-12,39.91-1.92,77.09,5.37,77.47,5.44,378.33,71.74,578.43,16.35,679.67-42.76,57.24-33.41,89.59-71.5,106.65-97.57,18.46-28.2,23.46-48.72,23.51-48.92,12.84-74.2,3.22-123.57-28.61-146.68-29.79-21.63-74.08-15.95-106-7.37a342,342,0,0,0-63,24.16c-206.08,102.88-363.59,137.8-482.45,137.8-95.93,0-166.68-22.74-217.49-50.87a237.47,237.47,0,0,1-96.63-99.43,230.13,230.13,0,0,1-23.77-136.15c6.18-46.49,25-80.19,56-100.18,55-35.46,137.67-21.41,197.34-3.39a846.44,846.44,0,0,0,264.42,35.92c124.93-2.84,228.22-22.86,307-59.51,99.18-46.14,159.45-118.91,179.13-216.27,18.64-92.24,10.71-152.06-23.58-177.81-46.64-35-127.17,6.47-128,6.9-162.23,90.54-308.33,145.93-434.22,164.6C477,4910.38,386,4901.05,310.46,4867.25a348.57,348.57,0,0,1-100.22-67.65,370.8,370.8,0,0,1-61.06-77.51c-29.2-49.17-38.56-90-38.66-90.37-29.64-128.48-16.63-220.89,38.7-274.65,19.95-19.39,45.49-33.69,75.93-42.5,24.32-7,51.79-10.61,81.66-10.61h.07a407.91,407.91,0,0,1,91.87,10.57c1.05.25,108.4,25.39,240.39,33.81,121.74,7.78,289.92,2.5,399.83-66.71,59-37.15,96.2-89.42,110.55-155.34,19.5-89.52,11.06-157.14-25.08-201-42.15-51.14-114.9-60.46-168.5-59.27a414.84,414.84,0,0,0-127,23.09c-106.38,36.93-205.88,55.47-297.21,55.47a603.07,603.07,0,0,1-117.9-11.2,503.25,503.25,0,0,1-135.29-47.21,461,461,0,0,1-92.92-64.12,296.52,296.52,0,0,1-70.21-92.86,287.23,287.23,0,0,1-28.57-112.68c-2.59-58,12.79-101,45.7-127.73,33.23-27,78.55-32.14,110.75-31.71a297.26,297.26,0,0,1,62.43,7.46c337.4,88.91,584.69,72.7,735-48.17,79.34-63.8,114.74-145.43,130.47-202.68,17.06-62.07,15.31-109.67,15.29-110.14.92-68.11-15.07-112.29-47.52-131.39-50.12-29.48-123.25,11.8-124,12.22-187.87,98.85-359.64,151.9-510.56,157.69-59.11,2.28-115.1-2.79-166.41-15-40.88-9.77-78.86-24.09-112.89-42.57a234.16,234.16,0,0,1-78.49-69.32,226.73,226.73,0,0,1-39.44-96.78c-7.57-49.36,3.24-89.56,32.14-119.48,22.06-22.84,55.15-40.16,98.36-51.48,36.74-9.63,81.81-15.17,134-16.48,94.93-2.37,195.89,9.54,262.69,17.42,12.37,1.46,24,2.84,34.16,3.95A199,199,0,0,0,805,2717.51a149.09,149.09,0,0,0,16.18-13,662.62,662.62,0,0,1-98.29,6.9q-96.72,0-214.71-23.61c-27.81-5.57-47.31-29.75-46.37-57.5.39-11.45,4.4-20.24,12.25-26.85,24.6-20.71,89.22-22.54,209.54-5.92a580.52,580.52,0,0,1,73.61,15.86c50.1,14.6,78,32.33,83,52.67,2.75,11.25-1.72,23.15-13.3,35.54q79.14-12.78,138.46-46.45c88.48-50.3,120.6-124.5,131.88-164.26,9.5-33.48,5.13-69.37-12-98.48-21.72-36.94-61-60-116.73-68.57C923.82,2317,868.47,2319.36,804,2331c-109.79,19.8-209.17,60-210.16,60.45l-.13,0c-126.46,33-229.11,22.1-305.11-32.43-60.88-43.69-92.75-107.84-108.77-154-17.34-49.94-20.34-90.11-20.37-90.51-9.66-62.49,5.24-113.87,44.3-152.62,32.28-32,81.41-55.81,146-70.68,51.62-11.88,113.19-18.15,183-18.62,118.86-.8,221.79,15.7,222.82,15.86,145.25,29.44,256.82,18.27,331.67-33.18,67.66-46.51,79.08-110.36,79.18-111,16-85.69,6.58-141.54-27.86-166-30.22-21.44-74.67-14.35-106.64-4.62a344.38,344.38,0,0,0-63,26.65c-31,16.51-65.27,24.88-102,24.88-29.35,0-60.29-5.32-92-15.8-53.9-17.84-91.77-44.87-92.14-45.14-96-56.54-188.27-3.36-232.59,22.19-5,2.89-9.33,5.38-13.16,7.46a373.82,373.82,0,0,1-62,26.79c-70.34,22.78-127.34,22.23-169.42-1.64-46.12-26.17-57.08-71.93-57.18-72.39-15.24-63.19-3.83-115,33.91-153.82,127.16-131,517-83.82,656.49-54.58a565.56,565.56,0,0,1,113.73,37c71.4,31.77,123.44,8.4,154.53-16.8a170.43,170.43,0,0,0,51.07-70.69c36.92-94.91,38.16-161.29,3.69-197.3-30.41-31.78-83.7-33.66-123-29.64a406.49,406.49,0,0,0-79.09,16.58c-221.1,71.15-402.91,107.22-540.42,107.23h-1.63c-107.22-.22-187.19-22.31-237.7-65.65-36.37-31.21-50.09-67.78-55.19-93-5.36-26.5-2.57-46.34-2.38-47.65,1.21-42.66,17.68-76.88,48.95-101.72,24.21-19.24,57.56-33.05,99.11-41.05,33.19-6.39,71.66-9.12,114.35-8.11a859.65,859.65,0,0,1,133.79,14c87.48,11.83,147.82,8,189.44-3-37-6.15-64.86-16.21-83-30C608.7,796,601,780.77,602.93,764.41c2-17.11,14.5-34,34.26-46.33a115.33,115.33,0,0,1,69.39-16.58c.25,0,32.32.55,59.17,13.85a54,54,0,0,1,17,83.2c-12.37,14.47-32.54,29.24-65.39,39.36,97.71,13.86,189.74-18.41,250-48.09,78.61-38.74,141.16-99.3,180.88-175.14,44.53-85,40-151.74,28.3-192.76-12.63-44.39-36-69-36.25-69.23-28.63-29.28-62.89-43.73-101.69-42.93C980.84,311,922.53,345.91,883.79,375a555.36,555.36,0,0,0-71,63.65l-1.48-1.34a556,556,0,0,1,71.3-63.88c39-29.3,97.69-64.49,156-65.69,39.39-.81,74.13,13.84,103.16,43.54.25.25,24,25.21,36.74,70.07a220.79,220.79,0,0,1,6.88,83.09c-3.65,36-15.54,73.37-35.33,111.15A399.73,399.73,0,0,1,1073.15,718a414.82,414.82,0,0,1-104.91,73.61C929.72,810.6,891,824.56,853,833.13c-48,10.85-94.65,13-138.66,6.36l-1.52-.23c-42,12-103.77,16.5-194.46,4.23a859.4,859.4,0,0,0-133.54-14C318,828,227,835.12,172.69,878.25c-30.8,24.47-47,58.21-48.19,100.28v.13c0,.2-3.1,20.13,2.37,47.1,5,24.86,18.62,61,54.55,91.77,50.15,43,129.69,64.93,236.42,65.14h1.57c137.31,0,318.89-36,539.79-107.13a408.24,408.24,0,0,1,79.51-16.67c39.79-4.07,93.72-2.12,124.7,30.24,35,36.63,33.95,103.72-3.27,199.41a172.38,172.38,0,0,1-51.68,71.52c-20.62,16.72-50.34,32.65-88.68,32.65-20.25,0-42.91-4.45-67.92-15.58a564.5,564.5,0,0,0-113.33-36.84c-139.19-29.18-528.12-76.36-654.65,54-37.22,38.35-48.46,89.48-33.4,152,.11.46,10.9,45.4,56.26,71.12,41.57,23.56,98,24,167.79,1.46a371.81,371.81,0,0,0,61.7-26.65c3.81-2.06,8.12-4.55,13.11-7.43,22.82-13.16,57.3-33,98.06-42.42,48.75-11.21,94.71-4.39,136.62,20.29.45.32,38.11,27.19,91.73,44.93,49.42,16.35,122.88,28.06,192.29-9a346.17,346.17,0,0,1,63.36-26.8c32.41-9.87,77.53-17,108.41,4.89,35.14,24.94,44.79,81.46,28.68,168,0,.15-2.84,16.47-14.07,38.34-10.35,20.17-30.19,49.37-65.89,73.92-33.52,23-75.2,38.23-123.91,45.13-59.42,8.42-129.84,4.52-209.31-11.59-1-.16-103.79-16.63-222.48-15.83-109.41.74-255.06,16.74-327.61,88.72-38.58,38.28-53.29,89.08-43.72,151,0,.48,3,40.43,20.29,90.14,15.92,45.83,47.59,109.56,108,152.93,75.48,54.16,177.55,65,303.37,32.13,3.06-1.24,101.65-40.91,210.47-60.53,64.65-11.66,120.23-14.08,165.18-7.18,56.36,8.65,96.12,32,118.17,69.54,17.39,29.57,21.83,66,12.19,100a268.34,268.34,0,0,1-38.28,80.45c-24,34.38-55.81,63-94.54,85q-60.49,34.39-141.76,47.11a143.46,143.46,0,0,1-18.42,15.17,201,201,0,0,1-137.9,35.12c-10.11-1.11-21.8-2.49-34.17-4-66.75-7.88-167.62-19.78-262.41-17.41-112.8,2.83-190.49,25.48-230.93,67.35-28.44,29.45-39.08,69.08-31.61,117.79,10.6,69.1,54.3,130.64,116.92,164.64,53.41,29,145,62.5,278.27,57.39,150.62-5.79,322.09-58.76,509.66-157.45a209.1,209.1,0,0,1,43.49-17.49c22.86-6.27,55.71-10.44,82.46,5.29,33.13,19.49,49.45,64.27,48.52,133.09,0,.42,1.78,48.27-15.34,110.62a415.07,415.07,0,0,1-43.11,102.24,376.76,376.76,0,0,1-88,101.53c-67.67,54.43-156.65,88-264.48,99.88-130,14.29-288.87-3-472.29-51.31a295.07,295.07,0,0,0-62-7.4c-31.83-.41-76.66,4.66-109.42,31.27-32.39,26.3-47.51,68.72-44.95,126.08,3.44,77.25,39.2,151.66,98.11,204.14,106.6,95,304.4,183.65,641.33,66.66A416.65,416.65,0,0,1,955.89,3864c34.18-.76,64.9,2.81,91.34,10.61,33.35,9.84,59.85,26.45,78.75,49.39,36.55,44.35,45.13,112.55,25.5,202.69-14.48,66.47-52,119.16-111.44,156.61-48.76,30.71-112.86,51.55-190.51,62-62.08,8.32-132.92,10-210.55,5.07-132.15-8.44-239.64-33.61-240.71-33.87-.43-.11-40.87-10.51-91.39-10.51h-.12c-46.59,0-111.5,9.14-156.16,52.55-54.78,53.24-67.61,145-38.13,272.77.1.41,9.41,40.95,38.47,89.86,26.81,45.11,76.39,106.76,160.37,144.3,168.57,75.37,405,29.34,702.7-136.81a223.09,223.09,0,0,1,46.89-16.93c24.2-5.69,58.29-8.53,83.23,10.19,35,26.25,43.16,86.74,24.35,179.81-19.81,98-80.45,171.26-180.24,217.68-79,36.77-182.59,56.86-307.8,59.7a848.66,848.66,0,0,1-265-36c-59.26-17.91-141.32-31.89-195.68,3.16-30.47,19.64-49,52.87-55.1,98.75C152,5339.77,198.89,5431.46,284,5478.56c113.33,62.73,326.43,98.57,698.05-87a343.15,343.15,0,0,1,63.33-24.31c32.33-8.7,77.27-14.43,107.71,7.67,32.5,23.59,42.39,73.62,29.4,148.7-.07.27-5.15,21.12-23.79,49.61-17.18,26.25-49.75,64.6-107.32,98.21-64.64,37.74-147,61.95-244.82,72a1071.66,1071.66,0,0,1-108.93,5.27c-97.51,0-207.11-11.44-327.32-34.24-.37-.07-37.34-7.32-77-5.4-36.41,1.75-82.63,11.79-96,49.65-8.76,24.73-.5,52.46,20.57,69,37.79,29.64,115.1,76.17,208.41,54.83,2.2-.77,38-12.81,49.16,8.5Zm80.95-3303.5c-40.25,0-66.09,5.48-79.17,16.5-7.5,6.31-11.17,14.38-11.54,25.39-.91,26.76,17.92,50.09,44.76,55.47,122.14,24.47,227.5,29.87,315.06,16.28,12.42-12.54,17.33-24.46,14.62-35.58-11.46-47-153.49-66.83-154.92-67C630.18,2592.15,587.53,2588.46,554.56,2588.46Zm143-1885.34c-45.06,0-88.7,28.21-92.62,61.53-1.83,15.61,5.59,30.24,21.48,42.3C644.92,821,674,831.2,712.78,837.22c34.78-10,55.79-25.14,68.47-40a52,52,0,0,0-16.39-80.1c-26.44-13.1-58.06-13.65-58.37-13.65C703.51,703.25,700.51,703.12,697.53,703.12Z" transform="translate(-86.59 -307.73)"/>
</svg>
