<?xml version="1.0" encoding="utf-8"?>
<!-- Generator: Adobe Illustrator 24.0.1, SVG Export Plug-In . SVG Version: 6.00 Build 0)  -->
<svg version="1.1" id="Layer_1" xmlns="http://www.w3.org/2000/svg" xmlns:xlink="http://www.w3.org/1999/xlink" x="0px" y="0px"
	 viewBox="0 0 686 378" style="enable-background:new 0 0 686 378;" xml:space="preserve">
<style type="text/css">
	.st0{fill:#FFFFFF;}
</style>
	<g>
	<path class="st0" d="M264.1,140.01c-2.8,0-5.55,0.22-8.25,0.65c-2.7,0.43-5.38,1.02-8.05,1.75c-3.27,0.87-6.48,1.93-9.65,3.2
		c-3.17,1.27-6.38,2.37-9.65,3.3c0.6,0.54,1.15,1.07,1.65,1.6c0.5,0.54,0.98,1.07,1.45,1.6c2.8,3.8,4.13,7.97,4,12.5
		c0.2-0.53,0.4-1.1,0.6-1.7c0.2-0.6,0.4-1.17,0.6-1.7c1.07-2.8,2.25-5.52,3.55-8.15c1.3-2.63,3.18-4.92,5.65-6.85
		c0.2-0.2,0.4-0.22,0.6-0.05c0.2,0.17,0.2,0.38,0,0.65c-2.47,2.67-4.35,5.75-5.65,9.25c-1.3,3.5-2.52,6.95-3.65,10.35
		c-1.13,3.6-2.2,7.17-3.2,10.7c-1,3.53-1.97,7.1-2.9,10.7c-0.93,3.53-1.78,7.12-2.55,10.75c-0.77,3.63-1.82,7.15-3.15,10.55
		c-0.53,1.33-1.17,2.68-1.9,4.05c-0.73,1.37-1.65,2.6-2.75,3.7c-1.1,1.1-2.47,2-4.1,2.7c-1.63,0.7-3.58,1.05-5.85,1.05
		c-1.13,0-2.15-0.27-3.05-0.8c-0.9-0.54-1.67-1.23-2.3-2.1c-0.63-0.87-1.1-1.83-1.4-2.9c-0.3-1.07-0.38-2.13-0.25-3.2
		c0-0.13,0.05-0.18,0.15-0.15c0.1,0.03,0.15,0.12,0.15,0.25c0,1.2,0.25,2.23,0.75,3.1c0.5,0.87,1.15,1.57,1.95,2.1
		c0.8,0.53,1.72,0.93,2.75,1.2c1.03,0.27,2.08,0.33,3.15,0.2c2-0.07,3.67-0.6,5-1.6c1.33-1,2.45-2.23,3.35-3.7s1.63-3.1,2.2-4.9
		c0.57-1.8,1.12-3.6,1.65-5.4c0.93-3.47,1.83-6.92,2.7-10.35c0.87-3.43,1.77-6.88,2.7-10.35c0.33-1.4,0.7-2.8,1.1-4.2
		c0.4-1.4,0.8-2.77,1.2-4.1v-0.2c1.4-4.33,1.58-8.62,0.55-12.85c-1.03-4.23-3.25-7.85-6.65-10.85c-0.07-0.07-0.13-0.12-0.2-0.15
		c-0.07-0.03-0.13-0.08-0.2-0.15c-1.87,0.47-3.6,0.73-5.2,0.8c-0.73,0.07-1.58,0.13-2.55,0.2c-0.97,0.07-1.93,0.08-2.9,0.05
		c-0.97-0.03-1.9-0.17-2.8-0.4c-0.9-0.23-1.65-0.62-2.25-1.15c-0.53-0.46-0.83-0.92-0.9-1.35c-0.07-0.43,0.02-0.83,0.25-1.2
		c0.23-0.37,0.57-0.7,1-1c0.43-0.3,0.88-0.55,1.35-0.75c2.47-0.87,4.98-0.98,7.55-0.35c2.57,0.63,4.92,1.72,7.05,3.25
		c2.73-0.93,5.42-1.98,8.05-3.15c2.63-1.17,5.32-2.22,8.05-3.15c3.8-1.27,7.7-2.28,11.7-3.05c4-0.77,8-1.02,12-0.75
		c1.4,0.07,2.83,0.32,4.3,0.75c1.47,0.44,2.77,1.05,3.9,1.85c1.13,0.8,2.02,1.83,2.65,3.1c0.63,1.27,0.85,2.73,0.65,4.4
		c0,0.2-0.1,0.3-0.3,0.3s-0.3-0.1-0.3-0.3c-0.13-1.67-0.65-3-1.55-4s-2.02-1.77-3.35-2.3c-1.33-0.53-2.77-0.88-4.3-1.05
		C266.77,140.09,265.37,140.01,264.1,140.01z M220,149.31c0.73-0.13,1.5-0.28,2.3-0.45c0.8-0.17,1.57-0.38,2.3-0.65
		c-1.33-0.93-2.78-1.67-4.35-2.2c-1.57-0.53-3.15-0.8-4.75-0.8c-0.47,0-1.18,0.07-2.15,0.2c-0.97,0.13-1.62,0.4-1.95,0.8
		c-0.6,0.8-0.72,1.43-0.35,1.9c0.37,0.47,0.92,0.8,1.65,1c1.13,0.33,2.35,0.48,3.65,0.45C217.65,149.52,218.87,149.44,220,149.31z"
	/>
		<path class="st0" d="M277,186.91c0.13-0.13,0.25-0.13,0.35,0c0.1,0.13,0.08,0.27-0.05,0.4c-1.73,1.93-3.77,3.55-6.1,4.85
		c-2.33,1.3-4.77,2.25-7.3,2.85c-0.47,0.13-1.13,0.27-2,0.4c-0.87,0.13-1.72,0.18-2.55,0.15c-0.83-0.03-1.6-0.27-2.3-0.7
		c-0.7-0.43-1.15-1.15-1.35-2.15c-0.13-0.67-0.03-1.3,0.3-1.9c0.33-0.6,0.67-1.17,1-1.7c0.13-0.33,0.3-0.67,0.5-1
		c0.2-0.33,0.37-0.67,0.5-1c0.33-0.53,0.47-1.07,0.4-1.6c-0.07-0.53-0.33-0.93-0.8-1.2c-0.67,0.13-1.35,0.43-2.05,0.9
		c-0.7,0.47-1.38,1-2.05,1.6c-0.67,0.6-1.28,1.2-1.85,1.8c-0.57,0.6-0.98,1.1-1.25,1.5c-1.13,1.33-2.1,2.7-2.9,4.1
		c-0.2,0.33-0.4,0.68-0.6,1.05c-0.2,0.37-0.37,0.72-0.5,1.05l-0.6,2.4c-0.13,0.33-0.33,0.48-0.6,0.45c-0.27-0.03-0.4-0.21-0.4-0.55
		c0.13-3.93,0.7-7.77,1.7-11.5c1-3.73,2.27-7.4,3.8-11c1.33-3.13,2.87-6.25,4.6-9.35c1.73-3.1,3.77-5.92,6.1-8.45
		c0.87-0.87,1.87-1.7,3-2.5c1.13-0.8,2.37-1.07,3.7-0.8c1,0.2,1.73,0.69,2.2,1.45c0.47,0.77,0.73,1.62,0.8,2.55
		c0.07,1.4-0.17,2.8-0.7,4.2c-0.53,1.4-1.22,2.78-2.05,4.15c-0.83,1.37-1.73,2.67-2.7,3.9c-0.97,1.23-1.88,2.35-2.75,3.35
		c-1.93,2.33-4.02,4.48-6.25,6.45c-2.23,1.97-4.62,3.72-7.15,5.25c-0.27,0.8-0.52,1.62-0.75,2.45c-0.23,0.83-0.45,1.69-0.65,2.55
		c1.13-1.8,2.4-3.37,3.8-4.7c0.33-0.4,0.82-0.88,1.45-1.45c0.63-0.57,1.32-1.07,2.05-1.5c0.73-0.43,1.45-0.71,2.15-0.85
		c0.7-0.13,1.28,0.1,1.75,0.7c0.53,0.4,0.87,0.83,1,1.3c0.2,0.47,0.18,1.1-0.05,1.9c-0.23,0.8-0.52,1.63-0.85,2.5
		c-0.33,0.87-0.62,1.72-0.85,2.55c-0.23,0.83-0.28,1.52-0.15,2.05c0.53,0.4,1.28,0.58,2.25,0.55c0.97-0.03,1.97-0.17,3-0.4
		c1.03-0.23,2-0.5,2.9-0.8c0.9-0.3,1.58-0.55,2.05-0.75c1.6-0.67,3.13-1.46,4.6-2.4C274.27,189.08,275.67,188.04,277,186.91z
		 M251.8,178.41c-0.4,1.07-0.8,2.13-1.2,3.2c-0.4,1.07-0.77,2.17-1.1,3.3c2.53-1.8,4.98-3.75,7.35-5.85
		c2.37-2.1,4.52-4.42,6.45-6.95c1-1.33,2-2.77,3-4.3c1-1.53,1.77-3.13,2.3-4.8c0.33-0.73,0.6-1.62,0.8-2.65
		c0.2-1.03,0.03-1.92-0.5-2.65c-0.47-0.6-0.98-0.92-1.55-0.95c-0.57-0.03-1.15,0.08-1.75,0.35c-0.6,0.27-1.15,0.63-1.65,1.1
		s-0.92,0.87-1.25,1.2c-1.2,1.27-2.25,2.68-3.15,4.25c-0.9,1.57-1.78,3.12-2.65,4.65c-0.93,1.6-1.83,3.25-2.7,4.95
		C253.33,174.96,252.53,176.67,251.8,178.41z"/>
		<path class="st0" d="M305.2,186.81c0.13-0.2,0.3-0.23,0.5-0.1c0.2,0.13,0.23,0.3,0.1,0.5c-0.67,1.47-1.52,3.07-2.55,4.8
		c-1.03,1.73-2.22,3.33-3.55,4.8c-1.33,1.47-2.82,2.67-4.45,3.6c-1.63,0.93-3.38,1.3-5.25,1.1c-1.27-0.13-2.32-0.55-3.15-1.25
		c-0.83-0.7-1.48-1.55-1.95-2.55c-0.47-1-0.77-2.1-0.9-3.3c-0.13-1.2-0.1-2.4,0.1-3.6c-0.13,0.27-0.23,0.43-0.3,0.5
		c-0.33,0.8-0.73,1.6-1.2,2.4c-0.47,0.8-1.1,1.37-1.9,1.7c-0.93,0.4-1.72,0.45-2.35,0.15c-0.63-0.3-1.12-0.77-1.45-1.4
		c-0.33-0.63-0.55-1.38-0.65-2.25c-0.1-0.87-0.08-1.63,0.05-2.3c0.13-0.87,0.37-1.8,0.7-2.8c0.33-1,0.8-1.93,1.4-2.8
		c0.6-0.87,1.3-1.62,2.1-2.25c0.8-0.63,1.7-1.02,2.7-1.15c1.47-0.2,2.4,0.1,2.8,0.9c0.4,0.8,0.53,1.73,0.4,2.8
		c0.2,0,0.23,0.07,0.1,0.2c-0.13,0.54-0.27,0.97-0.4,1.3c0.2-0.2,0.33-0.37,0.4-0.5c0.33-0.33,0.73-0.38,1.2-0.15
		c0.47,0.23,0.6,0.58,0.4,1.05c-0.6,1.47-1.12,2.88-1.55,4.25c-0.43,1.37-0.48,2.88-0.15,4.55c0.33,1.6,1.03,2.9,2.1,3.9
		c1.07,1,2.47,1.33,4.2,1c1.47-0.27,2.83-0.87,4.1-1.8c1.27-0.93,2.42-2.03,3.45-3.3c1.03-1.27,1.97-2.62,2.8-4.05
		C303.88,189.33,304.6,188.01,305.2,186.81z M283,190.91c0.93-1.6,1.77-3.33,2.5-5.2c0.07-0.4,0.13-0.82,0.2-1.25
		c0.07-0.43,0.05-0.82-0.05-1.15c-0.1-0.33-0.3-0.6-0.6-0.8c-0.3-0.2-0.75-0.23-1.35-0.1c-0.67,0.13-1.25,0.48-1.75,1.05
		s-0.95,1.12-1.35,1.65c-1.13,1.67-1.77,3.53-1.9,5.6c0,0.4,0.03,0.83,0.1,1.3c0.07,0.47,0.2,0.87,0.4,1.2
		c0.2,0.33,0.48,0.53,0.85,0.6c0.37,0.07,0.85-0.13,1.45-0.6c0.33-0.2,0.63-0.55,0.9-1.05C282.67,191.66,282.87,191.24,283,190.91z"
		/>
		<path class="st0" d="M334.2,186.51c0.2-0.2,0.4-0.2,0.6,0c0.2,0.2,0.23,0.44,0.1,0.7c-1.67,1.93-3.45,3.73-5.35,5.4
		c-1.9,1.67-3.88,3.23-5.95,4.7c-0.67,0.47-1.37,0.92-2.1,1.35c-0.73,0.43-1.47,0.7-2.2,0.8c-0.73,0.1-1.43,0-2.1-0.3
		c-0.67-0.3-1.23-0.95-1.7-1.95c-0.53-1-0.72-2.02-0.55-3.05c0.17-1.03,0.38-2.05,0.65-3.05c0.13-0.73,0.3-1.47,0.5-2.2
		c0.2-0.73,0.37-1.46,0.5-2.2c0.07-0.27,0.15-0.62,0.25-1.05c0.1-0.43,0.2-0.88,0.3-1.35c0.1-0.47,0.17-0.92,0.2-1.35
		c0.03-0.43-0.02-0.78-0.15-1.05c-0.2-0.4-0.45-0.58-0.75-0.55c-0.3,0.03-0.6,0.17-0.9,0.4c-0.3,0.23-0.6,0.52-0.9,0.85
		c-0.3,0.33-0.52,0.6-0.65,0.8c-1.07,1.07-1.97,2.1-2.7,3.1c-0.8,0.94-1.57,1.94-2.3,3c-0.73,1.07-1.53,2.07-2.4,3
		c-0.27,0.4-0.53,0.37-0.8-0.1c-0.27,0.33-0.5,0.33-0.7,0c-0.53-0.73-0.78-1.48-0.75-2.25c0.03-0.77,0.15-1.62,0.35-2.55
		c0.13-0.87,0.35-1.75,0.65-2.65c0.3-0.9,0.78-1.68,1.45-2.35c0.2-0.27,0.5-0.32,0.9-0.15c0.4,0.17,0.57,0.42,0.5,0.75
		c-0.07,0.8-0.25,1.58-0.55,2.35c-0.3,0.77-0.52,1.55-0.65,2.35c-0.13,0.4-0.2,0.79-0.2,1.15c0,0.37-0.03,0.72-0.1,1.05
		c0.93-1.8,2.07-3.55,3.4-5.25c1.33-1.7,2.73-3.18,4.2-4.45c0.53-0.4,1.12-0.73,1.75-1c0.63-0.27,1.25-0.23,1.85,0.1
		c0.73,0.4,1.12,0.98,1.15,1.75c0.03,0.77,0.02,1.52-0.05,2.25c-0.13,1.33-0.32,2.62-0.55,3.85c-0.23,1.23-0.48,2.52-0.75,3.85
		c-0.2,0.73-0.4,1.53-0.6,2.4c-0.2,0.87-0.23,1.7-0.1,2.5c0.2,1.2,0.85,1.83,1.95,1.9c1.1,0.07,2.15-0.23,3.15-0.9
		c2.27-1.53,4.38-3.2,6.35-5C330.42,190.31,332.33,188.44,334.2,186.51z"/>
		<path class="st0" d="M364.5,186.61c0.13-0.13,0.25-0.15,0.35-0.05c0.1,0.1,0.08,0.22-0.05,0.35c-0.73,1.6-1.7,3.13-2.9,4.6
		c-1.2,1.47-2.47,2.8-3.8,4c-1.27,1.13-2.63,2.12-4.1,2.95c-1.47,0.83-3.07,1.35-4.8,1.55c-1.53,0.2-2.93,0.07-4.2-0.4
		c-1.27-0.47-2.38-1.13-3.35-2c-0.97-0.87-1.77-1.92-2.4-3.15c-0.63-1.23-1.08-2.55-1.35-3.95c-0.13-0.06-0.33-0.23-0.6-0.5
		c-0.67,0.94-1.33,1.83-2,2.7c-0.67,0.87-1.37,1.73-2.1,2.6c-0.2,0.4-0.38,0.82-0.55,1.25c-0.17,0.43-0.38,0.85-0.65,1.25
		c-0.07,0.13-0.18,0.18-0.35,0.15c-0.17-0.03-0.25-0.15-0.25-0.35c0.13-1.93,0.47-3.87,1-5.8c0.53-1.93,1.07-3.87,1.6-5.8
		c0.67-2,1.33-3.98,2-5.95c0.67-1.97,1.4-3.92,2.2-5.85c1.33-3.33,2.82-6.57,4.45-9.7c1.63-3.13,3.52-6.13,5.65-9
		c0.73-1,1.58-2.17,2.55-3.5c0.97-1.33,2.12-2.2,3.45-2.6c1.07-0.33,1.93-0.18,2.6,0.45c0.67,0.63,0.93,1.48,0.8,2.55
		c-0.13,1.4-0.58,2.87-1.35,4.4c-0.77,1.53-1.48,2.93-2.15,4.2c-1.6,3.33-3.4,6.54-5.4,9.6c-1.73,2.73-3.63,5.38-5.7,7.95
		c-2.07,2.57-4.3,4.92-6.7,7.05c-0.13,0.33-0.23,0.63-0.3,0.9c-0.07,0.27-0.17,0.54-0.3,0.8c-0.2,0.73-0.4,1.45-0.6,2.15
		c-0.2,0.7-0.43,1.42-0.7,2.15c0.67-0.93,1.35-1.87,2.05-2.8s1.42-1.83,2.15-2.7c0.47-0.6,0.95-1.27,1.45-2c0.5-0.73,1.07-1.4,1.7-2
		c0.63-0.6,1.32-1.03,2.05-1.3c0.73-0.27,1.53-0.23,2.4,0.1c0.13,0.13,0.13,0.27,0,0.4l0.1,0.1c0.53,0.73,0.63,1.6,0.3,2.6
		c-0.33,1-0.73,1.83-1.2,2.5c-0.6,0.94-1.33,1.79-2.2,2.55c-0.87,0.77-1.8,1.32-2.8,1.65c-0.2,0.13-0.42,0.2-0.65,0.2
		c-0.23,0-0.45,0-0.65,0c0.47,0.93,0.95,1.82,1.45,2.65c0.5,0.83,1.12,1.58,1.85,2.25c1.13,1.2,2.5,1.95,4.1,2.25
		c1.6,0.3,3.2,0.25,4.8-0.15c1.47-0.4,2.78-1.03,3.95-1.9c1.17-0.87,2.25-1.81,3.25-2.85c1-1.03,1.97-2.13,2.9-3.3
		C362.43,188.69,363.43,187.61,364.5,186.61z M339.4,176.91c-0.47,1.2-0.9,2.38-1.3,3.55c-0.4,1.17-0.8,2.35-1.2,3.55
		c2.33-2.53,4.57-5.12,6.7-7.75c2.13-2.63,4.07-5.45,5.8-8.45c2.07-3.47,3.87-7.07,5.4-10.8c0.07-0.2,0.25-0.65,0.55-1.35
		c0.3-0.7,0.53-1.43,0.7-2.2c0.17-0.77,0.15-1.4-0.05-1.9c-0.2-0.5-0.73-0.62-1.6-0.35c-0.8,0.33-1.6,1.08-2.4,2.25
		c-0.8,1.17-1.43,2.08-1.9,2.75c-2.33,3.2-4.37,6.53-6.1,10C342.27,169.67,340.73,173.24,339.4,176.91z M344.4,181.91
		c-1.33,0.67-2.48,1.72-3.45,3.15c-0.97,1.43-1.85,2.65-2.65,3.65c-0.07,0.07-0.1,0.13-0.1,0.2c0.4,0.2,0.83,0.22,1.3,0.05
		c0.47-0.17,0.93-0.42,1.4-0.75c0.47-0.33,0.9-0.68,1.3-1.05c0.4-0.37,0.7-0.65,0.9-0.85c0.53-0.73,1.07-1.57,1.6-2.5
		c0.33-0.33,0.5-0.63,0.5-0.9C345.27,182.11,345,181.77,344.4,181.91z"/>
		<path class="st0" d="M439.8,186.61c0.13-0.07,0.25-0.05,0.35,0.05c0.1,0.1,0.08,0.22-0.05,0.35c-1.67,1.73-3.5,3.22-5.5,4.45
		c-2,1.23-4,2.45-6,3.65c-1.13,0.67-2.27,1.3-3.4,1.9c-1.13,0.6-2.27,1.23-3.4,1.9c-0.4,2.33-0.73,4.67-1,7c-0.27,2.33-0.6,4.67-1,7
		c-0.27,1.8-0.65,3.78-1.15,5.95c-0.5,2.17-1.18,4.25-2.05,6.25c-0.87,2-1.98,3.77-3.35,5.3c-1.37,1.53-3.05,2.6-5.05,3.2
		c-1.67,0.47-3.32,0.4-4.95-0.2c-1.63-0.6-2.98-1.57-4.05-2.9c-1.27-1.53-1.87-3.3-1.8-5.3c0.07-2,0.37-3.9,0.9-5.7
		c1.27-3.93,3.33-7.38,6.2-10.35c2.87-2.97,6-5.55,9.4-7.75c2-1.33,4.13-2.57,6.4-3.7c0.27-1.4,0.57-2.83,0.9-4.3
		c0.33-1.46,0.77-2.9,1.3-4.3c-0.27,0.33-0.52,0.65-0.75,0.95c-0.23,0.3-0.45,0.62-0.65,0.95c-0.33,0.47-0.72,0.98-1.15,1.55
		c-0.43,0.57-0.9,1.08-1.4,1.55c-0.5,0.47-1.03,0.87-1.6,1.2c-0.57,0.33-1.18,0.47-1.85,0.4c-1.47-0.07-2.3-0.73-2.5-2
		c-0.2-1.27-0.08-2.67,0.35-4.2c0.43-1.53,1.03-3.03,1.8-4.5c0.77-1.46,1.38-2.46,1.85-3c0.4-0.4,0.87-0.42,1.4-0.05
		c0.53,0.37,0.63,0.82,0.3,1.35c-0.73,1.07-1.37,2.1-1.9,3.1c-0.53,1-0.93,2.1-1.2,3.3c-0.13,0.53-0.25,1.08-0.35,1.65
		c-0.1,0.57-0.08,1.12,0.05,1.65c0.13,0.54,0.33,0.88,0.6,1.05c0.27,0.17,0.55,0.2,0.85,0.1c0.3-0.1,0.62-0.28,0.95-0.55
		c0.33-0.27,0.6-0.53,0.8-0.8c1.73-1.73,3.25-3.63,4.55-5.7c1.3-2.07,2.52-4.17,3.65-6.3c0.13-0.27,0.33-0.33,0.6-0.2
		c0.27,0.13,0.33,0.33,0.2,0.6c0.07-0.13,0.13-0.22,0.2-0.25s0.13-0.08,0.2-0.15c0.2-0.2,0.43-0.22,0.7-0.05
		c0.27,0.17,0.33,0.42,0.2,0.75c-0.73,1.27-1.45,2.5-2.15,3.7c-0.7,1.2-1.32,2.47-1.85,3.8c-0.53,1.27-0.97,2.54-1.3,3.8
		c-0.33,1.27-0.63,2.57-0.9,3.9v0.1c0.8-0.4,1.62-0.82,2.45-1.25c0.83-0.43,1.68-0.85,2.55-1.25c2.2-1.13,4.33-2.35,6.4-3.65
		C435.66,189.36,437.73,188.01,439.8,186.61z M419.7,201.61c0.07-0.27,0.12-0.53,0.15-0.8c0.03-0.27,0.08-0.53,0.15-0.8
		c-0.67,0.33-1.32,0.7-1.95,1.1c-0.63,0.4-1.28,0.8-1.95,1.2c-1.67,1-3.3,2.1-4.9,3.3s-3.1,2.5-4.5,3.9
		c-1.4,1.4-2.65,2.92-3.75,4.55c-1.1,1.63-1.98,3.38-2.65,5.25c-0.4,1.07-0.7,2.17-0.9,3.3c-0.2,1.13-0.23,2.23-0.1,3.3
		c0.13,1.07,0.47,2.07,1,3c0.54,0.93,1.37,1.7,2.5,2.3c1.07,0.6,2.1,0.9,3.1,0.9s1.97-0.22,2.9-0.65c0.93-0.44,1.79-1.02,2.55-1.75
		c0.77-0.73,1.45-1.57,2.05-2.5c1.2-1.87,2.15-3.85,2.85-5.95c0.7-2.1,1.25-4.25,1.65-6.45c0.4-2.2,0.72-4.42,0.95-6.65
		C419.08,205.92,419.36,203.74,419.7,201.61z"/>
		<path class="st0" d="M467.5,186.71c0.13-0.2,0.28-0.22,0.45-0.05c0.17,0.17,0.18,0.35,0.05,0.55c-2.27,2.47-5.02,4.1-8.25,4.9
		c-3.23,0.8-6.55,0.97-9.95,0.5c-0.4-0.07-0.83-0.15-1.3-0.25c-0.47-0.1-0.9-0.22-1.3-0.35c-0.47,0.54-0.95,1-1.45,1.4
		s-1.05,0.73-1.65,1c-0.93,0.33-1.85,0.33-2.75,0c-0.9-0.33-1.62-0.96-2.15-1.9c-0.73-1.27-0.88-2.52-0.45-3.75
		c0.43-1.23,1.02-2.38,1.75-3.45l0.1-0.1c-0.2-0.87-0.13-1.9,0.2-3.1c0.27-0.93,0.78-1.73,1.55-2.4c0.77-0.67,1.62-1.13,2.55-1.4
		c0.93-0.27,1.87-0.25,2.8,0.05c0.93,0.3,1.7,0.92,2.3,1.85c0.73,1.13,0.97,2.4,0.7,3.8c-0.27,1.4-0.67,2.67-1.2,3.8
		c-0.2,0.47-0.4,0.93-0.6,1.4c-0.2,0.47-0.47,0.93-0.8,1.4c1.2,0.4,2.42,0.65,3.65,0.75c1.23,0.1,2.38,0.12,3.45,0.05
		c2.33-0.27,4.55-0.7,6.65-1.3C463.95,189.51,465.83,188.37,467.5,186.71z M445,192.01c0.13-0.13,0.25-0.25,0.35-0.35
		c0.1-0.1,0.22-0.21,0.35-0.35c-1-0.53-1.92-1.18-2.75-1.95c-0.83-0.77-1.45-1.62-1.85-2.55c-0.33,0.6-0.6,1.2-0.8,1.8
		s-0.27,1.27-0.2,2c0.07,0.67,0.28,1.18,0.65,1.55c0.37,0.37,0.78,0.62,1.25,0.75c0.47,0.13,0.97,0.12,1.5-0.05
		C444.03,192.69,444.53,192.41,445,192.01z M445.3,180.11c-1.33,0.33-2.2,1.07-2.6,2.2c-0.4,1.13-0.43,2.3-0.1,3.5
		c0.33,1,0.87,1.83,1.6,2.5c0.73,0.67,1.57,1.23,2.5,1.7c0.47-0.73,0.87-1.48,1.2-2.25c0.33-0.77,0.6-1.52,0.8-2.25
		c0.2-0.67,0.28-1.35,0.25-2.05c-0.03-0.7-0.17-1.33-0.4-1.9c-0.23-0.57-0.62-1-1.15-1.3C446.86,179.96,446.16,179.91,445.3,180.11z
		"/>
		<path class="st0" d="M497.4,186.71c0.13-0.2,0.32-0.23,0.55-0.1c0.23,0.13,0.28,0.3,0.15,0.5c-1,2.13-2.17,4.18-3.5,6.15
		c-1.33,1.97-2.87,3.79-4.6,5.45c-1.33,1.27-2.8,2.32-4.4,3.15c-1.6,0.83-3.33,1.08-5.2,0.75c-1.93-0.33-3.35-1.22-4.25-2.65
		c-0.9-1.43-1.25-3.05-1.05-4.85c0.13-1.47,0.32-2.95,0.55-4.45c0.23-1.5,0.62-2.98,1.15-4.45c-0.53,0.93-1.12,1.83-1.75,2.7
		c-0.63,0.87-1.25,1.7-1.85,2.5c-0.54,0.73-1.2,1.37-2,1.9c-0.8,0.53-1.7,0.63-2.7,0.3c-1.07-0.4-1.68-1.15-1.85-2.25
		c-0.17-1.1-0.07-2.27,0.3-3.5c0.37-1.23,0.88-2.42,1.55-3.55c0.67-1.13,1.3-1.93,1.9-2.4c0.27-0.2,0.58-0.21,0.95-0.05
		c0.37,0.17,0.48,0.45,0.35,0.85c-0.33,0.8-0.72,1.58-1.15,2.35c-0.43,0.77-0.78,1.58-1.05,2.45c-0.13,0.4-0.25,0.94-0.35,1.6
		c-0.1,0.67-0.13,1.27-0.1,1.8c0.03,0.54,0.23,0.9,0.6,1.1c0.37,0.2,0.95,0.07,1.75-0.4c0.53-0.27,0.95-0.68,1.25-1.25
		c0.3-0.57,0.62-1.08,0.95-1.55c0.33-0.53,0.67-1.03,1-1.5c0.33-0.47,0.67-0.93,1-1.4c0.53-0.73,1.07-1.48,1.6-2.25
		c0.53-0.77,1.1-1.45,1.7-2.05c0.07-0.13,0.13-0.18,0.2-0.15c0.07,0.03,0.1,0.08,0.1,0.15c0.4-0.2,0.78-0.15,1.15,0.15
		c0.37,0.3,0.45,0.72,0.25,1.25c-0.33,0.73-0.73,1.7-1.2,2.9c-0.47,1.2-0.87,2.48-1.2,3.85c-0.33,1.37-0.58,2.75-0.75,4.15
		c-0.17,1.4-0.13,2.65,0.1,3.75c0.23,1.1,0.73,2,1.5,2.7c0.77,0.7,1.92,1.02,3.45,0.95c1.87-0.07,3.58-0.75,5.15-2.05
		c1.57-1.3,2.92-2.62,4.05-3.95c1.13-1.27,2.18-2.63,3.15-4.1C495.81,189.74,496.66,188.24,497.4,186.71z"/>
</g>
</svg>
