<svg version="1.1" xmlns="http://www.w3.org/2000/svg" width="350" height="200">
	<path class="cls-1" d="M611.54,369a9.8,9.8,0,0,0-6.4-.66,15.54,15.54,0,0,0-5.54,2.74,23.73,23.73,0,0,0-4.57,4.7,57.87,57.87,0,0,0-3.46,5.22,163.73,163.73,0,0,0-11,23q-4.18,10.57-7.31,21.21t-6.13,21.33q-1.44,5.49-3,10.77T561,468a22.54,22.54,0,0,1-1,2.74,8.3,8.3,0,0,1-1.63,2.41,4,4,0,0,1-2.29,1.18,4.16,4.16,0,0,1-2.87-.85,15,15,0,0,1-5.09-6.85,42.14,42.14,0,0,1-2.35-8.42,47.9,47.9,0,0,1-.45-10.31q.32-5.22,1-10.31.65-5.47,1.69-10.7t2.48-10.44A269.15,269.15,0,0,1,531.15,452q-1.83,2.86-3.72,5.74t-4,5.61a11.44,11.44,0,0,1-2.61,2.74,4.32,4.32,0,0,1-3.66.52,6.07,6.07,0,0,1-4.11-2.87A9.85,9.85,0,0,1,512,459a22.83,22.83,0,0,1,.66-5.35q.64-2.73,1.17-4.83a212.52,212.52,0,0,1,9.27-26.62q5.48-12.92,10.31-26.23,1.3-3.25,2.41-6.53t2.15-6.65c.27-1,.63-2.28,1.11-3.72a21.54,21.54,0,0,0,1-4.37,12.68,12.68,0,0,0-.13-4.11,4.71,4.71,0,0,0-2.22-3.07,7.41,7.41,0,0,0-5.87-.72,20.74,20.74,0,0,0-5.61,2.29,32.62,32.62,0,0,0-5.22,4.11,41.66,41.66,0,0,0-4.31,4.89,54.67,54.67,0,0,0-10.18,24.8,35.57,35.57,0,0,0-.39,6.85,29.84,29.84,0,0,0,1.05,6.78,24.84,24.84,0,0,0,2.67,6.27,17,17,0,0,0,4.63,5c.18.09.2.24.07.46s-.28.24-.46.06a20.37,20.37,0,0,1-8.68-9,25.57,25.57,0,0,1-2.54-12.4,40.67,40.67,0,0,1,3.46-14.09A88.87,88.87,0,0,1,513.14,380a52,52,0,0,1,7.05-8.61,22.08,22.08,0,0,1,9.52-5.75A13,13,0,0,1,534,365a10.46,10.46,0,0,1,4,.84,7.14,7.14,0,0,1,2.94,2.48,8,8,0,0,1,1.3,4.18,19.29,19.29,0,0,1-.78,6.92c-.7,2.35-1.35,4.56-2,6.65-.7,2.35-1.39,4.68-2.09,7s-1.48,4.59-2.35,6.86q-2.47,6.91-5.22,13.63t-5.35,13.51q-2.61,6.92-5,13.9t-4,14.16a33.87,33.87,0,0,0-.59,3.91,6,6,0,0,0,.85,3.79,4.34,4.34,0,0,0,2.41,1.89,3.21,3.21,0,0,0,2.94-.59,6.46,6.46,0,0,0,1.3-1.43c.35-.53.74-1.09,1.18-1.7q2.08-3,4-6l3.92-6a239.82,239.82,0,0,0,13.9-26.16q6.06-13.38,11.42-27.21a.72.72,0,0,1,1-.52,2.07,2.07,0,0,0,.26-.79.6.6,0,0,1,.79-.19c.34.13.43.37.26.72a214.42,214.42,0,0,0-6.92,24.46,189.61,189.61,0,0,0-3.79,25.13q-.39,4.69-.39,9.39a30.71,30.71,0,0,0,1.44,9.27,23.21,23.21,0,0,0,2.35,5.74,9.59,9.59,0,0,0,.65,1.11,6.45,6.45,0,0,0,.78,1,11.92,11.92,0,0,0,2,.85,2.71,2.71,0,0,0,2.09.06,2.8,2.8,0,0,0,1.43-1.63,21.42,21.42,0,0,0,.92-2.67c.26-1,.48-1.92.65-2.88a17.13,17.13,0,0,1,.52-2.21q2.61-10.19,5-20.36t5.28-20.36q3-10.05,6.66-19.77a149,149,0,0,1,8.61-18.86,68.26,68.26,0,0,1,4.31-7.05,30.43,30.43,0,0,1,5.81-6.39,16.06,16.06,0,0,1,7.11-3.39c2.61-.53,5.35.13,8.22,1.95a.43.43,0,0,1,.13.66C611.88,369.12,611.71,369.16,611.54,369Z" transform="translate(-86.59 -307.73)"/>
	<path class="cls-1" d="M621.58,437.76c.18-.17.33-.2.46-.06s.11.28-.06.45a41.22,41.22,0,0,1-24,11.62,29.69,29.69,0,0,1-6.2.13,11.07,11.07,0,0,1-5.8-2.22,7.44,7.44,0,0,1-2.68-4.18,8.45,8.45,0,0,1,.33-5c-.18-.17-.13-.26.13-.26a.53.53,0,0,1,.13-.39,14.48,14.48,0,0,1,3.26-4.5,11.91,11.91,0,0,1,4.7-2.94,6.24,6.24,0,0,1,3.65.07,3.13,3.13,0,0,1,2.35,2.54,4,4,0,0,1-.13,2.29,7.06,7.06,0,0,1-1.17,2.08,9.12,9.12,0,0,1-1.76,1.7,9.8,9.8,0,0,1-1.9,1.11,8.67,8.67,0,0,1-6.26.26c-.26,2.7,1,4.87,3.65,6.53a13.46,13.46,0,0,0,8.55,1.17,52.22,52.22,0,0,0,8.55-2.09A42.72,42.72,0,0,0,621.58,437.76Zm-30.4-4.7a14,14,0,0,0-2.87,2.94,9.07,9.07,0,0,0-1.57,3.46,7.85,7.85,0,0,0,3.85.32,8.23,8.23,0,0,0,3.72-1.76,7.11,7.11,0,0,0,1.17-1.17,5.49,5.49,0,0,0,1-1.7,2.74,2.74,0,0,0,.07-1.76,2.35,2.35,0,0,0-1.44-1.37,2.86,2.86,0,0,0-2.15.06A7.61,7.61,0,0,0,591.18,433.06Z" transform="translate(-86.59 -307.73)"/>
	<path class="cls-1" d="M653.82,437.5c.26-.35.54-.43.85-.26a.52.52,0,0,1,.19.78,113.31,113.31,0,0,1-7.5,9.53,63.4,63.4,0,0,1-8.81,8.35,16.33,16.33,0,0,1-3.85,2.28,11.22,11.22,0,0,1-4.05.92,9.17,9.17,0,0,1-4-.79,8.82,8.82,0,0,1-3.52-2.93,13.42,13.42,0,0,1-2.09-4.24,19.25,19.25,0,0,1-.72-4.64,36.46,36.46,0,0,1,.2-4.76c.18-1.61.39-3.15.65-4.63a82.2,82.2,0,0,1,5.35-20.23,90.2,90.2,0,0,1,4.18-9.59,73.85,73.85,0,0,1,5.35-8.94c.69-1.05,1.45-2.22,2.28-3.52a28.6,28.6,0,0,1,2.74-3.66,16.59,16.59,0,0,1,3.27-2.87,7.81,7.81,0,0,1,4-1.3c2.08-.09,3.61.39,4.56,1.43a6.36,6.36,0,0,1,1.57,4.11,20,20,0,0,1-.59,5.61,59.16,59.16,0,0,1-1.76,6.07,54.21,54.21,0,0,1-2.22,5.48c-.78,1.66-1.39,2.87-1.82,3.66A67.36,67.36,0,0,1,638,427.78a44.26,44.26,0,0,1-14.1,10.37,59.09,59.09,0,0,0-.78,8,13.34,13.34,0,0,0,2,7.63,7,7,0,0,0,4,3.27,8,8,0,0,0,4.5-.27,15.6,15.6,0,0,0,4.44-2.41c1.44-1.09,2.76-2.15,4-3.2a52.93,52.93,0,0,0,6.27-6.59Q651.2,441,653.82,437.5Zm-25.71-16.44a79.31,79.31,0,0,0-3.92,15.79V437a50.39,50.39,0,0,0,12.47-9.72,60.28,60.28,0,0,0,9.2-13,61.81,61.81,0,0,0,5.48-13.57c.34-1.22.72-2.57,1.11-4.05a7.51,7.51,0,0,0,.06-4,3.32,3.32,0,0,0-1.37-2.16,3.85,3.85,0,0,0-2.22-.52,5.68,5.68,0,0,0-2.41.72,9,9,0,0,0-2,1.43,30.64,30.64,0,0,0-5.28,6.4c-1.53,2.44-2.94,4.83-4.25,7.18A87.83,87.83,0,0,0,628.11,421.06Z" transform="translate(-86.59 -307.73)"/>
	<path class="cls-1" d="M662,438.94q-.27.12-.39,0c-.09-.09-.09-.22,0-.4a8.42,8.42,0,0,0,1.82-2.67,3.23,3.23,0,0,0,.13-3.2q-.92-1.69-1.89-1.11a14.13,14.13,0,0,0-1.89,1.37,12.76,12.76,0,0,0-3.92,6.4,9.53,9.53,0,0,0-.13,4.11,10.26,10.26,0,0,0,1.44,3.65,9.06,9.06,0,0,0,2.74,2.74,8.87,8.87,0,0,0,3.91,1.37,19.54,19.54,0,0,0,7.25-.58,25.06,25.06,0,0,0,6.78-3,36,36,0,0,0,5.94-4.69,37.23,37.23,0,0,0,4.7-5.55c.17-.35.43-.41.78-.2a.59.59,0,0,1,.26.85,36.78,36.78,0,0,1-7.57,8.29,33.72,33.72,0,0,1-9.91,5.55,25.57,25.57,0,0,1-5.22,1.3,18,18,0,0,1-5.29,0,10.94,10.94,0,0,1-4.63-1.83,10.19,10.19,0,0,1-3.39-4.17,12.91,12.91,0,0,1-1.11-5,14.82,14.82,0,0,1,.84-5.28,15.54,15.54,0,0,1,2.61-4.7,12.14,12.14,0,0,1,4.05-3.26,5.34,5.34,0,0,1,3.52-.39,2.85,2.85,0,0,1,2.22,2.61,6.09,6.09,0,0,1-.85,4.3A15.46,15.46,0,0,1,662,438.94Z" transform="translate(-86.59 -307.73)"/>
	<path class="cls-1" d="M724.68,437.5a.34.34,0,0,1,.59-.07.53.53,0,0,1,.06.72,21.32,21.32,0,0,1-10.77,6.4,34.25,34.25,0,0,1-13,.65c-.52-.09-1.09-.2-1.7-.33a16.49,16.49,0,0,1-1.69-.45,14.69,14.69,0,0,1-1.9,1.82,9.59,9.59,0,0,1-2.15,1.31,5.16,5.16,0,0,1-3.59,0,5.33,5.33,0,0,1-2.8-2.48,5.62,5.62,0,0,1-.59-4.89,19.31,19.31,0,0,1,2.28-4.51l.13-.13a8.33,8.33,0,0,1,.26-4,6.52,6.52,0,0,1,2-3.14,8.82,8.82,0,0,1,3.32-1.82,6.18,6.18,0,0,1,3.66.06,5.54,5.54,0,0,1,3,2.42,6.52,6.52,0,0,1,.91,5,21.2,21.2,0,0,1-1.56,5c-.26.6-.52,1.21-.79,1.82a10,10,0,0,1-1,1.83,20.26,20.26,0,0,0,4.76,1,31.22,31.22,0,0,0,4.51.06,53.23,53.23,0,0,0,8.67-1.69A16.92,16.92,0,0,0,724.68,437.5Zm-29.36,6.92.45-.46.46-.46a17,17,0,0,1-3.59-2.54,9.64,9.64,0,0,1-2.41-3.33,13.46,13.46,0,0,0-1.05,2.35,6.32,6.32,0,0,0-.26,2.61,3.19,3.19,0,0,0,.85,2,3.69,3.69,0,0,0,1.63,1,3.38,3.38,0,0,0,2-.06A5.68,5.68,0,0,0,695.32,444.42Zm.39-15.53a4.46,4.46,0,0,0-3.4,2.87,7.5,7.5,0,0,0-.13,4.57,7.59,7.59,0,0,0,2.09,3.26,14.42,14.42,0,0,0,3.26,2.22,21.46,21.46,0,0,0,2.61-5.88,8,8,0,0,0,.33-2.67,7.39,7.39,0,0,0-.52-2.48,3.41,3.41,0,0,0-1.5-1.7A3.8,3.8,0,0,0,695.71,428.89Z" transform="translate(-86.59 -307.73)"/>
	<path class="cls-1" d="M774.4,437.76a.37.37,0,0,1,.52.52q-2.22,2.36-4.7,4.57a35.05,35.05,0,0,1-5.28,3.92,29.65,29.65,0,0,1-5.94,2.74,18.32,18.32,0,0,1-6.53.91,7.94,7.94,0,0,1-6.13-2.61q-2.08-2.47-1-6.53c.08-.17.21-.5.39-1s.35-1,.52-1.5.3-1,.39-1.38a1.29,1.29,0,0,0,0-.84.94.94,0,0,0-1.17-.26,5.47,5.47,0,0,0-1.57.84,9.88,9.88,0,0,0-1.43,1.31,11.25,11.25,0,0,0-.92,1.11,26.8,26.8,0,0,0-3.13,4.37q-1.3,2.28-2.48,4.76c0,.18-.13.26-.39.26a.63.63,0,0,1-.2.46q-.19.19-.45-.06a3.11,3.11,0,0,1-1.83-2.74,10.63,10.63,0,0,1,.65-3.53c.26-.61.68-1.45,1.24-2.54a35.48,35.48,0,0,0,1.57-3.46,17,17,0,0,0,1-3.46,3.14,3.14,0,0,0-.66-2.68,6.77,6.77,0,0,0-1.82,1.24,14.12,14.12,0,0,0-1.7,1.9c-.52.69-1,1.39-1.43,2.08s-.83,1.31-1.18,1.83l-2.28,3.33q-1.11,1.63-2.16,3.33a1,1,0,0,1-.06.39.51.51,0,0,0-.07.26.92.92,0,0,1-.52.91.66.66,0,0,1-.91-.26,3.84,3.84,0,0,1-1.24-3.26,21.41,21.41,0,0,1,.72-3.65,15.67,15.67,0,0,1,.39-1.77c.17-.65.37-1.28.58-1.89a6.45,6.45,0,0,1,.92-1.69,2.84,2.84,0,0,1,1.37-1.05c.26-.08.48.05.65.39a2.66,2.66,0,0,1,.26,2.55c-.35.91-.65,1.8-.91,2.67a16.72,16.72,0,0,0-.78,3.79A43.7,43.7,0,0,1,729,437.5a46.18,46.18,0,0,1,2.88-4.31,15.42,15.42,0,0,1,2.87-2.67,3.2,3.2,0,0,1,3.65-.2c.17.09.24.18.2.26a.21.21,0,0,1-.2.13h-.26a2.09,2.09,0,0,1,1.57,1.57,4.91,4.91,0,0,1,.13,2.48,18.49,18.49,0,0,1-.85,3.33c-.39,1.09-.81,2.11-1.24,3.06a28.71,28.71,0,0,1-1.7,3.14,5.28,5.28,0,0,0-.91,3.26,30.66,30.66,0,0,1,4.3-7.83c.79-1,1.66-2,2.61-3.2a10,10,0,0,1,3.27-2.67,2.69,2.69,0,0,1,2.35-.2,3.54,3.54,0,0,1,1.69,1.76,4.92,4.92,0,0,1,.2,3.92,27.46,27.46,0,0,0-1.11,3.78q-1.3,4.83,3.39,5.61a12.73,12.73,0,0,0,5.09-.26,36.14,36.14,0,0,0,4.44-1.63,27.58,27.58,0,0,0,4.18-2.28c1.56-1,3.13-2,4.69-3.07A22.93,22.93,0,0,0,774.4,437.76Z" transform="translate(-86.59 -307.73)"/>
	<path class="cls-1" d="M811.72,437.76c.17-.17.33-.2.46-.06s.11.28-.07.45a41.19,41.19,0,0,1-24,11.62,29.71,29.71,0,0,1-6.2.13,11.1,11.1,0,0,1-5.81-2.22,7.48,7.48,0,0,1-2.67-4.18,8.45,8.45,0,0,1,.33-5c-.18-.17-.13-.26.13-.26a.53.53,0,0,1,.13-.39,14.48,14.48,0,0,1,3.26-4.5,11.84,11.84,0,0,1,4.7-2.94,6.24,6.24,0,0,1,3.65.07,3.13,3.13,0,0,1,2.35,2.54,4.14,4.14,0,0,1-.13,2.29,7.06,7.06,0,0,1-1.17,2.08,9.17,9.17,0,0,1-1.77,1.7,9.46,9.46,0,0,1-1.89,1.11,8.67,8.67,0,0,1-6.26.26c-.26,2.7,1,4.87,3.65,6.53A13.46,13.46,0,0,0,789,448.2a52.47,52.47,0,0,0,8.55-2.09A42.72,42.72,0,0,0,811.72,437.76Zm-30.41-4.7a14.25,14.25,0,0,0-2.87,2.94,9.2,9.2,0,0,0-1.56,3.46,7.83,7.83,0,0,0,3.85.32,8.23,8.23,0,0,0,3.72-1.76,8,8,0,0,0,1.17-1.17,5.49,5.49,0,0,0,1-1.7,2.74,2.74,0,0,0,.07-1.76,2.38,2.38,0,0,0-1.44-1.37,2.86,2.86,0,0,0-2.15.06A7.92,7.92,0,0,0,781.31,433.06Z" transform="translate(-86.59 -307.73)"/>
	<path class="cls-1" d="M534.74,5819.42a52.38,52.38,0,0,0-8.25.65,77.56,77.56,0,0,0-8,1.75,85.19,85.19,0,0,0-9.65,3.2,98.89,98.89,0,0,1-9.65,3.3c.6.54,1.15,1.07,1.65,1.6s1,1.07,1.45,1.6a19.62,19.62,0,0,1,4,12.5c.2-.53.4-1.1.6-1.7s.4-1.16.6-1.69c1.06-2.81,2.25-5.52,3.55-8.16a19.71,19.71,0,0,1,5.65-6.84.4.4,0,0,1,.6-.06c.2.17.2.39,0,.65a27.63,27.63,0,0,0-5.65,9.25q-1.95,5.25-3.65,10.35-1.71,5.4-3.2,10.7t-2.9,10.7q-1.41,5.31-2.55,10.75a66.56,66.56,0,0,1-3.15,10.55,40.82,40.82,0,0,1-1.9,4,15.83,15.83,0,0,1-2.75,3.7,12.78,12.78,0,0,1-4.1,2.7,14.84,14.84,0,0,1-5.85,1.05,5.79,5.79,0,0,1-3.05-.8,7.64,7.64,0,0,1-2.3-2.09,8.92,8.92,0,0,1-1.4-2.91,7.9,7.9,0,0,1-.25-3.2c0-.13,0-.18.15-.14s.15.11.15.25a6.07,6.07,0,0,0,.75,3.09,6.15,6.15,0,0,0,2,2.1,8.57,8.57,0,0,0,2.75,1.2,8.14,8.14,0,0,0,3.15.2,8.56,8.56,0,0,0,5-1.59,13.25,13.25,0,0,0,3.35-3.71,21.91,21.91,0,0,0,2.2-4.9q.84-2.7,1.65-5.39,1.39-5.21,2.7-10.36t2.7-10.35c.33-1.4.7-2.79,1.1-4.2s.8-2.76,1.2-4.09v-.21a23.2,23.2,0,0,0,.55-12.85,20.83,20.83,0,0,0-6.65-10.85l-.2-.15a.55.55,0,0,1-.2-.15,25.35,25.35,0,0,1-5.2.8c-.74.07-1.59.14-2.55.2a25.56,25.56,0,0,1-2.9.05,12.28,12.28,0,0,1-2.8-.4,5.23,5.23,0,0,1-2.25-1.15,2.3,2.3,0,0,1-.9-1.35,1.61,1.61,0,0,1,.25-1.19,3.28,3.28,0,0,1,1-1,6.42,6.42,0,0,1,1.35-.75,13,13,0,0,1,7.55-.36,20.6,20.6,0,0,1,7.05,3.25q4.1-1.4,8.05-3.14t8-3.16a93,93,0,0,1,11.7-3.05,47.52,47.52,0,0,1,12-.75,18.59,18.59,0,0,1,4.3.75,13.51,13.51,0,0,1,3.9,1.85,8.34,8.34,0,0,1,2.65,3.11,7.61,7.61,0,0,1,.65,4.39.3.3,0,1,1-.6,0,6.63,6.63,0,0,0-1.55-4,9,9,0,0,0-3.35-2.3,16.61,16.61,0,0,0-4.3-1.05A41.16,41.16,0,0,0,534.74,5819.42Zm-44.1,9.3c.73-.13,1.5-.28,2.3-.45a16.92,16.92,0,0,0,2.3-.64,17.48,17.48,0,0,0-4.35-2.21,14.74,14.74,0,0,0-4.75-.79,17.46,17.46,0,0,0-2.15.19,3,3,0,0,0-1.95.81c-.6.79-.72,1.43-.35,1.89a3,3,0,0,0,1.65,1,11.4,11.4,0,0,0,3.65.45C488.29,5828.94,489.5,5828.86,490.64,5828.72Z" transform="translate(-86.59 -307.73)"/>
	<path class="cls-1" d="M547.64,5866.32c.13-.13.25-.13.35,0a.28.28,0,0,1,0,.4,23.48,23.48,0,0,1-6.1,4.85,28.16,28.16,0,0,1-7.3,2.85,15.77,15.77,0,0,1-2,.4,12.3,12.3,0,0,1-2.55.15,4.53,4.53,0,0,1-2.3-.7,3.06,3.06,0,0,1-1.35-2.14,2.66,2.66,0,0,1,.3-1.91c.33-.59.66-1.16,1-1.7a7.17,7.17,0,0,1,.5-1,7.18,7.18,0,0,0,.5-1,2.45,2.45,0,0,0,.4-1.6,1.57,1.57,0,0,0-.8-1.2,5.83,5.83,0,0,0-2,.91,17.65,17.65,0,0,0-2.05,1.59c-.67.6-1.29,1.2-1.85,1.8a12.82,12.82,0,0,0-1.25,1.5,26.56,26.56,0,0,0-2.9,4.11c-.2.33-.4.68-.6,1a9.79,9.79,0,0,0-.5,1.05l-.6,2.41c-.14.33-.34.48-.6.44s-.4-.21-.4-.55a50.87,50.87,0,0,1,1.7-11.5,82.25,82.25,0,0,1,3.8-11,95,95,0,0,1,4.6-9.35,44.18,44.18,0,0,1,6.1-8.45,22.57,22.57,0,0,1,3-2.5,4.62,4.62,0,0,1,3.7-.8,3.2,3.2,0,0,1,2.2,1.46,5.67,5.67,0,0,1,.8,2.54,10.57,10.57,0,0,1-.7,4.21,26.08,26.08,0,0,1-2,4.14,42.08,42.08,0,0,1-2.7,3.9c-1,1.24-1.89,2.35-2.75,3.35a57,57,0,0,1-6.25,6.45,49.93,49.93,0,0,1-7.15,5.25c-.27.8-.52,1.62-.75,2.45s-.45,1.69-.65,2.55a24.47,24.47,0,0,1,3.8-4.7,15,15,0,0,1,1.45-1.45,13.32,13.32,0,0,1,2-1.5,6.92,6.92,0,0,1,2.15-.85,1.69,1.69,0,0,1,1.75.7,2.64,2.64,0,0,1,1,1.3,2.92,2.92,0,0,1,0,1.91c-.24.79-.52,1.63-.85,2.5a25.24,25.24,0,0,0-.85,2.54,4,4,0,0,0-.15,2.05,3.37,3.37,0,0,0,2.25.55,16.25,16.25,0,0,0,3-.39,29.51,29.51,0,0,0,2.9-.81c.9-.3,1.58-.55,2.05-.75a29.16,29.16,0,0,0,4.6-2.4A37.86,37.86,0,0,0,547.64,5866.32Zm-25.2-8.5-1.2,3.2c-.4,1.07-.77,2.17-1.1,3.3a88,88,0,0,0,7.35-5.85,48.93,48.93,0,0,0,6.45-6.95q1.5-2,3-4.3a20,20,0,0,0,2.3-4.8,11.91,11.91,0,0,0,.8-2.65,3.25,3.25,0,0,0-.5-2.64,2.17,2.17,0,0,0-1.55-1,3.86,3.86,0,0,0-1.75.35,6,6,0,0,0-1.65,1.11c-.5.46-.92.86-1.25,1.19a22.62,22.62,0,0,0-3.15,4.25c-.9,1.57-1.79,3.12-2.65,4.65s-1.84,3.25-2.7,4.95S523.17,5856.09,522.44,5857.82Z" transform="translate(-86.59 -307.73)"/>
	<path class="cls-1" d="M575.83,5866.22a.37.37,0,0,1,.61.41,51.29,51.29,0,0,1-2.55,4.79,29.27,29.27,0,0,1-3.56,4.8,18,18,0,0,1-4.44,3.6,8.41,8.41,0,0,1-5.25,1.1,5.64,5.64,0,0,1-3.16-1.25,7.24,7.24,0,0,1-1.94-2.54,10.37,10.37,0,0,1-.9-3.31,13.17,13.17,0,0,1,.09-3.6,2.3,2.3,0,0,1-.29.5,21.72,21.72,0,0,1-1.21,2.41,3.85,3.85,0,0,1-1.9,1.69,2.82,2.82,0,0,1-2.35.15,3.05,3.05,0,0,1-1.44-1.4,6,6,0,0,1-.65-2.25,7.25,7.25,0,0,1,.05-2.3,16.35,16.35,0,0,1,.7-2.8,11,11,0,0,1,1.4-2.8,10.46,10.46,0,0,1,2.1-2.25,5.49,5.49,0,0,1,2.69-1.15c1.47-.2,2.4.11,2.81.9a4.84,4.84,0,0,1,.4,2.8c.19,0,.23.07.1.2a9.7,9.7,0,0,1-.41,1.3,2,2,0,0,0,.41-.5.94.94,0,0,1,1.19-.15.73.73,0,0,1,.4,1.06c-.59,1.46-1.11,2.88-1.54,4.25a8.84,8.84,0,0,0-.15,4.54,7.16,7.16,0,0,0,2.1,3.9,4.5,4.5,0,0,0,4.19,1,9.67,9.67,0,0,0,4.11-1.8,19.17,19.17,0,0,0,3.45-3.3,31.29,31.29,0,0,0,2.8-4.05Q574.93,5868,575.83,5866.22Zm-22.19,4.1a39,39,0,0,0,2.5-5.19c.06-.41.13-.82.19-1.25a2.61,2.61,0,0,0,0-1.16,1.53,1.53,0,0,0-.6-.8,1.79,1.79,0,0,0-1.36-.1,3.18,3.18,0,0,0-1.75,1.06c-.5.56-.94,1.11-1.35,1.64a11.17,11.17,0,0,0-1.9,5.61,8.75,8.75,0,0,0,.11,1.29,3.32,3.32,0,0,0,.39,1.21,1.22,1.22,0,0,0,.86.59,2,2,0,0,0,1.45-.59,2.78,2.78,0,0,0,.9-1.06C553.3,5871.07,553.5,5870.66,553.64,5870.32Z" transform="translate(-86.59 -307.73)"/>
	<path class="cls-1" d="M604.83,5865.92a.38.38,0,0,1,.6,0,.56.56,0,0,1,.1.71,53.39,53.39,0,0,1-5.35,5.39,71,71,0,0,1-5.95,4.7q-1,.7-2.1,1.35a5.9,5.9,0,0,1-2.2.81,3.79,3.79,0,0,1-2.1-.31,3.74,3.74,0,0,1-1.7-1.94,4.82,4.82,0,0,1-.55-3.06c.17-1,.39-2,.65-3,.14-.73.3-1.46.5-2.2s.37-1.46.5-2.19c.07-.27.15-.62.25-1.06s.2-.88.3-1.35a9.45,9.45,0,0,0,.2-1.34,1.91,1.91,0,0,0-.15-1.06c-.2-.4-.45-.58-.75-.55a1.89,1.89,0,0,0-.9.4,7.81,7.81,0,0,0-.9.85c-.3.34-.51.61-.65.8a28.81,28.81,0,0,0-2.7,3.1c-.8.94-1.56,1.94-2.3,3a25,25,0,0,1-2.4,3c-.26.4-.53.37-.8-.1-.26.34-.5.34-.7,0a3.54,3.54,0,0,1-.75-2.25,16.44,16.44,0,0,1,.35-2.55,16.65,16.65,0,0,1,.65-2.64,6,6,0,0,1,1.45-2.36.69.69,0,0,1,.9-.14c.4.16.57.41.5.75a8.05,8.05,0,0,1-.55,2.34,12.25,12.25,0,0,0-.65,2.35,3.76,3.76,0,0,0-.2,1.15,5.06,5.06,0,0,1-.1,1.05,34.23,34.23,0,0,1,3.4-5.25,32.68,32.68,0,0,1,4.2-4.45,8.63,8.63,0,0,1,1.75-1,2,2,0,0,1,1.85.1,2,2,0,0,1,1.15,1.75,15.25,15.25,0,0,1,0,2.25c-.13,1.34-.31,2.62-.55,3.85s-.48,2.52-.75,3.86c-.2.73-.4,1.53-.6,2.39a6.44,6.44,0,0,0-.1,2.5,2,2,0,0,0,2,1.9,5,5,0,0,0,3.15-.9,54,54,0,0,0,6.35-5C601.05,5869.72,603,5867.86,604.83,5865.92Z" transform="translate(-86.59 -307.73)"/>
	<path class="cls-1" d="M635.13,5866c.14-.13.25-.14.35-.05s.09.22-.05.35a21,21,0,0,1-2.9,4.6,35.34,35.34,0,0,1-3.8,4,23.35,23.35,0,0,1-4.1,3,12.49,12.49,0,0,1-4.8,1.54,8.58,8.58,0,0,1-4.2-.4,10.23,10.23,0,0,1-3.35-2,11,11,0,0,1-2.4-3.14,14.94,14.94,0,0,1-1.35-4,2.7,2.7,0,0,1-.6-.5c-.66.94-1.33,1.84-2,2.71s-1.36,1.73-2.1,2.59c-.2.41-.38.82-.55,1.25a5.72,5.72,0,0,1-.65,1.25.28.28,0,0,1-.35.16.33.33,0,0,1-.25-.36,30.25,30.25,0,0,1,1-5.8q.81-2.9,1.6-5.8l2-5.95q1-2.94,2.2-5.84,2-5,4.45-9.71a68.14,68.14,0,0,1,5.65-9c.74-1,1.59-2.16,2.55-3.5a6.65,6.65,0,0,1,3.45-2.6,2.47,2.47,0,0,1,2.6.45,2.81,2.81,0,0,1,.8,2.55,12.38,12.38,0,0,1-1.35,4.4q-1.14,2.31-2.15,4.2a94.89,94.89,0,0,1-11.1,17.55A57.47,57.47,0,0,1,607,5865a9.44,9.44,0,0,0-.3.9,3.12,3.12,0,0,1-.3.8c-.2.74-.4,1.45-.6,2.16s-.43,1.41-.7,2.14c.67-.93,1.35-1.86,2-2.8s1.42-1.83,2.15-2.7c.47-.6.95-1.26,1.45-2a13,13,0,0,1,1.7-2,6.06,6.06,0,0,1,2-1.3,3.39,3.39,0,0,1,2.4.1.24.24,0,0,1,0,.4l.1.1a2.69,2.69,0,0,1,.3,2.6,9.39,9.39,0,0,1-1.2,2.5,11.8,11.8,0,0,1-2.2,2.55,8.08,8.08,0,0,1-2.8,1.66,1.15,1.15,0,0,1-.65.19h-.65c.47.94.95,1.82,1.45,2.65a9.74,9.74,0,0,0,1.85,2.25,7.41,7.41,0,0,0,4.1,2.25,11.12,11.12,0,0,0,4.8-.15,11.58,11.58,0,0,0,4-1.9,25.22,25.22,0,0,0,3.25-2.85q1.5-1.55,2.9-3.3A33.19,33.19,0,0,1,635.13,5866Zm-25.1-9.7c-.46,1.2-.9,2.39-1.3,3.56s-.8,2.34-1.2,3.54q3.51-3.8,6.7-7.75a64.06,64.06,0,0,0,5.8-8.45,80,80,0,0,0,5.4-10.8c.07-.2.25-.65.55-1.35a11.42,11.42,0,0,0,.7-2.19,3.27,3.27,0,0,0,0-1.91c-.2-.5-.73-.61-1.6-.34a5.9,5.9,0,0,0-2.4,2.25c-.8,1.16-1.43,2.08-1.9,2.75a70.54,70.54,0,0,0-6.1,10A103.32,103.32,0,0,0,610,5856.32Zm5,5a9.19,9.19,0,0,0-3.45,3.15c-1,1.44-1.85,2.66-2.65,3.66a.3.3,0,0,0-.1.19,1.62,1.62,0,0,0,1.3.06,5.79,5.79,0,0,0,1.4-.75,13.91,13.91,0,0,0,1.3-1.06c.4-.36.7-.65.9-.85a24.12,24.12,0,0,0,1.6-2.5,1.34,1.34,0,0,0,.5-.9C615.9,5861.52,615.63,5861.19,615,5861.32Z" transform="translate(-86.59 -307.73)"/>
	<path class="cls-1" d="M710.43,5866a.28.28,0,0,1,.35,0c.1.1.09.22,0,.35a27.85,27.85,0,0,1-5.5,4.46q-3,1.84-6,3.64c-1.13.67-2.26,1.3-3.4,1.9s-2.26,1.24-3.4,1.9q-.6,3.51-1,7c-.26,2.34-.6,4.67-1,7-.26,1.81-.65,3.79-1.15,6a35.72,35.72,0,0,1-2,6.25,19.33,19.33,0,0,1-3.35,5.3,10.7,10.7,0,0,1-5,3.2,7.85,7.85,0,0,1-5-.2,9.09,9.09,0,0,1-4-2.9,7.69,7.69,0,0,1-1.8-5.29,23,23,0,0,1,.9-5.71,26.47,26.47,0,0,1,6.2-10.35,53.74,53.74,0,0,1,9.4-7.75,60.06,60.06,0,0,1,6.4-3.69c.27-1.41.57-2.84.9-4.31a33.8,33.8,0,0,1,1.3-4.3c-.26.34-.51.65-.75.95a10.6,10.6,0,0,0-.65.95c-.33.47-.71,1-1.15,1.55a11.59,11.59,0,0,1-1.4,1.55,8.69,8.69,0,0,1-1.6,1.2,3,3,0,0,1-1.85.41,2.31,2.31,0,0,1-2.5-2,9.91,9.91,0,0,1,.35-4.21,24.57,24.57,0,0,1,1.8-4.5,18.18,18.18,0,0,1,1.85-3,1,1,0,0,1,1.4,0,.87.87,0,0,1,.3,1.34,35.12,35.12,0,0,0-1.9,3.1,13.13,13.13,0,0,0-1.2,3.31c-.13.53-.25,1.08-.35,1.64a4,4,0,0,0,0,1.65,1.68,1.68,0,0,0,.6,1.05,1,1,0,0,0,.85.1,3,3,0,0,0,.95-.55,4,4,0,0,0,.8-.8,32,32,0,0,0,4.55-5.7q2-3.09,3.65-6.3a.45.45,0,1,1,.8.41.55.55,0,0,1,.2-.25.74.74,0,0,0,.2-.16.52.52,0,0,1,.7-.05.54.54,0,0,1,.2.75c-.73,1.27-1.45,2.5-2.15,3.71a28.93,28.93,0,0,0-1.85,3.79,30.48,30.48,0,0,0-1.3,3.8c-.33,1.27-.63,2.57-.9,3.91v.09c.8-.4,1.62-.81,2.45-1.25s1.69-.84,2.55-1.25c2.2-1.13,4.34-2.34,6.4-3.65S708.37,5867.42,710.43,5866Zm-20.1,15a5.37,5.37,0,0,0,.15-.8c0-.26.09-.53.15-.8-.66.34-1.31.71-2,1.1s-1.28.8-1.95,1.2a58.37,58.37,0,0,0-4.9,3.3,42,42,0,0,0-4.5,3.9,30.75,30.75,0,0,0-3.75,4.55,24,24,0,0,0-2.65,5.25,18.72,18.72,0,0,0-.9,3.3,11.15,11.15,0,0,0-.1,3.3,8.12,8.12,0,0,0,1,3,6.12,6.12,0,0,0,2.5,2.31,6.42,6.42,0,0,0,3.1.89,6.84,6.84,0,0,0,2.9-.64,9.41,9.41,0,0,0,2.55-1.75,13.88,13.88,0,0,0,2-2.5,26.54,26.54,0,0,0,2.85-6,46.9,46.9,0,0,0,1.65-6.45c.4-2.2.72-4.41,1-6.65S690,5883.16,690.33,5881Z" transform="translate(-86.59 -307.73)"/>
	<path class="cls-1" d="M738.13,5866.13c.13-.21.29-.22.45-.06a.41.41,0,0,1,0,.56,16.35,16.35,0,0,1-8.25,4.89,26.15,26.15,0,0,1-10,.5c-.4-.06-.83-.14-1.3-.25a11.14,11.14,0,0,1-1.3-.35,11.15,11.15,0,0,1-1.45,1.4,7.26,7.26,0,0,1-1.65,1,3.83,3.83,0,0,1-2.75,0,4,4,0,0,1-2.15-1.9,4.35,4.35,0,0,1-.45-3.75,15.13,15.13,0,0,1,1.75-3.45l.1-.09a6.42,6.42,0,0,1,.2-3.11,4.88,4.88,0,0,1,1.55-2.39,6.7,6.7,0,0,1,2.55-1.41,4.77,4.77,0,0,1,2.8.05,4.26,4.26,0,0,1,2.3,1.86,5,5,0,0,1,.7,3.79,15.67,15.67,0,0,1-1.2,3.8l-.6,1.41a7.62,7.62,0,0,1-.8,1.39,15.49,15.49,0,0,0,3.65.75,22.34,22.34,0,0,0,3.45,0,39.35,39.35,0,0,0,6.65-1.3A13,13,0,0,0,738.13,5866.13Zm-22.5,5.29.35-.35.35-.35a13.19,13.19,0,0,1-2.75-1.95,7.37,7.37,0,0,1-1.85-2.55,10.9,10.9,0,0,0-.8,1.8,5,5,0,0,0-.2,2,2.44,2.44,0,0,0,.65,1.55,2.86,2.86,0,0,0,1.25.75,2.49,2.49,0,0,0,1.5,0A4,4,0,0,0,715.63,5871.42Zm.3-11.9a3.43,3.43,0,0,0-2.6,2.2,5.49,5.49,0,0,0,1.5,6,10.7,10.7,0,0,0,2.5,1.7,15.25,15.25,0,0,0,1.2-2.25,16.43,16.43,0,0,0,.8-2.25,6.11,6.11,0,0,0,.25-2,5.46,5.46,0,0,0-.4-1.91,2.6,2.6,0,0,0-1.15-1.3A2.94,2.94,0,0,0,715.93,5859.52Z" transform="translate(-86.59 -307.73)"/>
	<path class="cls-1" d="M768,5866.13a.36.36,0,0,1,.55-.11c.23.14.28.3.15.5a44.48,44.48,0,0,1-3.5,6.15,34.13,34.13,0,0,1-4.6,5.46,19.31,19.31,0,0,1-4.4,3.14,7.85,7.85,0,0,1-5.2.75,5.91,5.91,0,0,1-4.25-2.64,7.37,7.37,0,0,1-1-4.86c.13-1.46.32-3,.55-4.45a23.39,23.39,0,0,1,1.15-4.44,28.16,28.16,0,0,1-1.75,2.69c-.63.87-1.25,1.7-1.85,2.5a7.56,7.56,0,0,1-2,1.9,2.91,2.91,0,0,1-2.7.3,2.67,2.67,0,0,1-1.85-2.25,8.21,8.21,0,0,1,.3-3.5,16.14,16.14,0,0,1,1.55-3.55,8.71,8.71,0,0,1,1.9-2.4.91.91,0,0,1,1,0,.62.62,0,0,1,.35.86,22,22,0,0,1-1.15,2.34,13,13,0,0,0-1,2.45,10.42,10.42,0,0,0-.35,1.6,8.87,8.87,0,0,0-.1,1.8,1.21,1.21,0,0,0,.6,1.1c.37.21,1,.07,1.75-.4a2.8,2.8,0,0,0,1.25-1.25,15.18,15.18,0,0,1,1-1.55c.33-.53.67-1,1-1.5l1-1.4c.53-.73,1.07-1.48,1.6-2.25a15.82,15.82,0,0,1,1.7-2c.07-.13.13-.18.2-.14a.15.15,0,0,1,.1.14,1,1,0,0,1,1.4,1.4c-.33.74-.73,1.71-1.2,2.9a29.93,29.93,0,0,0-1.2,3.85,36.45,36.45,0,0,0-.75,4.15,11.54,11.54,0,0,0,.1,3.75,4.9,4.9,0,0,0,1.5,2.7,4.65,4.65,0,0,0,3.45.95,8.34,8.34,0,0,0,5.15-2.05,31.12,31.12,0,0,0,4.05-3.95,35.75,35.75,0,0,0,3.15-4.09A37.45,37.45,0,0,0,768,5866.13Z" transform="translate(-86.59 -307.73)"/>
</svg>
