<svg xmlns="http://www.w3.org/2000/svg" viewBox="0 0 686 378"><defs><style>.cls-1{fill:#fff;}</style></defs><title>Welcome</title>
    <path class="cls-1" d="M302.51,128.31a9.82,9.82,0,0,0-6.39-.65,15.5,15.5,0,0,0-5.55,2.74,23.46,23.46,0,0,0-4.57,4.7,55.6,55.6,0,0,0-3.45,5.22,163.26,163.26,0,0,0-11,23q-4.17,10.56-7.3,21.2t-6.14,21.34c-1,3.66-2,7.24-3,10.77s-2.09,7.11-3.13,10.76a20.58,20.58,0,0,1-1,2.74,8,8,0,0,1-1.63,2.42,4,4,0,0,1-2.28,1.17,4.13,4.13,0,0,1-2.87-.84,14.9,14.9,0,0,1-5.09-6.86,41.4,41.4,0,0,1-2.35-8.41,47.93,47.93,0,0,1-.46-10.31q.33-5.22,1-10.31.66-5.49,1.7-10.7t2.48-10.44a269.09,269.09,0,0,1-19.32,35.49q-1.83,2.88-3.72,5.74t-4,5.62a11.25,11.25,0,0,1-2.61,2.74,4.29,4.29,0,0,1-3.65.52,6.07,6.07,0,0,1-4.11-2.87,9.85,9.85,0,0,1-1.11-4.7,23.34,23.34,0,0,1,.65-5.35q.66-2.74,1.18-4.83A214.1,214.1,0,0,1,214,181.56q5.49-12.93,10.31-26.23c.87-2.18,1.68-4.35,2.42-6.53s1.45-4.39,2.15-6.65q.39-1.58,1.11-3.72a22.23,22.23,0,0,0,1-4.37,13,13,0,0,0-.13-4.12,4.69,4.69,0,0,0-2.22-3.06,7.33,7.33,0,0,0-5.87-.72,21.14,21.14,0,0,0-5.62,2.28,33.07,33.07,0,0,0-5.22,4.11,42.49,42.49,0,0,0-4.3,4.9,54.52,54.52,0,0,0-10.18,24.79,35.72,35.72,0,0,0-.39,6.86,29.36,29.36,0,0,0,1,6.78,24.86,24.86,0,0,0,2.68,6.27,16.87,16.87,0,0,0,4.63,5c.17.09.19.24.06.46s-.28.24-.45.06a20.32,20.32,0,0,1-8.68-9,25.58,25.58,0,0,1-2.55-12.4,41.18,41.18,0,0,1,3.46-14.1,91.28,91.28,0,0,1,6.85-12.91,53.56,53.56,0,0,1,7-8.62,22.09,22.09,0,0,1,9.53-5.74,13.23,13.23,0,0,1,4.3-.59,10.61,10.61,0,0,1,4,.85,6.94,6.94,0,0,1,2.94,2.48,8,8,0,0,1,1.31,4.18,19,19,0,0,1-.79,6.91q-1.05,3.52-2,6.66-1,3.53-2.09,7T226,159.24q-2.49,6.91-5.22,13.64t-5.35,13.51q-2.61,6.92-5,13.9t-4,14.15a34.11,34.11,0,0,0-.58,3.92,5.93,5.93,0,0,0,.84,3.78,4.33,4.33,0,0,0,2.42,1.9,3.22,3.22,0,0,0,2.93-.59,6.55,6.55,0,0,0,1.31-1.44c.35-.52.74-1.08,1.17-1.69q2.08-3,4-6l3.91-6a239,239,0,0,0,13.9-26.16q6.08-13.38,11.42-27.21a.74.74,0,0,1,1-.53,2,2,0,0,0,.26-.78.59.59,0,0,1,.78-.2.46.46,0,0,1,.26.72,216.65,216.65,0,0,0-6.92,24.47,189.68,189.68,0,0,0-3.78,25.12q-.39,4.71-.39,9.4a31,31,0,0,0,1.43,9.27,24,24,0,0,0,2.35,5.74,11.88,11.88,0,0,0,.66,1.11,7,7,0,0,0,.78,1,10.57,10.57,0,0,0,2,.84,2.65,2.65,0,0,0,2.08.07,2.88,2.88,0,0,0,1.44-1.63,21,21,0,0,0,.91-2.68c.26-1,.48-1.91.66-2.87a15.45,15.45,0,0,1,.52-2.22q2.61-10.17,5-20.36T262.19,181q3-10,6.65-19.77a149.87,149.87,0,0,1,8.62-18.86,66,66,0,0,1,4.3-7,30.7,30.7,0,0,1,5.81-6.39,16.08,16.08,0,0,1,7.11-3.4q3.92-.78,8.22,2a.41.41,0,0,1,.13.65C302.86,128.44,302.69,128.49,302.51,128.31Z"/><path class="cls-1" d="M312.56,197.09c.17-.18.33-.2.46-.07s.1.29-.07.46a41.18,41.18,0,0,1-24,11.61,28.4,28.4,0,0,1-6.2.13,11,11,0,0,1-5.81-2.21,7.51,7.51,0,0,1-2.67-4.18,8.52,8.52,0,0,1,.32-5c-.17-.17-.13-.26.13-.26a.57.57,0,0,1,.13-.39,14.56,14.56,0,0,1,3.27-4.5,11.81,11.81,0,0,1,4.69-2.94,6.19,6.19,0,0,1,3.66.06,3.16,3.16,0,0,1,2.35,2.55,4.1,4.1,0,0,1-.13,2.28,7.14,7.14,0,0,1-1.18,2.09,9.81,9.81,0,0,1-3.65,2.81,8.69,8.69,0,0,1-6.27.26q-.39,4,3.66,6.52a13.39,13.39,0,0,0,8.55,1.18,52.09,52.09,0,0,0,8.54-2.09A42.93,42.93,0,0,0,312.56,197.09Zm-30.41-4.7a14,14,0,0,0-2.87,2.94,9.16,9.16,0,0,0-1.56,3.45,7.69,7.69,0,0,0,3.84.33,8.29,8.29,0,0,0,3.72-1.76,7.22,7.22,0,0,0,1.18-1.18,5.65,5.65,0,0,0,1-1.69,2.73,2.73,0,0,0,.06-1.76,2.31,2.31,0,0,0-1.43-1.37,2.84,2.84,0,0,0-2.16.06A7.45,7.45,0,0,0,282.15,192.39Z"/><path class="cls-1" d="M344.79,196.83c.26-.35.54-.44.85-.26a.53.53,0,0,1,.2.78,117.27,117.27,0,0,1-7.51,9.53,63.43,63.43,0,0,1-8.81,8.35,16.33,16.33,0,0,1-3.85,2.28,11.15,11.15,0,0,1-4,.91,9,9,0,0,1-4-.78,8.84,8.84,0,0,1-3.53-2.93,13.34,13.34,0,0,1-2.08-4.25,18.24,18.24,0,0,1-.72-4.63,36.43,36.43,0,0,1,.19-4.76c.18-1.61.4-3.15.66-4.63a81.76,81.76,0,0,1,5.35-20.23,89.27,89.27,0,0,1,4.17-9.59,75.16,75.16,0,0,1,5.35-8.94c.7-1.05,1.46-2.22,2.29-3.53a28.27,28.27,0,0,1,2.74-3.65,16.83,16.83,0,0,1,3.26-2.87,7.85,7.85,0,0,1,4-1.31c2.09-.08,3.61.39,4.57,1.44a6.28,6.28,0,0,1,1.56,4.11,20.35,20.35,0,0,1-.58,5.61,61.79,61.79,0,0,1-1.76,6.07,56.65,56.65,0,0,1-2.22,5.48c-.79,1.65-1.4,2.87-1.83,3.65A67.11,67.11,0,0,1,329,187.1a44.1,44.1,0,0,1-14.09,10.38,57.34,57.34,0,0,0-.79,8,13.52,13.52,0,0,0,2,7.63,7,7,0,0,0,4.05,3.26,8,8,0,0,0,4.5-.26,15.87,15.87,0,0,0,4.44-2.41q2.15-1.64,4-3.2a52.82,52.82,0,0,0,6.26-6.59Q342.18,200.36,344.79,196.83Zm-25.71-16.45a79.46,79.46,0,0,0-3.91,15.79v.14a50.61,50.61,0,0,0,12.46-9.73,59.87,59.87,0,0,0,9.2-13A61.32,61.32,0,0,0,342.31,160q.53-1.83,1.11-4.05a7.66,7.66,0,0,0,.07-4,3.29,3.29,0,0,0-1.37-2.15,3.89,3.89,0,0,0-2.22-.52,5.45,5.45,0,0,0-2.42.72,8.63,8.63,0,0,0-2,1.43,30.13,30.13,0,0,0-5.29,6.4c-1.52,2.43-2.94,4.83-4.24,7.17A87.8,87.8,0,0,0,319.08,180.38Z"/><path class="cls-1" d="M353,198.26q-.25.13-.39,0t0-.39a8.26,8.26,0,0,0,1.83-2.67,3.25,3.25,0,0,0,.13-3.2q-.91-1.69-1.89-1.11a13.6,13.6,0,0,0-1.9,1.37,12.76,12.76,0,0,0-3.91,6.39,9.39,9.39,0,0,0-.13,4.11,10.48,10.48,0,0,0,1.43,3.66,9.18,9.18,0,0,0,2.74,2.74,8.91,8.91,0,0,0,3.92,1.37,19.49,19.49,0,0,0,7.24-.59,24.78,24.78,0,0,0,6.79-3,36.1,36.1,0,0,0,5.94-4.7,36.59,36.59,0,0,0,4.69-5.54.48.48,0,0,1,.79-.2.6.6,0,0,1,.26.85,37.24,37.24,0,0,1-7.57,8.29,33.52,33.52,0,0,1-9.92,5.54,25.26,25.26,0,0,1-5.22,1.31,18,18,0,0,1-5.28,0,11,11,0,0,1-4.64-1.83,10.3,10.3,0,0,1-3.39-4.18,13,13,0,0,1-1.11-5,14.92,14.92,0,0,1,.85-5.29,15.49,15.49,0,0,1,2.61-4.69,12.36,12.36,0,0,1,4-3.27,5.5,5.5,0,0,1,3.53-.39,2.85,2.85,0,0,1,2.22,2.61,6.17,6.17,0,0,1-.85,4.31A15.21,15.21,0,0,1,353,198.26Z"/><path class="cls-1" d="M415.65,196.83c.18-.26.37-.28.59-.07a.52.52,0,0,1,.07.72,21.23,21.23,0,0,1-10.77,6.39,34.1,34.1,0,0,1-13,.66c-.52-.09-1.08-.2-1.69-.33a14.4,14.4,0,0,1-1.7-.46,14.7,14.7,0,0,1-1.89,1.83,10,10,0,0,1-2.15,1.31,5.16,5.16,0,0,1-3.59,0,5.35,5.35,0,0,1-2.81-2.48,5.68,5.68,0,0,1-.59-4.9,19.08,19.08,0,0,1,2.29-4.5l.13-.13a8.25,8.25,0,0,1,.26-4.05,6.47,6.47,0,0,1,2-3.13,8.67,8.67,0,0,1,3.33-1.83,6.22,6.22,0,0,1,3.65.07,5.62,5.62,0,0,1,3,2.41,6.58,6.58,0,0,1,.91,5,20.6,20.6,0,0,1-1.57,5l-.78,1.83a10,10,0,0,1-1,1.83,20.67,20.67,0,0,0,4.76,1,31.1,31.1,0,0,0,4.5.06,53.14,53.14,0,0,0,8.68-1.7A16.87,16.87,0,0,0,415.65,196.83Zm-29.36,6.91.46-.45.45-.46a17.67,17.67,0,0,1-3.59-2.54A9.77,9.77,0,0,1,381.2,197a13.08,13.08,0,0,0-1,2.35,6.32,6.32,0,0,0-.26,2.61,3.16,3.16,0,0,0,.84,2,3.84,3.84,0,0,0,1.63,1,3.38,3.38,0,0,0,2-.07A5.3,5.3,0,0,0,386.29,203.74Zm.39-15.53a4.46,4.46,0,0,0-3.39,2.87,7.19,7.19,0,0,0,2,7.84,13.86,13.86,0,0,0,3.26,2.21,20.17,20.17,0,0,0,1.56-2.93,20.83,20.83,0,0,0,1.05-2.94,8,8,0,0,0,.33-2.67,7.39,7.39,0,0,0-.53-2.48,3.32,3.32,0,0,0-1.5-1.7A3.79,3.79,0,0,0,386.68,188.21Z"/><path class="cls-1" d="M465.37,197.09a.37.37,0,0,1,.53.52q-2.22,2.35-4.7,4.57a35.58,35.58,0,0,1-5.29,3.91,29.1,29.1,0,0,1-5.94,2.74,18.27,18.27,0,0,1-6.52.92,7.93,7.93,0,0,1-6.13-2.61c-1.4-1.66-1.75-3.83-1.05-6.53a8.74,8.74,0,0,0,.39-1c.18-.47.35-1,.53-1.5s.3-1,.39-1.37a1.49,1.49,0,0,0,0-.85,1,1,0,0,0-1.18-.26,5.73,5.73,0,0,0-1.56.85,10,10,0,0,0-1.44,1.31,8.15,8.15,0,0,0-.91,1.11,26.21,26.21,0,0,0-3.13,4.37c-.88,1.52-1.7,3.11-2.48,4.76,0,.18-.13.26-.4.26a.62.62,0,0,1-.19.46c-.13.13-.28.11-.46-.07A3.1,3.1,0,0,1,424,206a10.35,10.35,0,0,1,.66-3.52c.26-.61.67-1.46,1.24-2.55a37.8,37.8,0,0,0,1.56-3.45,16.42,16.42,0,0,0,1-3.46,3.1,3.1,0,0,0-.65-2.68,6.58,6.58,0,0,0-1.83,1.24,14.6,14.6,0,0,0-1.69,1.89c-.53.7-1,1.4-1.44,2.09s-.83,1.31-1.17,1.83c-.79,1.13-1.55,2.24-2.29,3.33s-1.46,2.19-2.15,3.32a.84.84,0,0,1-.07.4.58.58,0,0,0-.06.26.94.94,0,0,1-.52.91.67.67,0,0,1-.92-.26,3.88,3.88,0,0,1-1.24-3.26,21.52,21.52,0,0,1,.72-3.66c.09-.52.22-1.11.39-1.76s.37-1.28.59-1.89A6.48,6.48,0,0,1,417,193a2.82,2.82,0,0,1,1.37-1q.39-.13.66.39a2.66,2.66,0,0,1,.26,2.54c-.35.92-.66,1.81-.92,2.68a17.69,17.69,0,0,0-.78,3.78,46.2,46.2,0,0,1,5.22-8.87,15.44,15.44,0,0,1,2.87-2.68,3.22,3.22,0,0,1,3.66-.19c.17.09.23.17.19.26a.2.2,0,0,1-.19.13h-.27a2.06,2.06,0,0,1,1.57,1.57,4.91,4.91,0,0,1,.13,2.48,17.4,17.4,0,0,1-.85,3.32c-.39,1.09-.8,2.11-1.24,3.07a28.43,28.43,0,0,1-1.69,3.13,5.39,5.39,0,0,0-.92,3.27,30.68,30.68,0,0,1,4.31-7.83l2.61-3.2a9.91,9.91,0,0,1,3.26-2.68,2.68,2.68,0,0,1,2.35-.19,3.52,3.52,0,0,1,1.7,1.76,4.94,4.94,0,0,1,.19,3.91,29.51,29.51,0,0,0-1.11,3.79c-.87,3.22.27,5.09,3.4,5.61a12.74,12.74,0,0,0,5.09-.26,38.39,38.39,0,0,0,4.43-1.63,27.62,27.62,0,0,0,4.18-2.29c1.57-1,3.13-2,4.7-3.06A23.2,23.2,0,0,0,465.37,197.09Z"/><path class="cls-1" d="M502.7,197.09c.17-.18.32-.2.45-.07s.11.29-.06.46a41.21,41.21,0,0,1-24,11.61,28.41,28.41,0,0,1-6.2.13,11,11,0,0,1-5.81-2.21,7.58,7.58,0,0,1-2.68-4.18,8.44,8.44,0,0,1,.33-5c-.17-.17-.13-.26.13-.26a.57.57,0,0,1,.13-.39,14.52,14.52,0,0,1,3.26-4.5,11.91,11.91,0,0,1,4.7-2.94,6.19,6.19,0,0,1,3.66.06,3.17,3.17,0,0,1,2.35,2.55,4,4,0,0,1-.14,2.28,7.11,7.11,0,0,1-1.17,2.09,9.43,9.43,0,0,1-1.76,1.7,9.75,9.75,0,0,1-1.89,1.11,8.69,8.69,0,0,1-6.27.26q-.39,4,3.66,6.52a13.37,13.37,0,0,0,8.54,1.18,52,52,0,0,0,8.55-2.09A43,43,0,0,0,502.7,197.09Zm-30.41-4.7a14,14,0,0,0-2.87,2.94,9,9,0,0,0-1.57,3.45,7.74,7.74,0,0,0,3.85.33,8.34,8.34,0,0,0,3.72-1.76,7.22,7.22,0,0,0,1.18-1.18,5.42,5.42,0,0,0,1-1.69,2.74,2.74,0,0,0,.07-1.76,2.33,2.33,0,0,0-1.44-1.37,2.82,2.82,0,0,0-2.15.06A7.25,7.25,0,0,0,472.29,192.39Z"/></svg>
